<?xml version="1.0" encoding="UTF-8" standalone="no"?>
<!-- Created with Inkscape (http://www.inkscape.org/) -->

<svg
   xmlns:dc="http://purl.org/dc/elements/1.1/"
   xmlns:cc="http://creativecommons.org/ns#"
   xmlns:rdf="http://www.w3.org/1999/02/22-rdf-syntax-ns#"
   xmlns:svg="http://www.w3.org/2000/svg"
   xmlns="http://www.w3.org/2000/svg"
   xmlns:sodipodi="http://sodipodi.sourceforge.net/DTD/sodipodi-0.dtd"
   xmlns:inkscape="http://www.inkscape.org/namespaces/inkscape"
   width="85mm"
   height="65mm"
   viewBox="0 0 301.18104 230.31484"
   id="svg3363"
   version="1.1"
   inkscape:version="0.91 r13725"
   sodipodi:docname="cape.svg">
  <defs
     id="defs3365" />
  <sodipodi:namedview
     id="base"
     pagecolor="#ffffff"
     bordercolor="#666666"
     borderopacity="1.0"
     inkscape:pageopacity="0.0"
     inkscape:pageshadow="2"
     inkscape:zoom="0.98994949"
     inkscape:cx="326.31046"
     inkscape:cy="71.918991"
     inkscape:document-units="px"
     inkscape:current-layer="layer1"
     showgrid="false"
     inkscape:window-width="1366"
     inkscape:window-height="744"
     inkscape:window-x="0"
     inkscape:window-y="24"
     inkscape:window-maximized="1" />
  <metadata
     id="metadata3368">
    <rdf:RDF>
      <cc:Work
         rdf:about="">
        <dc:format>image/svg+xml</dc:format>
        <dc:type
           rdf:resource="http://purl.org/dc/dcmitype/StillImage" />
        <dc:title></dc:title>
      </cc:Work>
    </rdf:RDF>
  </metadata>
  <g
     inkscape:label="Capa 1"
     inkscape:groupmode="layer"
     id="layer1"
     transform="translate(0,-822.04784)">
    <path
       style="fill:none;fill-rule:evenodd;stroke:#000000;stroke-width:1px;stroke-linecap:butt;stroke-linejoin:miter;stroke-opacity:1"
       d="m 281.4511,838.33133 c 4.91215,69.07709 -41.53539,146.43799 14.73645,207.23127 l -46.97242,-0.614 c -17.9373,-15.3821 -42.00432,-12.8654 -64.77896,-14.1224 -24.52832,-20.2922 -44.49802,-10.4904 -67.00497,-13.2852 -18.162043,-10.8911 -34.37208,-22.75818 -49.06196,-35.38537 -13.51433,4.09576 -34.62303,12.61453 -54.48917,31.69487 -4.95251,-6.2311 -4.6883,-11.1581 -5.21012,-16.2816 3.32804,-18.93536 12.26264,-34.13302 18.6696,-51.01576 7.94518,-9.60984 18.33655,-18.60813 33.21451,-26.48477 l 52.53537,-23.01137 76.63219,-17.14998 45.80564,-13.67656 c 17.21591,-7.39175 32.75745,-16.45787 45.92384,-27.89913 z"
       id="path3346"
       inkscape:connector-curvature="0"
       sodipodi:nodetypes="cccccccccccccc" />
    <path
       style="fill:#372d3e;fill-opacity:0.99607843"
       d="m 13.44346,1009.5668 c -0.73699,-0.8941 -1.33999,-1.8811 -1.33999,-2.1933 0,-0.3121 -0.29348,-1.0155 -0.65218,-1.5629 -0.35869,-0.5475 -0.85314,-2.1525 -1.09877,-3.5667 -0.24562,-1.4142 -0.61877,-2.98239 -0.82922,-3.48479 -0.39152,-0.93468 1.47913,-10.14384 2.1516,-10.59224 0.17907,-0.1194 0.32432,-0.7766 0.3228,-1.46045 -10e-4,-0.68385 0.2455,-1.3968 0.54894,-1.58434 0.30344,-0.18754 0.43169,-0.65377 0.28499,-1.03607 -0.1467,-0.38229 -0.0659,-0.69508 0.17944,-0.69508 0.2454,0 0.32542,-0.19538 0.17784,-0.43418 -0.14759,-0.2388 -0.10912,-0.43418 0.0855,-0.43418 0.1946,0 0.57277,-0.53729 0.84039,-1.19398 2.32611,-5.70792 2.95962,-7.12463 3.27238,-7.31793 0.19833,-0.12257 0.36061,-0.60474 0.36061,-1.07149 0,-0.46674 0.16457,-1.18788 0.3657,-1.60254 1.10933,-2.28692 2.34158,-5.09018 3.76679,-8.56909 1.84601,-4.50611 2.53949,-6.13367 3.5134,-8.24584 0.38449,-0.83386 0.586,-1.81075 0.4478,-2.17089 -0.13819,-0.36012 -0.0294,-0.65478 0.24165,-0.65478 0.27111,0 0.38339,-0.10953 0.24951,-0.2434 -0.13387,-0.13387 0.22433,-0.71113 0.79599,-1.28279 0.57167,-0.57167 1.0394,-1.34135 1.0394,-1.7104 0,-0.36905 0.16552,-0.671 0.36783,-0.671 0.2023,0 0.54422,-0.38048 0.7598,-0.84551 0.81097,-1.74926 6.97445,-8.35625 11.20915,-12.01572 0.86275,-0.74556 4.9821,-3.67625 9.15411,-6.51265 4.17201,-2.83641 7.58851,-5.39519 7.59221,-5.6862 0.004,-0.291 0.29816,-0.41726 0.65434,-0.28058 0.36923,0.14169 0.76205,-0.0497 0.91385,-0.44531 0.14643,-0.3816 0.44115,-0.58572 0.65492,-0.4536 0.21378,0.13212 0.38868,0.0333 0.38868,-0.21958 0,-0.25289 0.39076,-0.4598 0.86836,-0.4598 0.47759,0 0.86835,-0.18222 0.86835,-0.40492 0,-0.22271 0.43673,-0.54353 0.9705,-0.71294 0.53378,-0.16942 12.11001,-5.19181 25.72497,-11.16088 l 24.75446,-10.85285 24.96516,-5.60628 c 13.73083,-3.08345 27.11433,-6.09171 29.7411,-6.68501 2.62677,-0.59331 5.26439,-1.15883 5.86138,-1.25671 0.597,-0.0979 1.37851,-0.25578 1.73671,-0.35089 1.94032,-0.51519 2.92979,-0.75499 3.90759,-0.94702 3.3277,-0.6535 11.73689,-2.62614 12.59112,-2.95364 1.85472,-0.71108 4.21166,-1.33268 4.88449,-1.2882 0.4179,0.0276 0.75981,-0.11126 0.75981,-0.30864 0,-0.42598 2.86406,-1.06657 4.17833,-0.93455 0.50711,0.0509 1.21652,-0.20189 1.57648,-0.56185 0.35995,-0.35996 0.78604,-0.5229 0.94685,-0.36209 0.16081,0.16081 0.46003,0.0211 0.66494,-0.31042 0.23372,-0.37817 1.03938,-0.57669 2.16188,-0.53271 1.13269,0.0444 1.86974,-0.13945 2.00847,-0.50095 0.13958,-0.36374 0.69881,-0.50067 1.54033,-0.37716 0.72666,0.10665 1.7449,-0.006 2.26277,-0.25092 1.10068,-0.51998 2.56304,-1.01007 6.1517,-2.06163 1.43278,-0.41984 2.99581,-0.90909 3.47341,-1.08721 0.47759,-0.17813 1.74756,-0.57612 2.82215,-0.88443 1.07458,-0.3083 2.14917,-0.66987 2.38797,-0.80349 0.2388,-0.13362 1.70027,-0.57583 3.24771,-0.9827 1.54744,-0.40686 2.87887,-0.93579 2.95874,-1.17539 0.0799,-0.23961 0.42566,-0.32803 0.76843,-0.1965 0.34276,0.13153 0.62321,0.044 0.62321,-0.19441 0,-0.4126 2.02529,-1.18364 2.71361,-1.03309 0.17909,0.0392 0.32563,-0.0826 0.32563,-0.27057 0,-0.18798 0.42202,-0.37357 0.93783,-0.41242 0.51581,-0.0389 1.05495,-0.26015 1.1981,-0.49176 0.14314,-0.23161 0.54682,-0.48563 0.89707,-0.56447 0.35025,-0.0788 0.90145,-0.38938 1.22489,-0.69007 0.32343,-0.30069 0.76195,-0.43924 0.97448,-0.30789 0.50776,0.31381 3.01698,-0.99208 3.01698,-1.57014 0,-0.24676 0.20718,-0.32061 0.46039,-0.16412 0.79307,0.49014 7.19116,-2.44171 12.6811,-5.81098 1.61609,-0.99182 3.04331,-1.80331 3.17161,-1.80331 0.27324,0 5.51049,-3.49849 5.82991,-3.89439 0.1194,-0.14799 0.92335,-0.67777 1.78655,-1.17729 0.8632,-0.49953 2.32855,-1.61789 3.25633,-2.48525 0.92777,-0.86736 2.85914,-2.44168 4.29192,-3.49849 l 2.60506,-1.92147 0.39774,2.47231 c 4.92501,31.6568 -9.99629,38.04002 -20.18504,56.0001 -0.36143,1.22583 -0.66569,1.67132 -0.8917,1.30562 -0.25213,-0.40795 -0.77935,-0.14033 -1.98898,1.00962 -2.15319,2.04697 -9.55348,6.50166 -13.27725,7.99238 -2.72436,1.09064 -3.5515,1.73919 -6.45449,5.06099 -1.16836,1.33692 -15.25461,8.52889 -19.47045,9.94097 -1.55218,0.51989 -3.69492,1.33521 -4.76163,1.81181 -1.06671,0.4766 -3.1182,1.02412 -4.55885,1.21671 -1.44066,0.1926 -3.69397,0.66493 -5.00735,1.04963 -3.81646,1.11788 -5.56324,1.54878 -10.63733,2.62403 -10.0073,2.12066 -13.48073,2.91761 -14.11074,3.23763 -0.3582,0.18195 -2.01892,0.57616 -3.6905,0.87605 -1.67159,0.29987 -3.64844,0.91197 -4.39302,1.3602 -0.74458,0.44824 -1.84051,0.81498 -2.4354,0.81498 -0.59489,0 -2.18002,0.58614 -3.5225,1.30253 -1.34249,0.71639 -3.00156,1.30253 -3.68683,1.30253 -1.19118,0 -3.20334,0.51925 -5.06603,1.30732 -0.47759,0.20206 -1.94294,0.69621 -3.25632,1.09811 -1.31339,0.4019 -3.00902,1.08486 -3.76808,1.5177 -0.75906,0.43284 -3.49438,1.5121 -6.07848,2.39836 -2.5841,0.88627 -5.42918,1.97868 -6.3224,2.42761 -0.89321,0.44892 -3.33546,1.42765 -5.4272,2.17496 -2.09175,0.7473 -4.01454,1.52245 -4.27288,1.72254 -0.25833,0.2001 -2.19205,1.05818 -4.29716,1.90684 -2.1051,0.84866 -4.33598,1.90096 -4.95751,2.33845 -0.62153,0.43748 -1.61849,0.94729 -2.21549,1.13291 -0.59699,0.18561 -1.76927,0.76683 -2.60506,1.29161 -0.83579,0.52476 -2.5942,1.3623 -3.90759,1.86118 -1.31338,0.49888 -4.3918,1.89708 -6.84094,3.10712 -2.44915,1.21003 -4.647063,2.20006 -4.884273,2.20006 -0.2372,0 -1.35943,0.48656 -2.49384,1.08123 -1.13441,0.59468 -2.94177,1.46224 -4.01636,1.92791 -1.07459,0.46567 -2.442237,1.13156 -3.039227,1.47977 -0.597,0.3482 -3.38236,1.74341 -6.18969,3.10047 -2.80734,1.35707 -6.0311,3.10316 -7.16392,3.88021 -1.13282,0.77706 -2.60193,1.54764 -3.2647,1.7124 -0.66276,0.16477 -1.56235,0.6569 -1.99907,1.09363 -0.70967,0.70967 -0.91797,0.72911 -1.96029,0.18298 -1.02371,-0.53637 -1.33653,-0.52202 -2.55977,0.11742 -0.76645,0.40066 -1.97969,1.03071 -2.69608,1.40011 -0.71639,0.36941 -1.40022,0.79555 -1.51962,0.94697 -0.11939,0.15142 -1.48705,0.72951 -3.03923,1.28464 -10.79833,3.86197 -24.83329,11.8267 -34.42677,19.53691 -2.09952,1.6874 -3.97895,3.068 -4.17651,3.068 -0.19755,0 -1.34475,0.7847 -2.54932,1.7438 l -2.19014,1.7438 -1.33999,-1.6257 z"
       id="path3348"
       inkscape:connector-curvature="0"
       sodipodi:nodetypes="cssssscscsssscsssscsssssssscsssssscscsscssscscsscccscscssscsscsccccsssssssssccccssssssssscsssssssssscssccssssscsscscscsssssccc" />
    <path
       style="fill:#292329;fill-opacity:0.99607843"
       d="m 248.85381,1045.0479 c -1.22274,-6.9121 -47.08734,-21.6469 -51.14337,-14.7651 -0.37565,0.6374 -3.71482,-0.8197 -6.75421,-1.1505 -8.25349,-0.8985 -9.23175,-1.1922 -13.49724,-4.0525 -4.21229,-2.8247 -8.36074,-4.5701 -15.66864,-6.5926 -4.13765,-1.145 -6.38159,-1.2798 -22.10467,-1.3275 -18.39249,-0.056 -18.51541,-0.071 -25.45692,-3.1467 -0.99946,-0.4429 -2.03562,-0.6703 -2.30257,-0.5053 -0.26694,0.165 -0.48536,0.028 -0.48536,-0.3053 0,-0.5784 -10.66768,-8.3852 -13.609263,-9.9595 -0.77486,-0.4147 -1.73469,-1.0557 -2.13294,-1.4245 -1.34556,-1.2461 -13.762727,-9.88085 -14.209027,-9.88085 -0.24347,0 -1.04677,-0.55262 -1.7851,-1.22804 -0.73834,-0.67542 -3.42147,-2.88589 -5.96252,-4.91215 -3.64945,-2.91011 -4.46205,-3.84262 -3.86786,-4.43857 0.8261,-0.82856 25.621787,-13.36268 32.97046,-16.66643 2.53283,-1.13869 7.64452,-3.53216 11.35934,-5.31882 9.35028,-4.49709 12.8252,-6.01243 22.71868,-9.90716 4.72794,-1.86124 10.94488,-4.30921 13.81542,-5.43994 2.87054,-1.13073 7.15331,-2.60396 9.51729,-3.27384 2.36397,-0.66988 6.23228,-1.93711 8.59626,-2.81606 3.85811,-1.4345 9.99888,-3.05513 20.87663,-5.50962 17.06265,-3.85007 21.65414,-5.02672 27.01681,-6.92353 6.57208,-2.32459 19.36815,-8.7088 21.64415,-10.7987 1.55881,-1.43134 42.76067,-45.85538 41.92379,-43.3599 -1.52864,23.2807 -13.84734,71.722 -11.69948,109.69816 0.26536,4.69188 2.14064,9.02614 3.09678,13.31438 0.95615,4.28825 1.80919,8.41187 2.47814,12.32667 0.66894,3.9148 1.37088,3.279 1.59065,6.732 0.21976,3.4529 2.88805,2.6367 2.49666,5.5394 -0.39139,2.9026 3.10439,2.1432 1.93987,4.4071 -1.16451,2.264 18.19294,21.0109 16.09332,22.5477 -2.09962,1.5368 -31.3006,-1.9794 -34.49729,-1.2581 -3.1967,0.7213 -8.50204,0.5785 -12.95779,0.3958 z M 125.9654,969.72334 c -0.17624,-0.17624 -0.62855,-0.13002 -1.00512,0.10272 -0.49146,0.30374 -0.45967,0.69464 0.11265,1.38514 0.71836,0.8667 0.81792,0.85652 1.00512,-0.10272 0.11428,-0.58559 0.0636,-1.2089 -0.11265,-1.38514 z"
       id="path3350"
       inkscape:connector-curvature="0"
       sodipodi:nodetypes="csssssscsssssssssssssssscsssssssscccssc" />
  </g>
</svg>
