<?xml version="1.0" encoding="UTF-8" standalone="no"?>
<!-- Created with Inkscape (http://www.inkscape.org/) -->

<svg
   xmlns:dc="http://purl.org/dc/elements/1.1/"
   xmlns:cc="http://creativecommons.org/ns#"
   xmlns:rdf="http://www.w3.org/1999/02/22-rdf-syntax-ns#"
   xmlns:svg="http://www.w3.org/2000/svg"
   xmlns="http://www.w3.org/2000/svg"
   xmlns:sodipodi="http://sodipodi.sourceforge.net/DTD/sodipodi-0.dtd"
   xmlns:inkscape="http://www.inkscape.org/namespaces/inkscape"
   width="195mm"
   height="190mm"
   viewBox="0 0 690.94484 673.22817"
   id="svg3452"
   version="1.1"
   inkscape:version="0.91 r13725"
   sodipodi:docname="capucha.svg">
  <defs
     id="defs3454" />
  <sodipodi:namedview
     id="base"
     pagecolor="#ffffff"
     bordercolor="#666666"
     borderopacity="1.0"
     inkscape:pageopacity="0.0"
     inkscape:pageshadow="2"
     inkscape:zoom="0.98994949"
     inkscape:cx="257.2152"
     inkscape:cy="251.51556"
     inkscape:document-units="px"
     inkscape:current-layer="layer1"
     showgrid="false"
     inkscape:window-width="1366"
     inkscape:window-height="744"
     inkscape:window-x="0"
     inkscape:window-y="24"
     inkscape:window-maximized="1" />
  <metadata
     id="metadata3457">
    <rdf:RDF>
      <cc:Work
         rdf:about="">
        <dc:format>image/svg+xml</dc:format>
        <dc:type
           rdf:resource="http://purl.org/dc/dcmitype/StillImage" />
        <dc:title></dc:title>
      </cc:Work>
    </rdf:RDF>
  </metadata>
  <g
     inkscape:label="Capa 1"
     inkscape:groupmode="layer"
     id="layer1"
     transform="translate(0,-379.13409)">
    <path
       style="fill:#3a2f41;fill-opacity:1"
       d="m 257.04799,1015.8524 c -0.39286,-0.3975 -10.03572,-1.0806 -21.42857,-1.518 -11.39286,-0.4375 -22.64286,-1.4495 -25,-2.2488 -2.35715,-0.7994 -8.14286,-2.2447 -12.85715,-3.2118 -4.71428,-0.967 -9.21428,-1.9274 -10,-2.134 -0.78571,-0.2066 -2.71428,-0.6771 -4.28571,-1.0456 -6.10616,-1.4316 -37.48653,-12.23883 -43.78257,-15.07843 -8.09868,-3.6527 -15.50315,-11.7018 -15.50315,-16.8529 0,-2.0699 1.93262,-7.1878 4.29472,-11.3732 l 4.29471,-7.6098 -8.22328,-14.2226 c -6.83132,-11.81521 -13.90741,-21.279 -23.97924,-32.07063 -0.80863,-0.86641 -4.91487,-6.23601 -9.12499,-11.93244 -4.21012,-5.69643 -8.24717,-10.35714 -8.97122,-10.35714 -0.72405,0 -0.95308,-0.58796 -0.50896,-1.30656 0.44412,-0.7186 0.24094,-1.52217 -0.45152,-1.78572 C 79.8535,882.47014 72.802766,868.2674 67.099336,854.0542 52.314588,817.2099 49.026478,803.56928 47.700518,773.57884 c -1.85426,-41.93993 -0.62854,-59.845 5.93297,-86.6675 4.98009,-20.35788 8.58123,-30.50783 19.040108,-53.66531 1.6202,-3.58736 2.94582,-7.07443 2.94582,-7.74906 0,-0.67463 2.571434,-6.22096 5.714284,-12.32519 3.14286,-6.10422 5.71429,-12.0993 5.71429,-13.32237 0,-1.22308 0.49667,-2.22378 1.10371,-2.22378 0.60704,0 2.32824,-2.41072 3.8249,-5.35715 2.44506,-4.81352 14.01646,-22.4736 21.50852,-32.82595 3.31181,-4.57616 26.9812,-27.22808 36.42828,-34.86233 8.72025,-7.04689 28.13143,-20.45113 42.84887,-29.58893 13.42795,-8.33718 13.71215,-8.50004 22.85715,-13.09787 3.53571,-1.77766 7.35085,-4.08894 8.4781,-5.1362 1.71492,-1.59324 1.13185,-1.65409 -3.57143,-0.37276 -9.39625,2.55985 -26.43646,10.97433 -34.39965,16.9866 -4.14001,3.12574 -8.16579,5.68316 -8.94617,5.68316 -0.78039,0 -1.93297,0.80357 -2.5613,1.78571 -0.62832,0.98215 -2.74955,2.68755 -4.71384,3.78978 -1.96429,1.10223 -8.43416,12.08355 -10.0563,13.13691 -2.59498,1.6851 -0.003,-7.73812 -4.32162,-10.92871 -2.69928,-1.99445 -10.25944,-6.63228 -16.80035,-10.30628 -19.45556,-10.9281 -27.39316,-20.52991 -27.39316,-33.13646 0,-11.09259 38.56455,-39.97096 62.98152,-47.16259 16.00261,-4.71331 21.60111,-5.94154 23.59507,-5.17639 0.99665,0.38246 12.29964,0.81933 25.11775,0.97082 21.39503,0.25287 25.12096,0.70834 45.44852,5.55571 12.17857,2.90414 24.39286,6.00298 27.14286,6.88631 2.75,0.88333 13.67857,2.27757 24.28571,3.09833 10.60714,0.82075 23.26087,1.82391 28.11939,2.22924 5.4251,0.4526 25.5039,5.96385 52.03638,14.283 42.2308,13.2413 48.49433,14.95838 44.12995,12.09776 -2.12332,-1.39173 -34.77102,-12.35608 -47.14286,-15.83239 -7.755,-2.17904 -7.34993,-2.05397 -10,-3.08759 -1.17857,-0.45968 -7.60715,-2.62237 -14.28572,-4.80597 l -12.14285,-3.97018 5.71428,-1.02654 c 3.14286,-0.56459 7,-0.77753 8.57143,-0.47319 1.57143,0.30435 7.54523,0.89527 13.27511,1.31316 5.72989,0.41789 15.05132,1.66943 20.71429,2.78118 5.66297,1.11176 12.86774,2.45391 16.0106,2.98256 10.56464,1.77704 60.25078,19.23468 70.00001,24.59508 18.12019,9.963 27.48664,14.60906 29.52381,14.64474 1.30952,0.0229 2.59523,0.57715 2.85715,1.23157 0.62127,1.55239 16.53931,11.66729 18.36107,11.66729 0.77046,0 1.40083,0.65876 1.40083,1.46393 0,0.80516 1.60714,2.07496 3.57143,2.82178 1.96428,0.74682 3.57142,2.01662 3.57142,2.82178 0,0.80517 0.91072,1.46393 2.02382,1.46393 1.11308,0 2.23808,0.50409 2.5,1.12021 0.2619,0.61611 7.22618,6.52327 15.47618,13.12703 20.00315,16.01163 42.45012,38.85718 50.81988,51.72226 7.76337,11.93299 15.66513,27.17322 17.09566,32.97258 0.53481,2.16814 1.54404,4.29535 2.24271,4.72717 0.69867,0.4318 1.27032,1.775 1.27032,2.98488 0,1.20989 0.87428,4.22552 1.94284,6.7014 1.85593,4.30023 6.79244,19.74953 7.4646,23.36123 0.17573,0.94422 1.33411,5.76564 2.5742,10.71429 4.51841,18.03101 6.26584,53.61351 4.30046,87.56895 -1.91385,33.06503 -14.48986,74.5655 -35.06524,115.71429 -12.42198,24.84277 -37.12535,61.67499 -41.83034,62.36819 -0.84116,0.12385 -3.45794,0.33751 -5.81509,0.47462 -24.27145,1.41185 -48.91969,9.63753 -57.26538,11.05164 -16.61652,2.81553 -6.559,-4.18925 -1.98067,-22.36059 3.4387,-13.64813 3.69803,-14.74625 6.26614,-26.53386 1.11266,-5.10714 6.92399,-24.07143 12.91406,-42.14286 13.69934,-41.32951 14.63301,-45.33115 16.62203,-71.2409 1.55321,-20.23274 1.4918,-21.55494 -1.29389,-27.85714 -6.16624,-13.95024 -17.6605,-49.72953 -19.79153,-61.60701 -2.01216,-11.21498 -8.66694,-31.03908 -14.38988,-42.86638 -5.6721,-11.72221 -8.43166,-15.42838 -20.25246,-27.19961 -15.26564,-15.20164 -18.19473,-17.66376 -41.39179,-34.79286 -17.84744,-13.17885 -32.82286,-22.20227 -45.49774,-27.41461 -6.4172,-2.63897 -10.91458,-3.38969 -20.46532,-3.41615 -13.56336,-0.0376 -22.09512,2.03 -38.47358,9.32363 -28.14038,12.53143 -44.19375,18.97022 -50.83072,20.38748 -4.60063,0.98242 -16.23389,1.23718 -31.76369,0.69561 l -24.50436,-0.85456 -9.1612,4.51005 c -7.06971,3.48041 -11.93274,7.52288 -21.3012,17.70697 -6.677,7.2583 -14.1645,15.76834 -16.63888,18.9112 -2.47439,3.14285 -7.86293,9.93234 -11.97453,15.08773 -11.62953,14.58184 -18.62868,25.9403 -28.25292,45.84982 -5.45678,11.28836 -10.69894,51.35495 -9.31623,71.2053 1.74373,25.03319 18.37706,96.79505 25.96115,112.0052 1.13756,2.28143 2.0683,4.85798 2.0683,5.72565 0,4.66994 28.71836,47.22815 43.53136,64.50987 2.74002,3.19667 5.15568,7.37524 5.36811,9.28571 0.3691,3.31937 0.70525,17.15125 -6.65151,2.96643 -1.78672,-3.44503 -7.93453,-1.40393 -9.0306,-2.5 -1.09609,-1.09607 -2.47009,-1.99286 -3.05335,-1.99286 -0.58325,0 -5.51948,-5.89457 -10.96938,-13.09905 -5.4499,-7.20447 -10.59459,-13.79376 -11.43263,-14.64286 -0.83803,-0.84909 -2.76063,-3.47237 -4.27243,-5.82951 -7.40081,-11.53908 -17.77529,-24.01335 -17.77529,-21.37302 0,1.52996 15.61417,26.49797 21.4064,34.23016 2.94292,3.92857 7.10578,10.19643 9.25079,13.92857 3.7038,6.4443 3.51181,7.69636 -1.06393,6.93836 -5.85,-0.9691 -10.76798,-2.36006 -44.23843,-12.51206 -18.86181,-5.72101 -22.71186,-5.56137 -26.14847,1.0843 -2.7536,5.32487 -2.03697,6.62076 1.5,2.71244 3.75885,-4.15348 9.11514,-3.6393 31.57802,3.03132 26.60377,7.9003 33.42272,9.62001 47.71562,12.03373 37.7906,6.38191 42.68028,6.65871 105,5.94581 63.72379,-0.7289 76.78562,-1.6063 153.57144,-10.31501 46.11827,-5.23055 52.29363,-6.05059 55.71429,-7.39838 5.612,-2.2112 39.05274,-5.56132 54.98414,-5.50835 13.62713,0.0453 18.00537,-0.39212 18.57089,-1.85536 0.40697,-1.05306 0.3785,-2.49949 -0.0633,-3.21429 -0.44177,-0.71481 -0.14296,-1.29965 0.66404,-1.29965 0.80699,0 2.46985,-1.64379 3.44538,-3.77539 1.27592,-2.78799 -1.98024,-22.08509 3.05387,-2.03478 0.70883,2.82318 -0.54595,17.23874 -2.42449,17.23874 -0.86013,0 -1.14994,0.41394 -0.64401,0.91987 0.50593,0.50593 -1.04045,3.15253 -3.43637,5.88136 l -4.35626,4.9615 4.42894,3.76144 4.42894,3.7615 -3.67228,11.4286 c -2.01976,6.2857 -3.57686,13.0357 -3.46023,15 0.75759,12.7594 -0.12857,17.0866 -4.5244,22.0932 -2.75901,3.1423 -5.7268,5.0497 -7.85714,5.0497 -1.8829,0 -3.42345,0.4821 -3.42345,1.0714 0,0.5893 -2.08928,1.1263 -4.64285,1.1933 -21.30313,0.5593 -58.1851,2.3554 -74.64286,3.63499 -11,0.8553 -21.92857,1.4985 -24.28571,1.4294 -2.35715,-0.069 -7.82143,0.6221 -12.14286,1.53604 -4.32143,0.9139 -8.32606,1.5476 -8.89917,1.4081 -1.68567,-0.4103 -36.42243,3.8243 -50.38656,6.1424 -29.23601,4.8532 -50.4426,6.4947 -95,7.3533 -25.53571,0.4921 -46.75,0.5695 -47.14284,0.1721 z m 16.40255,-9.8706 c 0.51306,-0.5113 -1.84262,-1.3895 -5.23487,-1.9516 -3.39223,-0.5621 -7.13197,-1.5209 -8.31054,-2.1306 -1.17857,-0.6097 -4.39286,-1.4555 -7.14286,-1.8795 -2.75,-0.42414 -7.25,-1.42964 -10,-2.23444 -2.75,-0.80469 -6.60714,-1.78759 -8.57143,-2.18399 -1.96428,-0.3965 -12.8396,-3.0053 -24.16735,-5.7974 -22.56739,-5.5624 -45.0438,-8.6269 -52.71653,-7.1875 -7.99386,1.4997 -3.54904,3.0333 16.1696,5.5791 10.21428,1.3188 32.39286,5.6027 49.28571,9.51989 16.89286,3.91734 32.8654,7.58884 35.49453,8.15894 5.93973,1.2881 13.95194,1.3446 15.19374,0.107 z M 412.8138,981.40237 c 10.63549,-2.0593 26.06407,-5.6269 34.28573,-7.9278 8.22165,-2.301 17.36628,-4.6312 20.3214,-5.1782 2.9551,-0.5471 5.72518,-1.5646 6.15572,-2.2613 0.43056,-0.6966 2.19632,-1.2666 3.92392,-1.2666 1.7276,0 8.81127,-1.9286 15.74147,-4.2857 6.9302,-2.3571 13.39161,-4.2857 14.3587,-4.2857 0.96707,0 3.00619,-0.9742 4.53136,-2.1648 2.66551,-2.0808 2.63454,-2.138 -0.79839,-1.4747 -10.20754,1.9723 -50.44427,12.2095 -73.57143,18.7185 -1.57143,0.4422 -4.78572,1.115 -7.14286,1.495 -2.35715,0.3801 -9.10715,1.6224 -15,2.7607 -31.0498,5.9978 -52.0034,6.5672 -104.28572,2.8339 -21.93841,-1.5665 -68.90761,-7.0677 -71.02958,-8.3191 -0.6123,-0.3611 -4.64899,-1.0713 -8.97042,-1.5782 -4.32143,-0.5069 -15.25,-2.1694 -24.28571,-3.6944 -9.03572,-1.525 -24.44509,-3.7572 -34.24306,-4.9605 -35.09991,-4.3107 -37.48867,-1.7529 -3.35891,3.5966 23.98525,3.7594 22.81544,3.5625 36.88768,6.2093 6.28572,1.1823 13.67857,2.4697 16.42857,2.8609 8.43845,1.2006 23.37646,3.6324 27.14286,4.4186 8.94934,1.8682 38.52279,5.0748 59.98216,6.5037 12.95447,0.8626 23.76173,1.7765 24.01613,2.0309 0.2544,0.2544 13.76242,0.2939 30.01784,0.088 24.97834,-0.3167 32.54988,-0.9546 48.89254,-4.119 l 0,0 z m 138.44705,-8.1144 c 13.26118,-4.3702 26.77493,-10.573 32.21572,-14.7871 1.57143,-1.2171 2.21428,-2.2331 1.42857,-2.2577 -1.40467,-0.044 -13.01541,4.143 -21.42857,7.7273 -2.35714,1.0043 -10.07143,3.9262 -17.14286,6.4932 -7.07143,2.567 -14.46428,5.5837 -16.42857,6.7037 -3.45067,1.9676 -3.3752,2.0106 2.23201,1.2733 3.1919,-0.4197 11.79756,-2.7384 19.1237,-5.1527 z m -11.35571,-32.024 c 6.67857,-0.4518 16.64286,-1.4377 22.14286,-2.1909 5.5,-0.7532 13.05357,-1.7478 16.78571,-2.2103 3.73214,-0.4624 6.78572,-1.5386 6.78572,-2.3915 0,-1.0827 -5.06519,-1.2553 -16.78572,-0.5718 -25.56513,1.4908 -46.07143,5.1242 -46.07143,8.1632 0,0.8084 1.125,1.1442 2.5,0.7463 1.375,-0.3979 7.96429,-1.0932 14.64286,-1.545 z M 176.99731,488.39475 c 7.0993,-6.25555 12.90782,-11.84711 12.90782,-12.42569 0,-2.58384 -9.38929,2.61448 -16.56065,9.1687 -7.31662,6.68698 -14.15379,16.31895 -10.7516,15.14648 0.82313,-0.28366 7.30512,-5.63394 14.40443,-11.88949 z"
       id="path3689"
       inkscape:connector-curvature="0"
       sodipodi:nodetypes="cssscsssscssssscssssssssssssssssssssssssssssssssssscssssssccssssscssscsssssscsssssssssssssssscsssssssssssssssssssssssssssssccsssssscccssssssscscssccsssssssssscccsscssssssssscsssssssssscccsscssssssssssssssssss" />
    <path
       style="fill:#000000;fill-opacity:1"
       d="m 315.34783,604.38427 c -43.97594,-3.6649 -54.05617,-5.06292 -133.84522,-18.56285 -32.13034,-5.4363 -40.96184,-7.51934 -27.77919,-6.55213 14.66828,1.07621 75.14815,9.65396 88.38835,12.53595 11.44205,2.49059 59.89353,7.39887 90.91373,9.20984 21.61737,1.26202 53.04821,0.70856 64.64976,-1.13843 19.74824,-3.14394 40.75928,-7.39923 52.52793,-10.63829 21.08585,-5.8034 61.39063,-15.66237 61.90933,-15.14367 0.70904,0.70903 -2.85043,1.97234 -18.47277,6.55628 -7.77817,2.28229 -16.86955,5.02098 -20.20305,6.08598 -23.45195,7.49253 -65.95362,16.70602 -83.93707,18.19585 -16.19624,1.34177 -54.90564,1.05542 -74.1518,-0.54853 z"
       id="path3438"
       inkscape:connector-curvature="0"
       transform="translate(0,379.13403)" />
    <path
       style="fill:#000000;fill-opacity:1"
       d="m 261.51897,627.14233 c -1.25063,-0.18842 -12.39144,-2.66627 -24.75738,-5.50633 -32.70515,-7.51132 -46.7976,-10.31669 -65.46877,-13.03278 -10.39303,-1.51187 -15.67132,-2.5155 -17.01697,-3.23567 l -0.78762,-0.42153 0.91616,-0.48002 c 4.4587,-2.33615 22.05669,-0.86415 43.49558,3.63825 6.22016,1.3063 26.39194,6.10101 41.96428,9.97465 5.10714,1.27041 10.99312,2.63473 13.07995,3.03182 2.08682,0.39709 5.14039,1.18811 6.78571,1.75781 1.64532,0.5697 4.93351,1.44556 7.3071,1.94635 5.42058,1.14366 6.48921,1.52597 5.90345,2.112 -0.5491,0.54936 -8.24206,0.69448 -11.42149,0.21545 z"
       id="path3440"
       inkscape:connector-curvature="0"
       transform="translate(0,379.13403)" />
    <path
       style="fill:#000000;fill-opacity:1"
       d="m 528.96574,598.72452 c 2.3322,-1.46428 8.6532,-4.05765 20.87274,-8.56366 4.23633,-1.56216 10.65711,-4.03142 14.2684,-5.48724 11.23973,-4.53108 19.59754,-7.50453 20.64241,-7.34395 0.48098,0.0739 0.47934,0.0958 -0.0584,0.77654 -1.36502,1.72801 -9.27188,6.22293 -16.6891,9.48748 -13.5625,5.96927 -33.13218,11.92327 -39.124,11.90332 l -1.13642,-0.004 1.22435,-0.76871 z"
       id="path3442"
       inkscape:connector-curvature="0"
       transform="translate(0,379.13403)" />
    <path
       style="fill:#000000;fill-opacity:1"
       d="m 523.04268,563.23137 c -1.1125,-1.34049 5.08452,-3.4862 14.82071,-5.13167 10.88415,-1.83947 30.62776,-3.54635 41.01698,-3.546 6.13619,2e-4 7.62801,0.41145 5.66062,1.56047 -1.34044,0.78286 -3.65586,1.20831 -14.12065,2.59462 -12.90436,1.70949 -17.73526,2.25302 -25.88516,2.91238 -10.53034,0.85196 -14.8827,1.26211 -17.53275,1.65222 -3.16554,0.466 -3.54143,0.46201 -3.95975,-0.042 z"
       id="path3444"
       inkscape:connector-curvature="0"
       transform="translate(0,379.13403)" />
    <path
       style="fill:#000000;fill-opacity:1"
       d="m 162.39361,135.82981 c 0,-0.19196 3.7258,-5.56715 5.36469,-7.7396 1.05663,-1.40063 2.00408,-2.31315 3.33221,-3.20936 1.02068,-0.68875 2.57752,-1.99876 3.45963,-2.91114 1.04469,-1.08052 1.91252,-1.74263 2.48921,-1.89912 1.3204,-0.35831 4.23392,-2.15284 8.32571,-5.12808 7.57036,-5.50457 18.09994,-11.16081 28.30116,-15.202699 3.8897,-1.541163 9.27592,-3.159452 10.46249,-3.143452 l 0.76809,0.01036 -1.08791,0.983945 c -1.4897,1.347346 -4.64606,3.191508 -11.79153,6.889418 -3.33351,1.72514 -7.70873,4.13935 -9.72272,5.3649 -12.22936,7.44179 -24.39622,15.32965 -34.78713,22.55273 -2.81264,1.95516 -5.1139,3.49961 -5.1139,3.4321 z"
       id="path3446"
       inkscape:connector-curvature="0"
       transform="translate(0,379.13403)" />
    <path
       style="fill:#000000;fill-opacity:1"
       d="m 161.88854,120.695 c 0,-2.28445 8.38356,-12.16469 14.52094,-17.11329 4.71409,-3.801005 9.94712,-6.870634 12.23634,-7.177682 1.4617,-0.196056 1.35207,0.377559 -0.43018,2.250667 -2.9548,3.105435 -12.7868,11.946015 -19.6545,17.672625 -5.54084,4.62021 -6.6726,5.36102 -6.6726,4.36768 z"
       id="path3448"
       inkscape:connector-curvature="0"
       transform="translate(0,379.13403)" />
    <path
       style="fill:#000000;fill-opacity:1"
       d="m 222.36133,555.05977 c -6.91059,-1.04733 -20.02469,-3.23021 -24.65404,-4.10373 -2.93384,-0.55359 -8.78013,-1.79238 -8.94774,-1.89597 -0.0702,-0.0434 -0.0617,-4.25281 0.009,-4.25281 0.0316,0 0.35126,0.0694 0.71026,0.15418 0.99923,0.23601 2.99769,0.63555 4.1567,0.83101 0.79277,0.1337 1.26049,0.17653 1.95717,0.17924 0.85403,0.003 0.93662,-0.007 1.23103,-0.15427 0.91619,-0.45823 0.84472,-1.48971 -0.26713,-3.85551 -1.01848,-2.16711 -3.51033,-6.28201 -6.56481,-10.84073 l -1.28076,-1.9115 0,-3.69484 0,-3.69485 0.35905,0.0189 0.35906,0.0189 1.47426,1.89404 c 0.81085,1.04172 2.51565,3.25774 3.78844,4.92449 1.27279,1.66675 2.95408,3.86857 3.7362,4.89293 3.93011,5.14731 7.26608,9.23643 9.03395,11.07349 0.75719,0.78682 1.08545,1.04789 1.31951,1.04939 0.38826,0.003 1.6638,0.82925 2.62157,1.69919 0.31657,0.28754 0.5626,0.45553 0.74398,0.50798 0.17843,0.0516 1.06897,0.0944 2.60698,0.12521 2.04456,0.041 2.4173,0.064 2.98783,0.18468 1.13993,0.24107 1.92949,0.64019 2.47331,1.25025 0.15625,0.1753 0.48058,0.6847 0.72072,1.13201 1.01577,1.89211 1.88943,3.29747 2.6152,4.20678 0.21479,0.26912 0.35468,0.48648 0.31085,0.48303 -0.0438,-0.003 -0.71891,-0.10315 -1.5002,-0.22156 z"
       id="path3450"
       inkscape:connector-curvature="0"
       transform="translate(0,379.13403)" />
    <path
       style="fill:#000000;fill-opacity:1"
       d="m 185.67701,524.79728 c -7.86364,-10.97949 -21.99863,-33.69847 -21.3621,-34.33499 0.28349,-0.28349 2.51555,1.77652 4.82834,4.45614 3.31779,3.84404 7.61218,9.60568 11.96619,16.05465 1.95851,2.90087 4.42935,6.2971 5.49075,7.54716 2.09059,2.46221 2.56551,3.15673 2.15862,3.15673 -0.1548,0 -0.28179,1.34436 -0.32456,3.43599 l -0.0703,3.43598 -2.68698,-3.75166 z"
       id="path3452"
       inkscape:connector-curvature="0"
       transform="translate(0,379.13403)" />
    <path
       style="fill:#000000;fill-opacity:1"
       d="m 184.56824,547.95386 c -5.22631,-1.33272 -9.43659,-2.51832 -23.3521,-6.5759 -21.25719,-6.1983 -26.2601,-7.33827 -30.72354,-7.0007 -2.45398,0.18559 -3.77782,0.83412 -6.00415,2.94136 -3.03945,2.87684 -3.41982,2.23609 -1.29476,-2.18104 2.42825,-5.04736 4.91464,-6.36325 10.65756,-5.64039 3.90131,0.49107 8.10659,1.63174 27.49116,7.45691 10.00051,3.00521 20.21758,6.00799 22.7046,6.67285 l 4.52187,1.20883 0.0238,2.05734 c 0.0131,1.13155 -0.033,2.0509 -0.10244,2.04301 -0.0694,-0.008 -1.83436,-0.44991 -3.92202,-0.98227 l 1e-5,0 z"
       id="path3454"
       inkscape:connector-curvature="0"
       transform="translate(0,379.13403)" />
    <path
       style="fill:#000000;fill-opacity:1"
       d="m 533.5833,537.53936 c 0.088,-0.0829 8.42484,-2.16032 11.92305,-2.97109 13.47614,-3.12332 22.94498,-4.59998 34.47031,-5.37564 4.50274,-0.30303 5.20271,-0.39659 5.86316,-0.78364 1.54477,-0.90529 4.83169,-4.57545 8.75395,-9.77461 l 1.58246,-2.09763 0.0925,2.34291 c 0.0509,1.28859 0.0648,3.01495 0.031,3.83634 -0.0576,1.39907 -0.0901,1.55113 -0.51428,2.40637 -0.8538,1.72155 -2.27502,3.1716 -3.26345,3.32966 -0.82815,0.13242 -0.92238,0.42223 -0.52087,1.60207 0.31381,0.92214 0.32629,1.04402 0.19806,1.93413 -0.17333,1.20316 -0.47874,1.55699 -1.65964,1.92276 -2.00549,0.62118 -4.4518,0.76483 -15.36105,0.90205 -5.13915,0.0647 -9.74165,0.14706 -10.22779,0.18315 -0.48614,0.0361 -2.0203,0.12449 -3.40926,0.19646 -7.14546,0.37023 -19.56933,1.43524 -25.82203,2.21352 -1.4384,0.17904 -2.23761,0.22887 -2.13605,0.13319 z"
       id="path3456"
       inkscape:connector-curvature="0"
       transform="translate(0,379.13403)" />
    <path
       style="fill:#000000;fill-opacity:1"
       d="m 439.73203,591.71352 0.007,-0.11531 1.11607,-0.30948 c 8.25879,-2.29005 17.97357,-4.88632 28.54294,-7.62808 l 1.55633,-0.40372 0.97161,0.006 0.97161,0.006 -0.98776,0.25113 c -7.6317,1.9403 -14.53194,3.75184 -20.85433,5.47495 -3.45014,0.94031 -5.73689,1.52313 -9.06201,2.3096 -0.75427,0.17841 -2.24445,0.52459 -2.25814,0.52459 -0.005,0 -0.007,-0.0519 -0.003,-0.11531 z"
       id="path3458"
       inkscape:connector-curvature="0"
       transform="translate(0,379.13403)" />
    <path
       style="fill:#000000;fill-opacity:1"
       d="m 439.72762,596.01496 0,-0.23351 0.0837,-0.0222 c 0.046,-0.0122 0.59598,-0.14256 1.2221,-0.28969 4.55517,-1.07038 9.7163,-2.34809 14.04018,-3.47583 6.68061,-1.74242 12.67124,-3.44758 17.78651,-5.06272 0.48905,-0.15442 0.89539,-0.28076 0.90297,-0.28076 0.008,0 -0.0217,0.0377 -0.0651,0.0837 -0.0434,0.046 -0.11643,0.1362 -0.1623,0.20037 -0.40536,0.56703 -2.40594,1.3759 -4.7944,1.93848 -0.23708,0.0558 -0.85293,0.1858 -1.36855,0.2888 -1.74943,0.34945 -3.4933,0.75661 -6.88616,1.60779 -3.78944,0.95067 -8.25296,2.13454 -12.57813,3.33613 -2.3975,0.66605 -3.15957,0.87106 -5.14051,1.3829 -1.4114,0.36467 -2.98107,0.76003 -3.01753,0.76003 -0.014,0 -0.0228,-0.0897 -0.0228,-0.23351 z"
       id="path3460"
       inkscape:connector-curvature="0"
       transform="translate(0,379.13403)" />
    <path
       style="fill:#000000;fill-opacity:1"
       d="m 471.8552,583.2528 -0.86778,-0.008 1.06507,-0.27443 c 4.78409,-1.23267 8.40442,-2.15501 12.88879,-3.28364 l 2.76391,-0.69562 1.18199,9.9e-4 1.182,9.9e-4 -0.37091,0.0919 c -0.20401,0.0505 -0.9995,0.24591 -1.76777,0.43415 -3.63761,0.8913 -9.20956,2.27903 -13.08794,3.25964 -1.59717,0.40383 -1.95283,0.48905 -2.0282,0.48596 -0.0503,-0.002 -0.48189,-0.007 -0.95916,-0.0118 z"
       id="path3462"
       inkscape:connector-curvature="0"
       transform="translate(0,379.13403)" />
    <path
       style="fill:#000000;fill-opacity:1"
       d="m 477.14895,585.60607 c 0.18215,-0.0874 9.4396,-2.86135 15.9099,-4.76733 6.86855,-2.02329 9.67874,-2.86889 12.50064,-3.76151 0.86415,-0.27335 3.36303,-1.1038 3.49707,-1.16218 0.0525,-0.0229 0.0557,0.001 0.0473,0.36197 l -0.009,0.38648 -0.25254,0.093 c -0.45044,0.16594 -0.76791,0.24413 -1.12929,0.27814 -1.44977,0.13644 -5.99212,1.47159 -13.31273,3.91307 -5.39941,1.80075 -7.60053,2.48541 -10.87492,3.38265 -2.90714,0.79661 -5.00676,1.24703 -5.95043,1.27652 -0.25175,0.008 -0.44352,0.007 -0.42616,-8.4e-4 z"
       id="path3464"
       inkscape:connector-curvature="0"
       transform="translate(0,379.13403)" />
    <path
       style="fill:#000000;fill-opacity:1"
       d="m 488.92035,578.98406 -1.15063,-0.008 0.17205,-0.0428 c 10.45248,-2.59799 17.33256,-4.23467 21.51941,-5.11918 0.26477,-0.0559 0.49383,-0.10464 0.50902,-0.10822 0.0257,-0.006 0.0276,0.0178 0.0276,0.33541 l 0,0.34192 -0.3354,0.0676 c -3.36238,0.67748 -11.0489,2.45723 -18.89696,4.37543 -0.76338,0.18658 -0.53106,0.16672 -1.84511,0.15771 z"
       id="path3466"
       inkscape:connector-curvature="0"
       transform="translate(0,379.13403)" />
    <path
       style="fill:#000000;fill-opacity:1"
       d="m 405.67097,603.15437 0,-0.41591 0.43405,-0.0729 c 8.79895,-1.4786 22.3259,-4.24168 32.99568,-6.73986 l 0.584,-0.13674 0.0234,0.22161 c 0.0129,0.12189 0.0174,0.22763 0.01,0.23498 -0.0527,0.0527 -6.33716,1.55881 -10.0449,2.40732 -8.63997,1.97724 -16.26605,3.55191 -22.55012,4.65627 -0.73788,0.12968 -1.36647,0.24149 -1.39685,0.24848 -0.0505,0.0116 -0.0552,-0.0233 -0.0552,-0.40321 z"
       id="path3468"
       inkscape:connector-curvature="0"
       transform="translate(0,379.13403)" />
    <path
       style="fill:#000000;fill-opacity:1"
       d="m 413.65976,596.95521 0,-0.17757 0.2407,-0.0448 c 0.13239,-0.0246 1.0504,-0.20001 2.04004,-0.38976 6.62756,-1.27071 11.72032,-2.20684 14.75769,-2.7127 1.85578,-0.30907 3.64184,-0.6607 5.35066,-1.05341 0.9772,-0.22457 1.306,-0.31107 3.06991,-0.80765 0.33422,-0.0941 0.60946,-0.16994 0.61164,-0.16856 0.002,0.001 -5.2e-4,0.0556 -0.006,0.12055 l -0.01,0.11804 -0.64112,0.14585 c -6.48019,1.4742 -14.02248,3.02399 -21.93324,4.50686 -1.2112,0.22704 -3.45117,0.6407 -3.46936,0.6407 -0.006,0 -0.0109,-0.0799 -0.0109,-0.17758 z"
       id="path3470"
       inkscape:connector-curvature="0"
       transform="translate(0,379.13403)" />
    <path
       style="fill:#000000;fill-opacity:1"
       d="m 355.91079,606.12983 0,-0.3413 2.24889,0.007 c 4.68981,0.0154 11.6833,-0.0551 16.32255,-0.16439 8.3415,-0.1966 13.93539,-0.51039 18.50446,-1.03802 1.60912,-0.18582 5.04788,-0.63568 5.38504,-0.70447 l 0.0614,-0.0125 0,0.39044 0,0.39044 -0.0837,0.0134 c -0.046,0.007 -0.41015,0.0532 -0.80915,0.1019 -7.08788,0.86509 -14.21414,1.26656 -26.55134,1.49583 -3.75194,0.0697 -9.53801,0.14625 -12.64509,0.16723 -0.96373,0.007 -1.90541,0.0172 -2.09263,0.0236 l -0.3404,0.0118 -10e-6,-0.34131 z"
       id="path3472"
       inkscape:connector-curvature="0"
       transform="translate(0,379.13403)" />
    <path
       style="fill:#000000;fill-opacity:1"
       d="m 339.41457,606.48109 c -1.21534,-0.0133 -2.6039,-0.0351 -3.0857,-0.0483 l -0.87599,-0.024 0,-0.48541 c 0,-0.48237 4.5e-4,-0.48542 0.071,-0.48537 0.0391,3e-5 0.50428,0.014 1.03382,0.0311 4.47727,0.14439 14.31644,0.31492 18.22221,0.31582 l 1.12853,2.6e-4 0,0.32651 0,0.3265 -0.74972,0.0205 c -1.17686,0.0321 -13.28923,0.0494 -15.74418,0.0224 z"
       id="path3474"
       inkscape:connector-curvature="0"
       transform="translate(0,379.13403)" />
    <path
       style="fill:#000000;fill-opacity:1"
       d="m 306.27827,604.01096 c -0.0955,-0.008 -0.69921,-0.0528 -1.34161,-0.10071 -6.82359,-0.50838 -14.60529,-1.19251 -22.176,-1.94962 -2.04301,-0.2043 -6.25408,-0.64083 -6.3174,-0.65487 -0.0354,-0.008 -0.0355,-0.009 -0.0355,-0.32464 l 0,-0.31676 0.0592,0.009 c 0.0561,0.009 0.67413,0.0812 1.76382,0.20617 0.26912,0.0309 0.61004,0.0701 0.75762,0.0871 4.3295,0.50034 10.80939,1.16461 16.70697,1.71268 2.94976,0.27412 10.60763,0.95468 10.74239,0.95468 l 0.0378,0 0,0.1973 c 0,0.10851 -0.005,0.1963 -0.0118,0.19509 -0.007,-0.001 -0.09,-0.008 -0.18546,-0.0159 z"
       id="path3476"
       inkscape:connector-curvature="0"
       transform="translate(0,379.13403)" />
    <path
       style="fill:#000000;fill-opacity:1"
       d="m 305.39439,598.99088 c -8.4444,-0.70976 -18.00118,-1.60061 -26.55597,-2.47546 -1.99581,-0.2041 -2.27416,-0.23294 -2.36359,-0.24489 l -0.0671,-0.009 0,-0.19485 c 0,-0.17747 0.002,-0.19428 0.0276,-0.1885 0.0289,0.007 2.60266,0.28922 4.72325,0.51858 5.43965,0.58834 11.73355,1.22953 16.2019,1.65056 0.37328,0.0352 0.94149,0.0888 1.26269,0.11911 1.92969,0.18228 5.53961,0.50342 7.20146,0.64064 0.34083,0.0281 0.62706,0.0557 0.63607,0.0613 0.009,0.006 0.0144,0.0532 0.0117,0.11141 l -0.005,0.10128 -1.07328,-0.0902 z"
       id="path3478"
       inkscape:connector-curvature="0"
       transform="translate(0,379.13403)" />
    <path
       style="fill:#000000;fill-opacity:1"
       d="m 324.53053,605.33072 c -2.94564,-0.24829 -8.45922,-0.65121 -14.6551,-1.07097 -0.82904,-0.0562 -1.9335,-0.13219 -2.45436,-0.16895 l -0.94701,-0.0668 0.005,-0.19293 0.005,-0.19293 0.0504,0.007 c 0.0578,0.008 0.26808,0.0257 2.93092,0.2512 6.78443,0.57455 7.7463,0.65109 10.21202,0.81264 1.57938,0.10348 5.03219,0.30037 5.26741,0.30037 l 0.0675,0 0,0.18151 c 0,0.13577 -0.005,0.181 -0.0197,0.17948 -0.0109,-0.001 -0.2186,-0.0188 -0.46167,-0.0393 z"
       id="path3480"
       inkscape:connector-curvature="0"
       transform="translate(0,379.13403)" />
    <path
       style="fill:#000000;fill-opacity:1"
       d="m 320.06284,600.15232 c -0.47879,-0.0357 -1.18192,-0.088 -1.5625,-0.11637 -3.35354,-0.24965 -6.92748,-0.53013 -10.3125,-0.80931 -0.44196,-0.0364 -0.99191,-0.0817 -1.2221,-0.10046 -0.23019,-0.0188 -0.43451,-0.0367 -0.45406,-0.0398 l -0.0355,-0.006 -0.004,-0.11126 c -0.002,-0.0612 -0.001,-0.1112 0.002,-0.11111 0.003,9e-5 0.091,0.008 0.19532,0.017 0.49222,0.0436 2.72804,0.21884 3.8337,0.3004 0.66814,0.0493 2.65346,0.1904 3.77232,0.26814 0.30999,0.0215 0.81725,0.0568 1.12723,0.0784 1.19105,0.083 3.52524,0.24064 4.62612,0.31246 0.52176,0.034 0.96498,0.0645 0.98493,0.0677 l 0.0363,0.006 0,0.15574 0,0.15575 -0.0586,-0.001 c -0.0322,-7.3e-4 -0.45033,-0.0305 -0.92913,-0.0662 z"
       id="path3482"
       inkscape:connector-curvature="0"
       transform="translate(0,379.13403)" />
    <path
       style="fill:#000000;fill-opacity:1"
       d="m 273.21936,600.95089 c -8.01998,-0.90514 -13.36233,-1.58232 -17.9302,-2.27278 -2.18199,-0.32981 -3.51888,-0.56095 -5.46114,-0.94419 -4.60698,-0.90902 -16.76967,-2.89773 -25.77468,-4.21438 -2.49456,-0.36474 -4.12054,-0.62461 -6.85009,-1.0948 -1.05908,-0.18243 -2.02149,-0.34714 -2.13868,-0.36601 l -0.21308,-0.0343 0,-0.29489 c 0,-0.28971 0.001,-0.29459 0.071,-0.27815 0.0708,0.0167 3.54967,0.5925 7.93128,1.31277 23.96842,3.94008 37.93055,6.01783 51.55724,7.6724 l 0.5761,0.07 0,0.31024 0,0.31025 -0.13416,-0.003 c -0.0738,-0.002 -0.80891,-0.0796 -1.63361,-0.17267 z"
       id="path3484"
       inkscape:connector-curvature="0"
       transform="translate(0,379.13403)" />
    <path
       style="fill:#000000;fill-opacity:1"
       d="m 273.2825,595.93085 c -10.17701,-1.10742 -16.68975,-1.89022 -22.42855,-2.6958 -4.00286,-0.5619 -6.53516,-0.98274 -8.91529,-1.48163 -4.80357,-1.00685 -13.28748,-2.42555 -26.23041,-4.38632 -0.45765,-0.0693 -0.83848,-0.13244 -0.84629,-0.14026 -0.008,-0.008 -0.01,-0.077 -0.004,-0.15373 l 0.01,-0.13952 0.75761,0.11993 c 6.77817,1.07301 12.13502,1.85312 16.00461,2.33075 3.11929,0.38502 5.73373,0.7958 7.34928,1.15471 0.64483,0.14326 0.98694,0.24336 1.29564,0.37908 0.84337,0.37082 4.01056,0.92819 10.10604,1.77852 5.51839,0.76981 14.06624,1.83029 22.01816,2.73163 1.31084,0.14858 2.4295,0.27769 2.48593,0.28691 0.10238,0.0167 0.10259,0.0171 0.10259,0.20473 0,0.17491 -0.005,0.18773 -0.071,0.1845 -0.0391,-0.002 -0.77418,-0.08 -1.6336,-0.1735 z"
       id="path3486"
       inkscape:connector-curvature="0"
       transform="translate(0,379.13403)" />
    <path
       style="fill:#000000;fill-opacity:1"
       d="m 214.51363,591.97124 c -0.18013,-0.0322 -0.60806,-0.10838 -0.95096,-0.16925 -2.44717,-0.4344 -4.80796,-0.86601 -7.45777,-1.36346 -0.59899,-0.11244 -1.51254,-0.28392 -2.03012,-0.38105 l -0.94105,-0.1766 -5e-5,-0.20321 c -2e-5,-0.11177 0.003,-0.20318 0.006,-0.20314 0.003,5e-5 1.25599,0.20961 2.78384,0.4657 1.52786,0.25609 4.16471,0.69665 5.85968,0.97902 1.69496,0.28236 3.08673,0.51504 3.09283,0.51705 0.009,0.003 0.008,0.006 -0.003,0.0138 -0.0211,0.0155 -0.0288,0.12301 -0.0262,0.36831 0.001,0.11714 4.4e-4,0.21262 -0.002,0.21218 -0.002,-4.4e-4 -0.15132,-0.0272 -0.33146,-0.0594 z"
       id="path3488"
       inkscape:connector-curvature="0"
       transform="translate(0,379.13403)" />
    <path
       style="fill:#000000;fill-opacity:1"
       d="m 214.78196,587.24041 c -2.75771,-0.41802 -7.94315,-1.18182 -11.36619,-1.67421 l -0.28214,-0.0406 0,-0.26182 0,-0.26182 0.0178,0.003 c 0.01,0.002 0.30541,0.0492 0.657,0.1057 1.04696,0.16821 1.62289,0.26304 3.28694,0.54124 2.62988,0.43966 4.26546,0.70864 6.27794,1.03243 0.44707,0.0719 0.97621,0.15706 1.17588,0.18918 0.19966,0.0321 0.35202,0.0587 0.33856,0.0591 l -0.0245,6.9e-4 -0.005,0.0769 c -0.003,0.0423 -0.005,0.10811 -0.005,0.1462 0,0.0651 0.001,0.0697 0.0182,0.0762 0.01,0.004 0.13876,0.0266 0.28608,0.0506 0.37711,0.0615 0.40545,0.0665 0.37439,0.0666 -0.0152,3e-5 -0.35257,-0.0492 -0.74972,-0.10941 l 0,0 z"
       id="path3490"
       inkscape:connector-curvature="0"
       transform="translate(0,379.13403)" />
    <path
       style="fill:#000000;fill-opacity:1"
       d="m 201.17351,585.24281 c -4.19956,-0.60569 -9.95787,-1.40993 -14.84451,-2.07329 -1.68202,-0.22833 -4.10286,-0.55331 -4.12173,-0.55331 -0.007,0 -0.0136,-0.15625 -0.0136,-0.34724 0,-0.30909 0.003,-0.34724 0.0255,-0.34724 0.0554,0 3.47532,0.47751 5.83024,0.81405 5.12294,0.73212 10.2583,1.50248 14.29803,2.14485 0.41127,0.0654 0.75398,0.11891 0.76156,0.11891 0.008,0 0.0138,0.1172 0.0138,0.26043 0,0.23835 -0.002,0.26024 -0.0276,0.25822 -0.0152,-0.001 -0.87993,-0.12513 -1.92165,-0.27538 z"
       id="path3492"
       inkscape:connector-curvature="0"
       transform="translate(0,379.13403)" />
    <path
       style="fill:#000000;fill-opacity:1"
       d="m 201.73382,589.61541 c -5.66635,-1.06984 -9.22325,-1.69323 -14.59196,-2.55743 -1.10215,-0.17741 -4.38202,-0.69921 -4.71536,-0.75017 l -0.23281,-0.0356 0,-0.16409 0,-0.16408 0.0434,0.009 c 0.11085,0.0223 16.82231,2.84068 20.16312,3.4005 0.3969,0.0665 0.72185,0.12625 0.7221,0.13276 0.005,0.12857 -0.003,0.3902 -0.0114,0.3889 -0.007,-9.7e-4 -0.62622,-0.11775 -1.37713,-0.25953 z"
       id="path3494"
       inkscape:connector-curvature="0"
       transform="translate(0,379.13403)" />
    <path
       style="fill:#000000;fill-opacity:1"
       d="m 182.07645,582.59784 c -0.074,-0.0184 -5.96928,-0.78796 -8.68099,-1.13317 l -1.50734,-0.19189 -0.004,-0.35097 -0.004,-0.35097 0.0595,0.009 c 0.0327,0.005 0.74257,0.0936 1.57743,0.19725 2.54163,0.31561 5.41012,0.69106 8.19473,1.07258 0.2549,0.0349 0.46798,0.0635 0.47351,0.0635 0.006,0 0.0101,0.15625 0.0101,0.34723 l 0,0.34724 -0.0473,-0.002 c -0.026,-0.001 -0.058,-0.004 -0.071,-0.008 z"
       id="path3496"
       inkscape:connector-curvature="0"
       transform="translate(0,379.13403)" />
    <path
       style="fill:#000000;fill-opacity:1"
       d="m 179.4248,585.83619 c -1.49747,-0.23654 -3.80757,-0.59989 -5.13356,-0.80744 l -2.41088,-0.37737 -7e-5,-0.23281 c -5e-5,-0.18106 0.005,-0.23281 0.0205,-0.23281 0.0113,0 0.28301,0.0458 0.60372,0.10184 1.63243,0.2851 5.5677,0.95946 8.30526,1.42321 l 1.37712,0.23329 0,0.16255 c 0,0.1203 -0.005,0.16217 -0.0197,0.16108 -0.0109,-8.2e-4 -1.24493,-0.19501 -2.74241,-0.43154 z"
       id="path3498"
       inkscape:connector-curvature="0"
       transform="translate(0,379.13403)" />
    <path
       style="fill:#000000;fill-opacity:1"
       d="m 170.89054,584.49199 c -0.41668,-0.0671 -1.34713,-0.21549 -2.06765,-0.32964 -12.85905,-2.03729 -21.2707,-3.785 -23.27491,-4.83591 -0.29003,-0.15208 -0.40785,-0.26488 -0.39485,-0.37804 0.0188,-0.16395 0.35324,-0.27581 1.08338,-0.36238 0.4632,-0.0549 3.59611,-0.0549 4.67195,4e-5 4.56421,0.23304 10.06374,0.73026 17.37778,1.57113 2.02663,0.233 3.5383,0.41599 3.55232,0.43002 0.005,0.005 0.0196,0.15961 0.0318,0.34306 l 0.0223,0.33355 -0.70629,-0.0879 c -9.21876,-1.14663 -14.67435,-1.73563 -18.36818,-1.98305 -1.67587,-0.11226 -2.00994,-0.12788 -3.15672,-0.14759 -1.40088,-0.0241 -1.83091,0.0191 -1.83091,0.18375 0,0.51368 7.59252,2.08472 23.47017,4.85642 0.31246,0.0545 0.56955,0.10159 0.5713,0.10454 0.002,0.003 -0.003,0.10124 -0.0115,0.21844 l -0.0147,0.21307 -0.0989,-0.004 c -0.0544,-0.002 -0.43984,-0.0587 -0.85653,-0.12583 z"
       id="path3500"
       inkscape:connector-curvature="0"
       transform="translate(0,379.13403)" />
  </g>
</svg>
