<?xml version="1.0" encoding="UTF-8" standalone="no"?>
<!-- Created with Inkscape (http://www.inkscape.org/) -->

<svg
   xmlns:dc="http://purl.org/dc/elements/1.1/"
   xmlns:cc="http://creativecommons.org/ns#"
   xmlns:rdf="http://www.w3.org/1999/02/22-rdf-syntax-ns#"
   xmlns:svg="http://www.w3.org/2000/svg"
   xmlns="http://www.w3.org/2000/svg"
   xmlns:sodipodi="http://sodipodi.sourceforge.net/DTD/sodipodi-0.dtd"
   xmlns:inkscape="http://www.inkscape.org/namespaces/inkscape"
   width="80mm"
   height="20mm"
   viewBox="0 0 283.46457 70.866141"
   id="svg3621"
   version="1.1"
   inkscape:version="0.91 r13725"
   sodipodi:docname="leftshoe.svg">
  <defs
     id="defs3623" />
  <sodipodi:namedview
     id="base"
     pagecolor="#ffffff"
     bordercolor="#666666"
     borderopacity="1.0"
     inkscape:pageopacity="0.0"
     inkscape:pageshadow="2"
     inkscape:zoom="11.2"
     inkscape:cx="79.815177"
     inkscape:cy="28.36483"
     inkscape:document-units="px"
     inkscape:current-layer="layer1"
     showgrid="false"
     inkscape:window-width="1366"
     inkscape:window-height="744"
     inkscape:window-x="0"
     inkscape:window-y="24"
     inkscape:window-maximized="1" />
  <metadata
     id="metadata3626">
    <rdf:RDF>
      <cc:Work
         rdf:about="">
        <dc:format>image/svg+xml</dc:format>
        <dc:type
           rdf:resource="http://purl.org/dc/dcmitype/StillImage" />
        <dc:title></dc:title>
      </cc:Work>
    </rdf:RDF>
  </metadata>
  <g
     inkscape:label="Capa 1"
     inkscape:groupmode="layer"
     id="layer1"
     transform="translate(0,-981.49606)">
    <path
       style="fill:none;fill-rule:evenodd;stroke:#000000;stroke-width:1px;stroke-linecap:butt;stroke-linejoin:miter;stroke-opacity:1"
       d="m 24.060939,1034.7843 24.31389,-9.1177 1.08544,-10.2032 40.37843,-6.0784 86.835341,-7.8152 59.26511,-3.25634 26.91896,-0.43418 1.95379,2.60502 -7.381,8.6836 -7.81518,15.6303 9.3348,2.8222 8.68353,3.0392 9.55189,4.3418 1.08544,3.2563 -23.01137,-0.6512 -47.32525,-2.388 -37.3392,-1.3025 -38.85881,0.217 -34.734131,1.3026 -32.56325,2.605 -19.53795,-1.0854 z"
       id="path3607"
       inkscape:connector-curvature="0" />
    <path
       style="fill:#784421"
       d="m 65.066279,1037.2859 c 0,-0.1144 -1.8717,-0.1924 -4.40697,-0.1836 -2.42384,0.01 -4.84166,-0.041 -5.37294,-0.1104 -0.53128,-0.069 -2.9686,-0.2289 -5.41627,-0.3552 -2.44767,-0.1263 -7.28331,-0.5187 -10.74587,-0.872 -3.46256,-0.3533 -7.39457,-0.754 -8.73781,-0.8904 -1.34323,-0.1364 -2.44224,-0.3291 -2.44224,-0.4282 0,-0.3918 1.29411,-0.9544 7.95019,-3.4567 4.5779,-1.721 7.43473,-2.6763 8.43998,-2.8223 1.99885,-0.2903 3.70235,-0.7923 4.78829,-1.411 0.48438,-0.276 2.04742,-0.7519 3.47341,-1.0576 1.426,-0.3056 3.12688,-0.7033 3.77974,-0.8837 0.65286,-0.1804 1.45376,-0.328 1.77977,-0.328 0.32601,0 1.35489,-0.2353 2.28639,-0.523 0.9315,-0.2876 2.47516,-0.6848 3.43035,-0.8827 0.95519,-0.1978 2.61591,-0.5892 3.6905,-0.8697 1.07459,-0.2804 2.44224,-0.5722 3.03924,-0.6483 0.59699,-0.076 1.52504,-0.2781 2.06234,-0.4488 1.2574,-0.3996 4.03287,-0.9527 5.96993,-1.1897 2.86046,-0.35 10.63697,-1.5178 10.96296,-1.6463 0.46399,-0.1829 8.04161,-1.1702 12.374031,-1.6123 1.25369,-0.128 3.0121,-0.3687 3.90759,-0.5351 0.89549,-0.1664 3.24004,-0.3662 5.21012,-0.444 1.97008,-0.078 3.92387,-0.2337 4.34177,-0.3463 1.20703,-0.3254 7.48449,-0.839 12.91675,-1.0568 2.74617,-0.1101 7.2399,-0.3076 9.98607,-0.4389 6.66381,-0.3185 20.8293,-0.3131 26.48477,0.01 2.50737,0.1433 6.65919,0.2976 9.22626,0.3429 2.56707,0.045 6.13274,0.2254 7.92372,0.4001 1.79098,0.1748 4.33092,0.3733 5.6443,0.4412 1.31338,0.068 3.16949,0.2155 4.12468,0.3279 0.95519,0.1124 2.90898,0.3073 4.34177,0.4331 3.53288,0.3102 7.03865,0.7924 10.42024,1.4331 3.70826,0.7026 6.91906,1.1752 7.98474,1.1752 0.47226,0 1.65305,0.144 2.62397,0.3201 3.22762,0.5853 6.36696,0.9824 7.76626,0.9824 0.76061,0 1.72207,0.097 2.13657,0.2162 0.4145,0.1188 1.34191,0.2714 2.06091,0.3389 0.71899,0.067 1.94225,0.3018 2.71834,0.5205 0.77609,0.2188 1.91954,0.4598 2.54101,0.5356 0.62146,0.076 1.53738,0.2816 2.03536,0.4573 1.10564,0.3901 4.69159,0.4494 3.99862,0.066 -0.2388,-0.132 -0.66139,-0.4461 -0.9391,-0.6979 -0.36312,-0.3293 -0.91182,-0.4939 -1.9538,-0.5863 -1.37853,-0.1221 -3.26884,-0.5824 -7.44363,-1.8124 -1.02854,-0.3031 -2.49389,-0.6412 -3.25632,-0.7513 -0.76244,-0.1101 -1.82585,-0.3472 -2.36315,-0.5268 -1.05793,-0.3537 -4.06332,-0.9376 -5.66208,-1.1001 -0.54708,-0.056 -1.57282,-0.2038 -2.27943,-0.3293 -1.48181,-0.2632 -6.79986,-1.0234 -8.5572,-1.2233 -0.65669,-0.075 -1.92666,-0.3197 -2.82215,-0.5446 -1.63161,-0.4096 -7.88308,-1.2969 -12.15695,-1.7253 -1.25368,-0.1257 -3.0121,-0.326 -3.90759,-0.445 -0.89549,-0.1191 -3.04466,-0.313 -4.77594,-0.431 -1.73128,-0.118 -4.22237,-0.3151 -5.53575,-0.438 -1.31339,-0.123 -3.55597,-0.2227 -4.98352,-0.2216 -1.42755,10e-4 -3.24333,-0.1332 -4.03507,-0.2983 -1.02154,-0.213 -2.31653,-0.2657 -4.45983,-0.1817 -1.82479,0.072 -4.05144,0.01 -5.62536,-0.1595 -1.43278,-0.1529 -2.94697,-0.2701 -3.36486,-0.2605 -0.4179,0.01 -4.71625,0.03 -9.55189,0.045 -4.83564,0.015 -10.11089,0.1277 -11.72277,0.2508 -1.61188,0.123 -5.12871,0.2622 -7.81518,0.3092 -2.68647,0.047 -5.37294,0.1801 -5.96993,0.2957 -1.77636,0.3439 -6.61742,0.7209 -7.35115,0.5725 -0.37461,-0.076 -1.95109,0.058 -3.50327,0.2978 -3.41861,0.5276 -6.43454,0.8818 -9.3348,1.0963 -1.193981,0.088 -2.463951,0.2634 -2.822141,0.3891 -0.3582,0.1256 -1.87239,0.28 -3.36487,0.343 -1.85728,0.078 -3.09039,0.2456 -3.90759,0.5297 -0.6567,0.2283 -1.87782,0.4855 -2.71361,0.5716 -0.83579,0.086 -1.91038,0.2409 -2.38797,0.344 -0.47759,0.103 -1.99179,0.2853 -3.36487,0.405 -1.37308,0.1198 -2.93612,0.3765 -3.47341,0.5706 -0.5373,0.1941 -1.90495,0.3997 -3.03924,0.457 -1.13429,0.057 -2.35541,0.2408 -2.7136,0.4079 -0.57436,0.268 -3.00545,0.8533 -5.96993,1.4372 -0.5373,0.1058 -1.4165,0.3336 -1.9538,0.5061 -0.53729,0.1725 -2.14917,0.5705 -3.58196,0.8844 -5.1312,1.1243 -9.04784,2.1835 -11.21816,3.0337 -0.24808,0.097 -0.47843,-0.033 -0.72443,-0.408 -0.32617,-0.4978 -0.3347,-0.8225 -0.0892,-3.3932 0.20846,-2.183 0.35141,-2.8841 0.61589,-3.0207 0.56198,-0.2903 3.90601,-0.7062 4.19895,-0.5222 0.14858,0.093 1.92792,0.1382 3.9541,0.1 l 3.68397,-0.07 0.64474,-0.6304 0.64474,-0.6303 -0.74675,-0.025 c -0.41071,-0.014 0.13246,-0.1636 1.20705,-0.3333 1.44724,-0.2286 2.18978,-0.2503 2.86401,-0.084 1.15707,0.2857 2.12654,0.2833 3.17493,-0.01 0.66013,-0.1833 0.77931,-0.2898 0.58556,-0.5232 -0.37333,-0.4499 0.43463,-0.6203 2.92738,-0.6177 1.40323,10e-4 1.82544,-0.043 1.19399,-0.1269 -0.94931,-0.1256 -0.92529,-0.1369 0.85043,-0.3997 1.00503,-0.1488 1.87285,-0.2249 1.9285,-0.1693 0.0557,0.056 -0.30262,0.1658 -0.79615,0.2447 -1.5182,0.2427 -1.03202,0.5764 0.71162,0.4884 1.09308,-0.055 1.73693,-0.1956 2.00807,-0.4379 0.30646,-0.2738 0.82856,-0.354 2.24922,-0.3455 1.30953,0.01 2.05169,-0.093 2.54,-0.3457 0.42282,-0.2186 1.21935,-0.358 2.05748,-0.3601 1.49624,-0 3.98114,-0.6053 2.61584,-0.6334 -0.38804,-0.01 -0.70553,-0.1044 -0.70553,-0.2143 0,-0.2569 2.63682,-0.5428 3.46943,-0.3763 0.84263,0.1685 5.64828,-0.095 5.64828,-0.3096 0,-0.092 -0.17096,-0.205 -0.37991,-0.2504 -0.20894,-0.045 1.18313,-0.2095 3.09351,-0.3648 1.910381,-0.1553 3.619951,-0.2522 3.799051,-0.2153 0.1791,0.037 0.96061,-0.048 1.7367,-0.1896 0.7761,-0.1411 4.29293,-0.5004 7.81518,-0.7984 3.52226,-0.2981 7.38101,-0.6409 8.57499,-0.7619 10.28646,-1.0427 56.41845,-5.0558 61.11037,-5.316 17.33567,-0.9618 34.26151,-1.88278 39.94425,-2.1736 3.52226,-0.18026 6.88171,-0.38292 7.46544,-0.45036 2.45249,-0.28333 15.85317,-0.50086 16.29482,-0.2645 0.29309,0.15686 3.1282,0.25433 8.34125,0.28678 6.36455,0.0396 7.93523,0.10628 8.09296,0.34351 0.2868,0.43131 0.034,1.47417 -0.58364,2.40747 -0.2976,0.4497 -0.47889,0.8176 -0.40287,0.8176 0.076,0 0.0174,0.1454 -0.13008,0.3232 -0.14753,0.1778 -0.34419,0.2763 -0.437,0.219 -0.15001,-0.093 -1.01454,1.0004 -0.90432,1.1434 0.0244,0.032 -0.81517,1.0588 -1.86566,2.2825 -1.05049,1.2237 -2.04041,2.5398 -2.19982,2.9247 -0.15943,0.3849 -0.37639,0.6463 -0.48215,0.5809 -0.23253,-0.1437 -0.68008,0.9462 -0.50493,1.2296 0.0681,0.1102 -0.033,0.2606 -0.22477,0.3342 -0.19176,0.074 -0.54088,0.488 -0.77586,0.9211 -0.5021,0.9253 -0.81499,1.4527 -1.30928,2.2069 -0.19874,0.3032 -0.4302,0.8649 -0.51441,1.2483 -0.0842,0.3833 -0.2289,0.6969 -0.32157,0.6969 -0.0927,0 -0.53272,0.7571 -0.97786,1.6825 -0.44513,0.9253 -0.89954,1.8289 -1.0098,2.008 -0.11026,0.1791 -0.32188,0.5686 -0.47026,0.8654 -0.14838,0.2969 -0.44314,0.7145 -0.65502,0.928 -0.28905,0.2913 -0.37532,0.692 -0.3455,1.6047 0.0532,1.6293 0.54433,2.1917 2.14182,2.4529 0.65669,0.1073 1.5359,0.34 1.95379,0.517 0.4179,0.177 1.36464,0.363 2.10387,0.4132 0.73923,0.05 1.4719,0.1922 1.62816,0.3155 0.88442,0.6979 2.68717,1.3606 3.98512,1.4651 0.8479,0.068 1.55754,0.2477 1.75331,0.4435 0.32012,0.3201 0.5755,0.403 1.92668,0.6251 0.3582,0.059 0.94434,0.2276 1.30253,0.375 0.3582,0.1473 0.72453,0.2521 0.81408,0.2328 0.0896,-0.019 0.16282,0.063 0.16282,0.1821 0,0.1194 0.24422,0.2171 0.54272,0.2171 0.2985,0 0.54272,0.081 0.54272,0.1809 0,0.099 0.12211,0.1847 0.27136,0.1893 0.4164,0.013 8.03817,3.5272 8.4448,3.8938 0.47349,0.4268 0.63538,1.0979 0.32487,1.3467 -0.26686,0.2138 -3.55536,0.5148 -6.21888,0.5693 -3.86322,0.079 -16.82304,-0.4028 -32.02053,-1.1903 -2.26857,-0.1176 -9.05801,-0.4565 -15.08764,-0.7532 -6.02963,-0.2967 -11.59794,-0.6023 -12.37404,-0.6791 -1.44366,-0.1427 -2.86602,-0.1975 -10.11674,-0.3896 -2.28074,-0.06 -9.80285,-0.3053 -16.7158,-0.5442 -12.32912,-0.4261 -22.4564,-0.5121 -43.28699,-0.3678 -5.43263,0.038 -11.19633,0.1365 -12.80821,0.2196 -1.61188,0.083 -4.54257,0.1915 -6.51265,0.2407 -1.97008,0.049 -4.60722,0.1508 -5.86031,0.2257 -2.53713,0.1517 -8.71547,0.2943 -14.00327,0.3232 -2.086461,0.011 -3.213361,0.086 -2.822151,0.1865 0.44331,0.1141 -0.021,0.1727 -1.45415,0.1835 -1.15797,0.01 -2.19203,0.07 -2.2979,0.135 -0.10588,0.065 -3.50564,0.1813 -7.55502,0.2575 -6.42876,0.121 -7.47093,0.188 -8.21729,0.5283 -0.67871,0.3094 -0.76814,0.4098 -0.43417,0.4872 0.23132,0.054 -0.019,0.1031 -0.55632,0.1099 -1.02872,0.013 -11.54413,0.8527 -12.75394,1.0186 -0.38804,0.053 -0.70554,0.01 -0.70554,-0.1021 z m -11.15194,-20.7213 c 0.85083,-0.5575 0.36262,-0.8035 -1.03683,-0.5224 -1.08098,0.2171 -1.19223,0.2908 -1.10758,0.7336 0.084,0.4397 0.17369,0.4744 0.83875,0.3244 0.40955,-0.092 0.9971,-0.3334 1.30566,-0.5356 z m 167.906001,-12.5438 c -0.0268,-0.2596 -0.32461,-0.2093 -0.41789,0.071 -0.0478,0.1433 0.0304,0.2214 0.17367,0.1737 0.14328,-0.048 0.25318,-0.1577 0.24422,-0.2442 z m -17.00796,-2.6765 c -0.0721,-0.072 -0.25938,-0.08 -0.41609,-0.017 -0.17318,0.069 -0.12174,0.1207 0.13116,0.1311 0.22885,0.01 0.35706,-0.042 0.28493,-0.114 z m 12.17305,-0.9226 c -0.31555,-0.1204 -0.41562,0.087 -0.25009,0.5183 0.14406,0.3755 0.15909,0.3743 0.30162,-0.023 0.0825,-0.23 0.0593,-0.4529 -0.0515,-0.4951 z"
       id="path3609"
       inkscape:connector-curvature="0" />
    <path
       style="fill:#000000;fill-opacity:1"
       d="m 47.266893,45.353768 c 1.833825,-0.722974 1.858451,-0.752907 1.964286,-2.387552 0.07384,-1.140465 0.253499,-1.62514 0.577568,-1.558125 0.258715,0.0535 1.544429,-0.222196 2.857143,-0.612658 4.270383,-1.270212 20.521548,-5.117473 23.636753,-5.595708 1.669643,-0.256317 5.431411,-0.80028 8.359489,-1.208807 2.928075,-0.408527 5.46255,-0.828544 5.632165,-0.933372 0.312739,-0.193285 6.108803,-0.923635 12.615493,-1.589653 1.96428,-0.201062 4.53571,-0.510583 5.71428,-0.687826 1.17857,-0.177242 3.91072,-0.415829 6.07143,-0.530193 2.16071,-0.114365 5.29464,-0.362934 6.96429,-0.552377 3.30557,-0.37506 34.89143,-1.174502 35.34437,-0.894571 0.15292,0.09451 4.4371,0.335115 9.5204,0.534672 14.82434,0.581967 27.73214,1.737046 36.5638,3.271979 2.25893,0.3926 7.29299,1.182924 11.1868,1.756275 3.89381,0.573352 9.51881,1.627515 12.5,2.342586 2.98119,0.715071 7.01239,1.674468 8.95822,2.131994 3.70166,0.870373 5.14191,1.577529 3.21292,1.577529 -0.58884,0 -2.91116,-0.384399 -5.16071,-0.85422 -2.24955,-0.46982 -5.45616,-1.026055 -7.1258,-1.236077 -1.66965,-0.210022 -5.125,-0.64338 -7.67858,-0.963017 -2.55357,-0.319638 -7.53571,-1.039939 -11.07142,-1.60067 -18.2773,-2.898605 -46.69356,-4.397597 -68.21429,-3.598386 -12.77563,0.474446 -20.72921,0.965093 -23.92857,1.476125 -1.17857,0.188253 -3.02679,0.348905 -4.10714,0.357006 -2.27939,0.01709 -17.604343,1.941931 -28.21429,3.543761 -7.385164,1.11497 -11.39256,1.919897 -20.535714,4.12481 -2.75,0.663175 -6.607143,1.556122 -8.571429,1.984326 -1.964286,0.428205 -4.490693,1.161521 -5.614238,1.629591 -1.123546,0.46807 -2.328903,0.840613 -2.678572,0.827874 -0.349669,-0.01274 0.199937,-0.352633 1.221346,-0.755316 z"
       id="path3430"
       inkscape:connector-curvature="0"
       transform="translate(0,981.49606)" />
    <path
       style="fill:#000000;fill-opacity:1"
       d="m 262.11014,21.213013 c 0,-0.02665 0.18358,-0.35706 0.40796,-0.734251 0.47973,-0.806467 0.68529,-1.372775 0.69203,-1.906584 0.006,-0.445201 -0.0658,-0.563303 -0.39656,-0.655941 -0.40361,-0.113034 -2.92491,-0.188485 -8.53211,-0.255325 -5.39187,-0.06427 -7.10519,-0.122739 -7.60471,-0.259504 -0.1502,-0.04112 -1.19247,-0.08625 -2.52838,-0.109476 -2.03179,-0.03532 -1.28183,-0.05471 7.07106,-0.182788 5.13916,-0.0788 9.79848,-0.159787 10.35407,-0.179969 l 1.01015,-0.0367 0.75762,1.018947 c 0.41668,0.56042 0.75637,1.037019 0.75484,1.059109 -0.004,0.06348 -1.88586,2.283475 -1.93862,2.287401 -0.026,0.0019 -0.0473,-0.01828 -0.0473,-0.04492 z"
       id="path3432"
       inkscape:connector-curvature="0"
       transform="translate(0,981.49606)" />
    <path
       style="fill:#000000;fill-opacity:1"
       d="m 249.00898,42.704787 c -0.0566,-0.598082 0.002,-1.25105 0.13531,-1.508858 0.0538,-0.104031 0.21882,-0.337714 0.36672,-0.519295 0.32504,-0.399054 0.82872,-1.310221 1.89399,-3.426223 0.44136,-0.876711 0.88712,-1.678659 0.99057,-1.782109 0.13445,-0.134451 0.25584,-0.393476 0.42567,-0.908285 0.17634,-0.53458 0.35265,-0.905129 0.68408,-1.437752 0.24559,-0.394657 0.62722,-1.043073 0.84808,-1.440924 0.36984,-0.666213 1.00894,-1.468223 1.09857,-1.378595 0.0199,0.01988 -1.41111,2.930052 -3.17997,6.467053 l -3.21611,6.430913 -0.0469,-0.495925 z"
       id="path3434"
       inkscape:connector-curvature="0"
       transform="translate(0,981.49606)" />
    <path
       style="fill:#000000;fill-opacity:1"
       d="m 272.61114,56.071534 c -1.85773,-0.05861 -3.07939,-0.111226 -2.71478,-0.116917 2.7905,-0.04355 6.6741,-0.380595 6.98232,-0.605971 0.0578,-0.0423 0.12278,-0.183867 0.14431,-0.314605 0.0375,-0.227888 0.0487,-0.208771 0.27033,0.462883 l 0.23118,0.700588 -0.76783,-0.0097 c -0.42231,-0.0053 -2.28779,-0.05766 -4.14553,-0.116275 z"
       id="path3436"
       inkscape:connector-curvature="0"
       transform="translate(0,981.49606)" />
    <path
       style="fill:#000000;fill-opacity:1"
       d="m 261.31006,47.697525 c -0.29515,-0.04711 -0.79424,-0.127548 -1.10907,-0.178761 -1.03251,-0.167955 -2.46552,-0.72131 -3.23027,-1.24737 -0.35977,-0.247474 -0.57339,-0.297333 -1.95431,-0.456139 -1.0176,-0.117024 -1.23684,-0.164349 -2.19794,-0.474432 -0.41669,-0.134437 -1.12696,-0.318465 -1.57837,-0.40895 -1.01442,-0.203342 -1.55067,-0.450193 -1.82383,-0.839563 -0.1032,-0.147112 -0.17259,-0.282531 -0.15419,-0.300931 0.0598,-0.05976 9.56995,2.849254 11.22723,3.434225 0.88546,0.312543 1.55311,0.565854 1.48366,0.562913 -0.0694,-0.0029 -0.36776,-0.04389 -0.66291,-0.09099 z"
       id="path3438"
       inkscape:connector-curvature="0"
       transform="translate(0,981.49606)" />
    <path
       style="fill:#000000;fill-opacity:1"
       d="m 54.828566,34.039882 c -0.208344,-0.02861 -0.677118,-0.05766 -1.04172,-0.06456 -0.631193,-0.01193 -0.416712,-0.04993 4.482552,-0.794172 4.954418,-0.752617 6.099311,-0.905996 4.899426,-0.656369 -0.656666,0.136614 -0.837202,0.247563 -0.413717,0.254252 0.559621,0.0088 0.555959,0.039 -0.08176,0.673428 l -0.584307,0.581293 -3.440832,0.02907 c -1.892457,0.01599 -3.611295,0.0057 -3.819639,-0.02295 z"
       id="path3440"
       inkscape:connector-curvature="0"
       transform="translate(0,981.49606)" />
    <path
       style="fill:#000000;fill-opacity:1"
       d="m 75.899717,31.155755 c -0.07813,-0.01729 -0.142053,-0.05687 -0.142053,-0.08796 0,-0.09911 0.213236,-0.175798 0.788652,-0.283621 0.648069,-0.121437 0.852846,-0.189418 0.852846,-0.283125 0,-0.04466 -0.19456,-0.05641 -0.583994,-0.03527 -0.321197,0.01743 -0.541379,0.01892 -0.489293,0.0033 0.15225,-0.04564 11.868836,-1.798739 11.984889,-1.79325 0.05901,0.0028 0.02749,0.03338 -0.07164,0.06953 -0.11285,0.04115 -0.169821,0.102276 -0.157165,0.168635 0.0204,0.106969 0.200801,0.1622 0.776125,0.237617 l 0.315673,0.04138 -0.198449,0.0836 c -0.406929,0.171423 -1.516782,0.347149 -2.754804,0.436174 -1.332009,0.09578 -1.527681,0.130395 -2.174659,0.384661 -0.606185,0.238235 -0.939333,0.280624 -2.623678,0.333828 l -1.564405,0.04942 -0.4559,0.241055 c -0.250745,0.13258 -0.612158,0.281393 -0.80314,0.330696 -0.344841,0.08902 -2.406907,0.167965 -2.699001,0.103326 z"
       id="path3442"
       inkscape:connector-curvature="0"
       transform="translate(0,981.49606)" />
    <path
       style="fill:#000000;fill-opacity:1"
       d="m 91.383461,28.475301 c -0.208344,-0.029 -0.691323,-0.0405 -1.073287,-0.02555 -0.381964,0.01495 -0.651864,0.01429 -0.599778,-0.0015 0.137182,-0.04148 7.830042,-0.725964 8.052238,-0.716466 0.10275,0.0044 -0.01206,0.0325 -0.255123,0.06247 -0.243068,0.02997 -0.510556,0.07071 -0.594418,0.09053 -0.150084,0.03549 -0.149096,0.03811 0.06301,0.167097 0.206029,0.125294 0.20945,0.13328 0.07792,0.181936 -0.573278,0.212069 -4.638185,0.385144 -5.670567,0.24144 z"
       id="path3444"
       inkscape:connector-curvature="0"
       transform="translate(0,981.49606)" />
    <path
       style="fill:#000000;fill-opacity:1"
       d="m 67.550175,32.478889 c -0.08681,-0.01429 -0.4332,-0.08144 -0.769755,-0.149238 -0.740795,-0.149222 -1.190426,-0.154133 -2.193759,-0.02396 -0.420964,0.05462 -0.795308,0.08933 -0.831877,0.07714 -0.05519,-0.0184 6.059979,-0.95711 6.762714,-1.038114 0.190742,-0.02199 0.201347,-0.01682 0.07752,0.03778 -0.182667,0.08054 -0.244191,0.239624 -0.150617,0.389461 0.189239,0.303018 -0.0092,0.432229 -0.968621,0.630832 -0.524024,0.10847 -1.49562,0.146869 -1.925603,0.0761 z"
       id="path3446"
       inkscape:connector-curvature="0"
       transform="translate(0,981.49606)" />
    <path
       style="fill:#000000;fill-opacity:1"
       d="m 51.935743,35.586432 c -0.117041,-0.11704 -0.191975,-0.430913 -0.141126,-0.591124 0.05142,-0.162018 0.247817,-0.240174 0.976838,-0.388739 0.773622,-0.157654 1.444608,-0.170826 1.498869,-0.02942 0.08404,0.219012 -0.585323,0.660518 -1.367361,0.901897 -0.62658,0.193397 -0.855767,0.218843 -0.96722,0.107389 z"
       id="path3448"
       inkscape:connector-curvature="0"
       transform="translate(0,981.49606)" />
    <path
       style="fill:#000000;fill-opacity:1"
       d="m 79.125381,54.838891 c 0.07717,-0.01475 0.04788,-0.05494 -0.06866,-0.09422 -0.150838,-0.05084 -0.170266,-0.07774 -0.105747,-0.146417 0.06001,-0.06388 0.441623,-0.26457 0.692535,-0.364208 0.721103,-0.286353 1.868074,-0.355388 7.856704,-0.472887 4.468305,-0.08767 7.564242,-0.19399 7.801339,-0.267914 0.203922,-0.06358 0.942587,-0.104975 2.388393,-0.133847 1.105434,-0.02207 1.449509,-0.04512 1.505293,-0.100812 0.02788,-0.02784 0.0214,-0.03649 -0.04951,-0.06612 -0.04487,-0.01875 -0.09638,-0.03409 -0.114466,-0.03409 -0.01808,0 -0.03853,-0.0091 -0.04542,-0.02029 -0.05495,-0.08891 1.311821,-0.133499 5.037811,-0.164353 l 0.9096,-0.0075 0,0.08163 0,0.08163 -0.35157,0.01478 c -0.19336,0.0081 -0.75837,0.02992 -1.25558,0.04842 -0.49721,0.0185 -1.29073,0.0482 -1.76339,0.066 -0.47266,0.01781 -1.688057,0.06329 -2.700892,0.101087 l -1.841518,0.06872 -8.922106,0.713166 c -4.907159,0.392242 -8.945105,0.711799 -8.973215,0.710127 l -0.05111,-0.003 0.05151,-0.0098 z"
       id="path3450"
       inkscape:connector-curvature="0"
       transform="translate(0,981.49606)" />
  </g>
</svg>
