<?xml version="1.0" encoding="UTF-8" standalone="no"?>
<!-- Created with Inkscape (http://www.inkscape.org/) -->

<svg
   xmlns:dc="http://purl.org/dc/elements/1.1/"
   xmlns:cc="http://creativecommons.org/ns#"
   xmlns:rdf="http://www.w3.org/1999/02/22-rdf-syntax-ns#"
   xmlns:svg="http://www.w3.org/2000/svg"
   xmlns="http://www.w3.org/2000/svg"
   xmlns:sodipodi="http://sodipodi.sourceforge.net/DTD/sodipodi-0.dtd"
   xmlns:inkscape="http://www.inkscape.org/namespaces/inkscape"
   width="35mm"
   height="30mm"
   viewBox="0 0 124.01575 106.2992"
   id="svg3613"
   version="1.1"
   inkscape:version="0.91 r13725"
   sodipodi:docname="leftglove.svg">
  <defs
     id="defs3615" />
  <sodipodi:namedview
     id="base"
     pagecolor="#ffffff"
     bordercolor="#666666"
     borderopacity="1.0"
     inkscape:pageopacity="0.0"
     inkscape:pageshadow="2"
     inkscape:zoom="2.8"
     inkscape:cx="137.11438"
     inkscape:cy="122.1023"
     inkscape:document-units="px"
     inkscape:current-layer="layer1"
     showgrid="false"
     inkscape:window-width="1366"
     inkscape:window-height="744"
     inkscape:window-x="0"
     inkscape:window-y="24"
     inkscape:window-maximized="1" />
  <metadata
     id="metadata3618">
    <rdf:RDF>
      <cc:Work
         rdf:about="">
        <dc:format>image/svg+xml</dc:format>
        <dc:type
           rdf:resource="http://purl.org/dc/dcmitype/StillImage" />
        <dc:title></dc:title>
      </cc:Work>
    </rdf:RDF>
  </metadata>
  <g
     inkscape:label="Capa 1"
     inkscape:groupmode="layer"
     id="layer1"
     transform="translate(0,-946.06301)">
    <path
       style="fill:none;fill-rule:evenodd;stroke:#000000;stroke-width:1px;stroke-linecap:butt;stroke-linejoin:miter;stroke-opacity:1"
       d="m 109.4666,1008.4434 -1.95379,-51.23284 c 0.0289,-4.50814 -6.19786,-4.32458 -10.420238,-5.64429 -32.64808,4.35237 -60.33755,15.16078 -83.7961,31.47781 -1.95347,2.67547 -3.7906506,4.65318 -6.2955606,10.63732 l 30.3923706,41.0297 c 11.07535,-37.00845 35.52774,-44.83063 72.073318,-26.2677 z"
       id="path3590"
       inkscape:connector-curvature="0"
       sodipodi:nodetypes="ccccccc" />
    <path
       style="fill:#646955;fill-opacity:0.99607843"
       d="m 30.104722,1023.4905 c -0.004,-0.6581 -0.3219,-1.1184 -0.68031,-0.9866 -0.19123,0.07 -3.05007,-3.6275 -8.21699,-10.6284 -6.11208,-8.2817 -7.94854,-10.9152 -8.03227,-11.5188 -0.0851,-0.61382 -0.22557,-0.80961 -0.65127,-0.90802 -0.3685,-0.0852 -1.17246,-0.95189 -2.504451,-2.69991 l -1.9617396,-2.57446 0.12434,-1.10795 c 0.15268,-1.36042 1.6245,-4.22155 3.5792806,-6.9579 1.87222,-2.62077 2.32605,-3.06405 3.41875,-3.33919 0.63443,-0.15975 1.33479,-0.60751 2.17865,-1.39285 0.68401,-0.63658 1.24365,-1.12227 1.24365,-1.07932 0,0.043 0.14726,-0.0692 0.32725,-0.24915 1.18972,-1.18972 16.69885,-9.91282 17.31118,-9.73666 0.0895,0.0258 0.16281,-0.0566 0.16281,-0.18306 0,-0.12645 0.0943,-0.1716 0.20964,-0.10034 0.21495,0.13284 1.976,-0.6685 2.18735,-0.99532 0.14287,-0.22091 5.81324,-2.75505 9.54287,-4.26479 7.29004,-2.95098 16.2861,-5.86094 24.72835,-7.99888 5.38885,-1.36469 15.06229,-3.35707 16.24794,-3.34649 0.44727,0.004 3.25546,0.0822 6.24042,0.17379 5.033098,0.15443 5.490038,0.20156 6.292348,0.64904 0.47583,0.26539 1.08195,0.48253 1.34694,0.48253 0.49825,0 1.13913,0.5482 1.94293,1.66199 0.75211,1.04214 1.31292,4.50569 1.61146,9.95223 0.22758,4.15202 0.42945,5.87261 0.6476,5.51964 0.0934,-0.15114 0.18025,1.02439 0.19298,2.61228 0.0128,1.58789 0.0581,2.94774 0.10077,3.02188 0.0427,0.0741 0.14121,2.52819 0.21895,5.45346 0.0777,2.92526 0.19463,5.66058 0.25976,6.07847 0.091,0.5837 0.0635,0.68434 -0.11868,0.43418 -0.23395,-0.32132 -0.22787,0.19944 0.0926,7.92372 0.2514,6.05938 0.41128,8.33268 0.57876,8.22918 0.10148,-0.063 0.18451,0.3371 0.18451,0.8885 0,0.6131 -0.0843,0.9504 -0.21709,0.8684 -0.1194,-0.074 -0.21709,-0.2519 -0.21709,-0.3958 0,-0.3526 -2.57313,-3.1861 -2.8937,-3.1865 -0.13975,-10e-5 -0.80861,-0.3852 -1.48637,-0.8557 -0.67776,-0.4704 -1.60581,-0.9575 -2.06234,-1.0822 -0.45653,-0.1248 -1.40214,-0.5734 -2.101358,-0.9969 -0.69922,-0.4235 -2.26226,-1.0662 -3.47341,-1.42817 -1.21116,-0.36197 -3.13016,-0.93355 -4.26445,-1.27016 -4.38848,-1.30237 -11.44973,-1.42808 -18.56105,-0.33044 -1.07459,0.16587 -2.3934,0.36036 -2.93069,0.43221 -0.53729,0.0719 -1.51419,0.28113 -2.17088,0.46506 -5.76978,1.6161 -8.85699,2.9258 -12.30554,5.2205 -1.78553,1.1881 -5.57539,4.3877 -6.18589,5.2225 -0.15769,0.2156 -0.75074,0.7755 -1.31788,1.2443 -0.56715,0.4687 -1.03117,0.9775 -1.03117,1.1305 0,0.2792 -1.63814,1.5836 -1.98874,1.5836 -0.10278,0 -0.601,0.1899 -1.10714,0.422 -0.50614,0.2322 -1.47461,0.5206 -2.15216,0.6409 -1.18805,0.211 -5.1722,2.0287 -5.1722,2.3597 0,0.089 -0.26865,0.2834 -0.597,0.4319 -1.46968,0.6648 -5.45122,4.9231 -5.95539,6.3693 -0.26124,0.7494 -0.61017,0.8301 -0.61485,0.1422 z m -0.43086,-3.2951 c 0,-0.5105 -0.6401,-0.9924 -1.31803,-0.9924 -0.76398,0 -0.77448,0.052 -0.14731,0.7292 0.54412,0.5876 1.46534,0.753 1.46534,0.2632 z m -5.75182,-40.06995 c 0.0476,-0.077 0.0311,-0.35242 -0.0368,-0.61194 -0.0988,-0.37782 -0.28445,-0.47185 -0.93158,-0.47185 -0.65538,0 -0.85582,0.10454 -1.06012,0.55293 -0.13856,0.30412 -0.25193,0.60202 -0.25193,0.662 0,0.15948 2.17825,0.0342 2.28044,-0.13114 z m 22.91256,-13.13219 c -0.006,-0.1194 -0.10845,-0.20732 -0.22785,-0.19538 -0.11939,0.0119 -0.41246,0.0364 -0.65126,0.0543 -0.2388,0.0179 -0.43418,0.16676 -0.43418,0.33078 0,0.2173 0.17963,0.26147 0.66203,0.16281 0.36411,-0.0745 0.65718,-0.23309 0.65126,-0.35248 z"
       id="path3592"
       inkscape:connector-curvature="0" />
    <path
       style="fill:#646955;fill-opacity:0.99607843"
       d="m 34.885062,1030.3528 c -1.22719,-1.6345 -2.2742,-3.136 -2.3267,-3.3368 -0.17435,-0.6667 1.62724,-3.7274 3.04171,-5.1676 2.14698,-2.1859 4.01807,-3.4615 6.1325,-4.1807 2.45238,-0.8341 2.57196,-0.8302 2.14255,0.07 -0.316,0.6627 -0.39599,0.7013 -1.30409,0.629 -1.19697,-0.095 -2.11252,0.1133 -1.91331,0.4356 0.0926,0.1498 0.60161,0.197 1.37247,0.1271 l 1.22526,-0.1111 -1.13988,2.222 c -1.29098,2.5165 -3.16641,7.0432 -4.18296,10.0961 -0.37657,1.131 -0.71428,2.0859 -0.75048,2.1221 -0.0362,0.036 -1.06987,-1.2715 -2.29707,-2.906 z m -1.08984,-3.4847 c 0.002,-0.2616 -0.0944,-0.536 -0.21377,-0.6098 -0.13206,-0.082 -0.21578,0.2322 -0.21376,0.8013 0.002,0.684 0.0599,0.8479 0.21376,0.6098 0.11575,-0.1791 0.21194,-0.5397 0.21377,-0.8013 z m 2.53959,-4.6666 c -0.0693,-0.1732 -0.12074,-0.1217 -0.13116,0.1312 -0.009,0.2288 0.0419,0.357 0.11402,0.2849 0.0721,-0.072 0.0798,-0.2594 0.0171,-0.4161 z m 2.69161,-1.696 c 0.10963,0 0.18603,-0.2687 0.16977,-0.597 -0.0254,-0.5119 -0.043,-0.5273 -0.12365,-0.1085 -0.0588,0.3053 -0.25115,0.4884 -0.51315,0.4884 -0.2305,0 -0.41908,0.1081 -0.41908,0.2403 0,0.1322 0.15452,0.181 0.34339,0.1086 0.18886,-0.073 0.43308,-0.1318 0.54272,-0.1318 z"
       id="path3594"
       inkscape:connector-curvature="0" />
    <path
       style="fill:#646955;fill-opacity:0.99607843"
       d="m 31.391182,1025.5863 -1.02094,-1.4078 0.35831,-0.6968 c 0.94139,-1.8307 3.89839,-4.982 6.15646,-6.561 1.45862,-1.0199 3.78957,-2.1133 5.53575,-2.5966 1.98719,-0.55 3.61541,-1.2119 4.39604,-1.7872 0.38805,-0.286 0.70554,-0.4721 0.70554,-0.4135 0,0.058 -0.53508,0.8521 -1.18906,1.7637 -0.65398,0.9115 -1.39785,2.0288 -1.65305,2.4828 -0.34608,0.6158 -0.56955,0.798 -0.87929,0.717 -0.61267,-0.1602 -3.4617,0.9466 -5.01737,1.9492 -2.52734,1.6288 -5.33242,4.9356 -6.11318,7.2067 l -0.25827,0.7512 -1.02094,-1.4077 z"
       id="path3596"
       inkscape:connector-curvature="0" />
    <path
       style="fill:#646955;fill-opacity:0.99607843"
       d="m 105.24214,1005.748 c -5.874368,-2.7247 -12.388938,-5.01 -17.600748,-6.17429 -4.59017,-1.02544 -6.92876,-1.2846 -11.75537,-1.30273 l -4.5252,-0.017 2.5714,-0.40489 c 3.19785,-0.50353 13.41977,-0.62963 15.71307,-0.19384 3.31629,0.63018 8.0324,2.23302 11.339708,3.85395 4.20234,2.0596 5.06585,2.6171 6.31005,4.0734 0.9908,1.1598 1.17681,1.4773 0.84921,1.4497 -0.0896,-0.01 -1.3955,-0.5855 -2.90212,-1.2843 z"
       id="path3598"
       inkscape:connector-curvature="0" />
  </g>
</svg>
