<?xml version="1.0" encoding="UTF-8" standalone="no"?>
<!-- Created with Inkscape (http://www.inkscape.org/) -->

<svg
   xmlns:dc="http://purl.org/dc/elements/1.1/"
   xmlns:cc="http://creativecommons.org/ns#"
   xmlns:rdf="http://www.w3.org/1999/02/22-rdf-syntax-ns#"
   xmlns:svg="http://www.w3.org/2000/svg"
   xmlns="http://www.w3.org/2000/svg"
   xmlns:sodipodi="http://sodipodi.sourceforge.net/DTD/sodipodi-0.dtd"
   xmlns:inkscape="http://www.inkscape.org/namespaces/inkscape"
   width="70mm"
   height="35mm"
   viewBox="0 0 248.03162 124.01577"
   id="svg3509"
   version="1.1"
   inkscape:version="0.91 r13725"
   sodipodi:docname="madeyes.svg">
  <defs
     id="defs3511" />
  <sodipodi:namedview
     id="base"
     pagecolor="#ffffff"
     bordercolor="#666666"
     borderopacity="1.0"
     inkscape:pageopacity="0.0"
     inkscape:pageshadow="2"
     inkscape:zoom="2.8"
     inkscape:cx="149.39286"
     inkscape:cy="84.654865"
     inkscape:document-units="px"
     inkscape:current-layer="layer1"
     showgrid="false"
     inkscape:window-width="1366"
     inkscape:window-height="744"
     inkscape:window-x="0"
     inkscape:window-y="24"
     inkscape:window-maximized="1" />
  <metadata
     id="metadata3514">
    <rdf:RDF>
      <cc:Work
         rdf:about="">
        <dc:format>image/svg+xml</dc:format>
        <dc:type
           rdf:resource="http://purl.org/dc/dcmitype/StillImage" />
        <dc:title></dc:title>
      </cc:Work>
    </rdf:RDF>
  </metadata>
  <g
     inkscape:label="Capa 1"
     inkscape:groupmode="layer"
     id="layer1"
     transform="translate(0,-928.34644)">
    <path
       style="fill:none;fill-rule:evenodd;stroke:#000000;stroke-width:1px;stroke-linecap:butt;stroke-linejoin:miter;stroke-opacity:1"
       d="m 3.6473629,1015.4899 117.4447871,21.926 2.82215,10.8544 2.38797,-11.2886 112.72852,-28.8575 C 142.88264,928.46125 65.416403,935.53568 3.6473629,1015.4899 Z"
       id="path3489"
       inkscape:connector-curvature="0"
       sodipodi:nodetypes="cccccc" />
    <path
       style="fill:#000000;fill-opacity:1"
       d="m 122.68995,1041.1549 c -0.7855,-3.0704 -1.17049,-4.2307 -1.42585,-4.2975 -0.1924,-0.05 -26.449147,-4.9629 -58.348337,-10.9169 -31.89919,-5.954 -57.9985301,-10.8947 -57.9985301,-10.9793 0,-0.085 1.36,-1.8276 3.02223,-3.8733 20.6007601,-25.35258 42.5492001,-42.42604 65.9686601,-51.31628 8.23294,-3.1253 17.79885,-5.50522 26.202347,-6.51893 9.82703,-1.18543 21.06604,-0.99493 31.58635,0.5354 30.09419,4.37761 63.10909,20.39094 97.6688,47.37261 6.26448,4.8908 8.26623,6.5451 8.09382,6.6887 -0.082,0.068 -25.10888,6.504 -55.61521,14.3015 -30.50634,7.7974 -55.60664,14.2521 -55.77845,14.3437 -0.20031,0.1067 -0.63684,1.6949 -1.21687,4.4272 -0.49748,2.3434 -0.94465,4.3008 -0.99371,4.3499 -0.0491,0.049 -0.57342,-1.8035 -1.16525,-4.1168 z"
       id="path3497"
       inkscape:connector-curvature="0" />
  </g>
</svg>
