<?xml version="1.0" encoding="UTF-8" standalone="no"?>
<!-- Created with Inkscape (http://www.inkscape.org/) -->

<svg
   xmlns:dc="http://purl.org/dc/elements/1.1/"
   xmlns:cc="http://creativecommons.org/ns#"
   xmlns:rdf="http://www.w3.org/1999/02/22-rdf-syntax-ns#"
   xmlns:svg="http://www.w3.org/2000/svg"
   xmlns="http://www.w3.org/2000/svg"
   xmlns:sodipodi="http://sodipodi.sourceforge.net/DTD/sodipodi-0.dtd"
   xmlns:inkscape="http://www.inkscape.org/namespaces/inkscape"
   width="35mm"
   height="15mm"
   viewBox="0 0 124.01576 53.149606"
   id="svg3637"
   version="1.1"
   inkscape:version="0.91 r13725"
   sodipodi:docname="openmouth.svg">
  <defs
     id="defs3639" />
  <sodipodi:namedview
     id="base"
     pagecolor="#ffffff"
     bordercolor="#666666"
     borderopacity="1.0"
     inkscape:pageopacity="0.0"
     inkscape:pageshadow="2"
     inkscape:zoom="4"
     inkscape:cx="106.10153"
     inkscape:cy="5.5115044"
     inkscape:document-units="px"
     inkscape:current-layer="layer1"
     showgrid="false"
     inkscape:window-width="1366"
     inkscape:window-height="744"
     inkscape:window-x="0"
     inkscape:window-y="24"
     inkscape:window-maximized="1" />
  <metadata
     id="metadata3642">
    <rdf:RDF>
      <cc:Work
         rdf:about="">
        <dc:format>image/svg+xml</dc:format>
        <dc:type
           rdf:resource="http://purl.org/dc/dcmitype/StillImage" />
        <dc:title></dc:title>
      </cc:Work>
    </rdf:RDF>
  </metadata>
  <g
     inkscape:label="Capa 1"
     inkscape:groupmode="layer"
     id="layer1"
     transform="translate(0,-999.21259)">
    <path
       style="fill:none;fill-rule:evenodd;stroke:#000000;stroke-width:1px;stroke-linecap:butt;stroke-linejoin:miter;stroke-opacity:1"
       d="m 18.764029,1033.6636 c -8.0334,-4.3989 -11.5223999,-9.4837 -0.4091,-16.7727 35.1705,-14.5663 65.927601,-5.1344 95.318201,11.7273 6.4858,6.8949 11.3795,13.433 -2.8637,15.6818 -30.3176,-6.277 -61.000501,-9.8139 -92.045401,-10.6364 z"
       id="path3626"
       inkscape:connector-curvature="0"
       sodipodi:nodetypes="ccccc" />
    <path
       style="fill:#000000;fill-opacity:1"
       d="m 99.398427,1041.4619 c -21.773116,-4.1854 -44.718949,-6.8435 -69.895659,-8.0969 -10.749339,-0.5352 -10.81224,-0.5451 -12.967414,-2.0279 -5.693443,-3.9171 -5.714402,-7.8076 -0.06504,-12.0729 3.067213,-2.3158 11.495121,-5.3337 20.046117,-7.1782 4.60189,-0.9926 6.806325,-1.1465 16.667517,-1.1637 9.932674,-0.017 12.09589,0.1279 17.172593,1.1523 15.732111,3.1746 39.261279,13.4059 44.822129,19.4904 4.93372,5.3983 5.24764,8.2256 1.13981,10.266 -3.62343,1.7998 -5.89456,1.7503 -16.920053,-0.3691 z"
       id="path3651"
       inkscape:connector-curvature="0" />
    <path
       style="fill:#000000;fill-opacity:1"
       d="m 104.22505,1024.3069 c -1.21527,-0.6341 -3.64117,-1.8023 -5.419802,-2.6101 -12.199464,-5.5403 -25.848964,-9.7572 -34.022161,-10.5108 -2.096512,-0.1933 -3.717378,-0.2453 -8.660714,-0.2776 -4.175609,-0.027 -9.646779,0.028 -11.584821,0.1179 -3.345067,0.1544 -5.399723,0.4416 -8.995536,1.2571 -5.62341,1.2753 -11.457151,3.1281 -15.223214,4.8348 -0.30692,0.1391 -0.583148,0.2638 -0.61384,0.2771 -0.04083,0.018 -0.0558,-0.042 -0.0558,-0.2231 l 0,-0.2472 0.703125,-0.276 c 12.476003,-4.8983 25.045848,-6.998 37.667411,-6.2919 11.852879,0.6631 23.882062,3.6993 36.785714,9.2849 2.941741,1.2734 6.549668,2.9724 9.162948,4.3148 1.04632,0.5375 1.17187,0.6137 1.17187,0.7106 0,0.06 -0.005,0.1078 -0.0112,0.1069 -0.006,-9e-4 -0.41295,-0.2112 -0.90402,-0.4674 z"
       id="path3653"
       inkscape:connector-curvature="0" />
    <path
       style="fill:#000000;fill-opacity:1"
       d="m 16.009595,1031.3645 c -2.116646,-1.4796 -3.49233,-3.0364 -3.967277,-4.4898 -0.160758,-0.492 -0.205654,-0.7887 -0.204202,-1.3498 0.002,-0.7863 0.153555,-1.3886 0.551795,-2.1932 0.877193,-1.7724 2.768766,-3.6452 5.693446,-5.637 0.426513,-0.2905 0.564709,-0.3652 1.020757,-0.5521 l 0.527457,-0.216 0.01578,0.2427 0.01578,0.2428 -0.836533,0.4279 c -1.482787,0.7584 -2.141304,1.1901 -3.314563,2.1727 -0.510932,0.4279 -1.460816,1.3802 -1.798421,1.803 -0.745396,0.9335 -1.1997,1.8292 -1.393103,2.7464 -0.09169,0.4348 -0.09984,1.2026 -0.01721,1.6208 0.350633,1.7746 1.768053,3.4939 4.297801,5.2132 0.225706,0.1534 0.423869,0.2908 0.440363,0.3053 0.01649,0.015 -0.09197,0.027 -0.241028,0.027 l -0.271018,0 -0.519836,-0.3634 z"
       id="path3655"
       inkscape:connector-curvature="0" />
    <path
       style="fill:#000000;fill-opacity:1"
       d="m 49.800778,1034.8923 c -3.861177,-0.3411 -9.184219,-0.7281 -13.638393,-0.9917 -5.661111,-0.335 -11.227175,-0.5778 -16.706947,-0.7287 l -0.557393,-0.015 -0.458232,-0.2614 c -0.703108,-0.4011 -1.659133,-0.9843 -1.834026,-1.1188 -0.05207,-0.04 -0.04973,-0.041 0.174192,-0.041 0.124833,-3e-4 0.240362,-0.01 0.256731,-0.012 0.01637,-0.01 0.135216,0.055 0.264103,0.1356 1.07889,0.6766 2.150897,0.9107 5.155137,1.126 1.251927,0.09 2.331345,0.1502 5.960899,0.3345 8.383745,0.4255 13.906444,0.7881 20.92634,1.3738 1.858495,0.155 1.685267,0.1319 1.685267,0.2252 0,0.092 0.143804,0.095 -1.227678,-0.026 z"
       id="path3657"
       inkscape:connector-curvature="0" />
    <path
       style="fill:#000000;fill-opacity:1"
       d="m 110.37738,1043.6888 c -1.43194,-0.3087 -6.39941,-1.2859 -9.23342,-1.8165 -6.598408,-1.2353 -14.238185,-2.5105 -20.17938,-3.3682 l -0.828641,-0.1196 0,-0.087 c 0,-0.074 0.01065,-0.085 0.07103,-0.072 0.03907,0.01 0.369337,0.059 0.733939,0.1127 5.43245,0.7943 11.738806,1.8645 18.135395,3.0775 5.714957,1.0838 7.946667,1.4428 10.227787,1.6452 0.77048,0.068 2.46287,0.078 2.99889,0.017 1.31847,-0.1499 2.29986,-0.4295 3.56711,-1.0161 2.1336,-0.9877 3.123,-2.0094 3.28625,-3.3937 0.16681,-1.4144 -0.76412,-3.3405 -2.78583,-5.764 -1.45796,-1.7477 -2.45622,-2.6707 -4.30428,-3.9796 -1.63519,-1.1582 -4.07575,-2.628 -6.46119,-3.8912 -0.42829,-0.2268 -0.46322,-0.252 -0.46094,-0.3321 0.001,-0.048 -0.008,-0.103 -0.0199,-0.1229 -0.0123,-0.02 -0.0155,-0.036 -0.007,-0.036 0.0191,0 1.67093,0.8653 2.57697,1.35 1.47875,0.791 3.55533,1.938 4.95606,2.7376 l 0.71027,0.4054 0.55731,0.6025 c 1.83023,1.9784 3.05827,3.4674 3.92042,4.7535 2.50861,3.7421 2.212,6.0452 -0.9876,7.6687 -1.30463,0.662 -2.99606,1.1712 -5.25348,1.5814 -0.37953,0.069 -0.73467,0.1239 -0.78918,0.1222 -0.0545,0 -0.24828,-0.035 -0.43058,-0.075 z"
       id="path3659"
       inkscape:connector-curvature="0" />
    <path
       style="fill:#000000;fill-opacity:1"
       d="m 77.094194,1037.9612 c -0.313913,-0.045 -1.773256,-0.2449 -2.586465,-0.3539 -3.849705,-0.5157 -7.880357,-1.0094 -11.640508,-1.4258 l -0.629372,-0.07 0,-0.093 c 0,-0.051 0.002,-0.093 0.0045,-0.093 0.012,0 1.28068,0.1407 2.023723,0.2244 4.219541,0.4755 9.022501,1.082 12.826175,1.6199 l 0.258457,0.036 0,0.093 0,0.093 -0.0217,-9e-4 c -0.01194,-6e-4 -0.117588,-0.015 -0.234782,-0.032 z"
       id="path3661"
       inkscape:connector-curvature="0" />
    <path
       style="fill:#000000;fill-opacity:1"
       d="m 61.551058,1036.0378 c -1.366059,-0.1502 -5.168551,-0.5438 -5.253562,-0.5438 -0.0079,0 -0.01028,-0.021 -0.01028,-0.091 l 0,-0.091 0.02959,0 c 0.01628,0 0.17875,0.018 0.361051,0.036 0.435059,0.042 1.838208,0.1822 2.56484,0.2568 1.067751,0.1096 2.945732,0.3086 2.977188,0.3155 0.01716,0 0.01776,0.01 0.01776,0.094 l 0,0.091 -0.02565,-9e-4 c -0.01411,-6e-4 -0.311529,-0.032 -0.660939,-0.071 z"
       id="path3663"
       inkscape:connector-curvature="0" />
    <path
       style="fill:#000000;fill-opacity:1"
       d="m 55.698245,1035.4362 c -0.991555,-0.099 -3.239989,-0.3077 -4.415113,-0.4108 -0.276676,-0.024 -0.335427,-0.031 -0.304073,-0.037 0.02137,0 0.04293,-0.01 0.04791,-0.014 0.0072,-0.01 0.0097,-0.075 0.0041,-0.111 -0.0014,-0.01 -0.02649,-0.016 -0.107332,-0.031 -0.0434,-0.01 -0.0692,-0.014 -0.05733,-0.015 0.04181,0 2.117536,0.1842 3.442922,0.3075 0.883178,0.082 1.913708,0.1806 1.947305,0.1858 l 0.0296,0 0,0.086 0,0.086 -0.04143,-10e-4 c -0.02279,-5e-4 -0.268717,-0.024 -0.546509,-0.051 z"
       id="path3665"
       inkscape:connector-curvature="0" />
    <path
       style="fill:#000000;fill-opacity:1"
       d="m 80.545468,1038.4542 c -0.49859,-0.074 -2.182744,-0.3152 -2.978516,-0.426 -0.136426,-0.019 -0.240576,-0.035 -0.231445,-0.036 l 0.0166,0 0,-0.093 0,-0.093 0.01074,0 c 0.0059,10e-4 0.172461,0.025 0.370117,0.053 0.832175,0.1174 2.756159,0.3958 2.958008,0.4281 0.01017,0 0.0166,0 0.0166,0.01 0,0 -0.0024,0.01 -0.0053,0.01 -0.01385,0 -0.39147,-0.058 -0.475877,-0.073 -0.08844,-0.016 -0.0896,-0.015 -0.09216,0.09 -9.38e-4,0.038 -8.51e-4,0.069 1.93e-4,0.069 0.001,0 0.12949,0.018 0.285434,0.041 0.155945,0.023 0.284485,0.041 0.285646,0.041 0.0012,0 0.0021,0 0.0021,0 0,0.01 -0.01,0 -0.162109,-0.018 l 0,0 z"
       id="path3667"
       inkscape:connector-curvature="0" />
  </g>
</svg>
