<?xml version="1.0" encoding="UTF-8" standalone="no"?>
<!-- Created with Inkscape (http://www.inkscape.org/) -->

<svg
   xmlns:dc="http://purl.org/dc/elements/1.1/"
   xmlns:cc="http://creativecommons.org/ns#"
   xmlns:rdf="http://www.w3.org/1999/02/22-rdf-syntax-ns#"
   xmlns:svg="http://www.w3.org/2000/svg"
   xmlns="http://www.w3.org/2000/svg"
   xmlns:sodipodi="http://sodipodi.sourceforge.net/DTD/sodipodi-0.dtd"
   xmlns:inkscape="http://www.inkscape.org/namespaces/inkscape"
   width="115mm"
   height="20mm"
   viewBox="0 0 407.4804 70.866137"
   id="svg3427"
   version="1.1"
   inkscape:version="0.91 r13725"
   sodipodi:docname="pants.svg">
  <defs
     id="defs3429" />
  <sodipodi:namedview
     id="base"
     pagecolor="#ffffff"
     bordercolor="#666666"
     borderopacity="1.0"
     inkscape:pageopacity="0.0"
     inkscape:pageshadow="2"
     inkscape:zoom="1.979899"
     inkscape:cx="215.03917"
     inkscape:cy="90.791796"
     inkscape:document-units="px"
     inkscape:current-layer="layer1"
     showgrid="false"
     inkscape:window-width="1366"
     inkscape:window-height="744"
     inkscape:window-x="0"
     inkscape:window-y="24"
     inkscape:window-maximized="1" />
  <metadata
     id="metadata3432">
    <rdf:RDF>
      <cc:Work
         rdf:about="">
        <dc:format>image/svg+xml</dc:format>
        <dc:type
           rdf:resource="http://purl.org/dc/dcmitype/StillImage" />
        <dc:title></dc:title>
      </cc:Work>
    </rdf:RDF>
  </metadata>
  <g
     inkscape:label="Capa 1"
     inkscape:groupmode="layer"
     id="layer1"
     transform="translate(0,-981.49609)">
    <path
       style="fill:none;fill-rule:evenodd;stroke:#000000;stroke-width:1px;stroke-linecap:butt;stroke-linejoin:miter;stroke-opacity:1"
       d="M 199.74564,1043.7916 C 143.14179,1032.0518 86.29277,1027.749 6.7812502,1026.4788 l 0,-16.0645 c 34.3372498,-1.2265 68.7907298,-2.0655 103.9853098,-0.4342 43.42541,1.5357 44.58001,3.7603 57.09423,9.9861 7.40424,5.2245 16.92841,8.9348 25.61643,13.2424 6.30796,1.5651 12.81282,1.5551 19.32086,1.5196 7.52573,-1.2398 15.05145,-5.301 22.57718,-9.3348 15.09048,-9.1311 44.38503,-12.5805 73.59295,-16.0646 l 87.05242,-5.2101 -0.43417,22.7943 c -65.31256,4.5931 -130.78835,3.9627 -195.84082,16.8786 z"
       id="path3383"
       inkscape:connector-curvature="0"
       sodipodi:nodetypes="cccccccccccc" />
    <path
       style="fill:#ad93a4;fill-opacity:0.99608154"
       d="m 199.99986,1042.0078 c -0.31124,-0.5067 -0.38338,-1.4863 -0.27729,-3.7647 l 0.14341,-3.0798 7.41197,0.01 c 7.21783,0.01 7.48138,-0.012 10.06276,-0.8229 4.14978,-1.3035 9.37093,-3.6551 16.53728,-7.4484 3.63038,-1.9217 7.36054,-3.7969 8.28925,-4.1671 11.96062,-4.7683 26.77019,-7.8104 55.10816,-11.3199 9.85033,-1.2199 14.95342,-1.6775 25.78878,-2.3122 7.42962,-0.4352 26.18681,-1.5493 41.68263,-2.4757 15.49582,-0.9265 28.58593,-1.6845 29.08913,-1.6845 l 0.9149,0 0,9.5501 c 0,8.9826 -0.0319,9.5358 -0.53726,9.309 -0.2955,-0.1326 -0.88265,-0.2262 -1.30479,-0.208 -0.42214,0.018 -4.29046,0.1155 -8.59626,0.216 -4.30581,0.1005 -8.45043,0.2696 -9.21028,0.3757 l -1.38154,0.1929 1.06435,0.2348 c 0.58539,0.1291 5.27452,0.1771 10.42029,0.1066 9.18169,-0.1258 9.82493,-0.074 9.84701,0.7925 0.002,0.084 -5.0729,0.1601 -11.27789,0.1681 -6.36102,0.01 -12.82174,0.1729 -14.81241,0.3774 -1.94183,0.1995 -6.08645,0.5046 -9.21027,0.678 -3.12382,0.1734 -9.13353,0.5207 -13.35491,0.7717 -4.22137,0.251 -10.99093,0.5964 -15.04345,0.7674 -4.05252,0.1711 -9.09515,0.4501 -11.20584,0.6199 -2.11069,0.1699 -6.87701,0.4495 -10.59182,0.6214 -3.71481,0.1719 -8.96467,0.5126 -11.66635,0.7573 -2.70168,0.2446 -7.39892,0.5817 -10.43832,0.749 -3.03939,0.1674 -6.6314,0.4467 -7.98224,0.6206 -1.35084,0.1739 -4.25208,0.4594 -6.44719,0.6346 -2.19512,0.1752 -5.71805,0.5265 -7.82874,0.7807 -2.11069,0.2542 -5.84085,0.6578 -8.28925,0.8968 -4.97196,0.4856 -9.43159,1.041 -15.81098,1.9693 -2.36397,0.344 -5.40336,0.763 -6.7542,0.9312 -5.4434,0.6777 -9.66518,1.2543 -12.43388,1.6983 -1.60412,0.2572 -3.88366,0.6077 -5.06565,0.7789 -1.18198,0.1711 -3.2543,0.5118 -4.60514,0.7569 -1.35084,0.2451 -3.90085,0.6707 -5.6667,0.9459 -1.76585,0.2752 -3.87122,0.7607 -4.6786,1.0789 l -1.46797,0.5787 -0.4207,-0.685 z m 2.19589,-1.3935 c -0.0564,-0.2977 -0.44073,-0.5593 -0.9,-0.6128 -0.60502,-0.07 -0.84384,0.069 -0.97415,0.5669 -0.095,0.3631 -0.0995,0.8507 -0.0102,1.0835 0.24433,0.6367 2.01671,-0.3392 1.88435,-1.0376 z m 3.82114,-0.5826 c -0.37992,-0.073 -1.00161,-0.073 -1.38154,0 -0.37992,0.073 -0.0691,0.133 0.69077,0.133 0.75985,0 1.0707,-0.06 0.69077,-0.133 z m 30.244,-4.5995 c -0.29353,-0.077 -0.84615,-0.08 -1.22804,-0.01 -0.38189,0.073 -0.14173,0.1363 0.53369,0.1397 0.67542,0 0.98788,-0.057 0.69435,-0.1335 l 0,0 z m 30.54384,-3.6898 c -0.37992,-0.073 -1.00162,-0.073 -1.38154,0 -0.37993,0.073 -0.0691,0.133 0.69077,0.133 0.75985,0 1.07069,-0.06 0.69077,-0.133 z m 37.9924,-2.8604 c 1.00961,-0.3326 -4.40229,-0.3121 -5.50064,0.021 -0.5155,0.1562 0.17396,0.2389 1.97003,0.2361 1.5197,0 3.10847,-0.118 3.53061,-0.257 z m 27.20869,-1.5281 c 1.30479,0 2.2642,-0.1301 2.2642,-0.307 0,-0.3569 -5.82129,-0.4243 -7.4066,-0.086 l -1.03616,0.2213 1.07453,0.2094 c 0.591,0.1152 1.47173,0.1537 1.95719,0.086 0.48546,-0.068 1.90154,-0.1237 3.14684,-0.1237 z m 4.25976,-0.307 c 0.48241,-0.2073 0.35081,-0.2675 -0.61402,-0.2807 -0.90081,-0.012 -1.10533,0.062 -0.76752,0.2807 0.53714,0.3471 0.57372,0.3471 1.38154,0 z m 22.10466,-0.9049 2.76309,-0.2258 -3.3771,-0.1224 c -4.55792,-0.1652 -12.44315,0.045 -13.2014,0.3517 -0.76232,0.3085 10.03219,0.3058 13.81541,0 z"
       id="path3385"
       inkscape:connector-curvature="0" />
    <path
       style="fill:#ad93a4;fill-opacity:0.99608154"
       d="m 191.81798,1040.3544 c -0.44774,-0.078 -1.03041,-0.219 -1.29481,-0.3144 -0.2644,-0.095 -1.36341,-0.2946 -2.44224,-0.4428 -1.07883,-0.1482 -2.49881,-0.3658 -3.1555,-0.4836 -1.21477,-0.2178 -3.64013,-0.5835 -4.72167,-0.712 -0.32835,-0.039 -0.96333,-0.1616 -1.41108,-0.2725 -0.79605,-0.1972 -1.53852,-0.2929 -4.17895,-0.5387 -0.71639,-0.067 -1.71771,-0.212 -2.22515,-0.3229 -0.9251,-0.2022 -2.83063,-0.4398 -5.26439,-0.6564 -0.7164,-0.064 -1.69329,-0.2092 -2.17089,-0.3232 -0.47759,-0.114 -1.33238,-0.2571 -1.89952,-0.3181 -2.56683,-0.2757 -3.97973,-0.4606 -4.59704,-0.6013 -0.77049,-0.1757 -2.21628,-0.3556 -3.92368,-0.4882 -1.69138,-0.1314 -2.26222,-0.2072 -3.31059,-0.4394 -0.50745,-0.1124 -1.85068,-0.2804 -2.98497,-0.3733 -3.60243,-0.2952 -5.59281,-0.4976 -7.48955,-0.7615 -1.01488,-0.1412 -2.7733,-0.3351 -3.90759,-0.4308 -1.13428,-0.096 -2.35541,-0.2447 -2.7136,-0.331 -0.67544,-0.1628 -1.70754,-0.2483 -6.56692,-0.5441 -1.58203,-0.096 -3.14507,-0.2445 -3.47342,-0.3293 -0.80384,-0.2075 -2.19143,-0.3415 -5.0473,-0.4872 -1.31338,-0.067 -4.0487,-0.2639 -6.07847,-0.4377 -9.92761,-0.8497 -20.147437,-1.5941 -29.17125,-2.1249 l -3.22919,-0.19 0,-9.3678 0,-9.3679 1.32967,0 c 3.3763,0 15.864253,0.3162 21.6817,0.5425 15.01968,0.5842 20.79126,0.8363 22.25155,0.972 2.8534,0.2652 3.74595,0.3584 5.31866,0.5555 0.92534,0.1159 2.14287,0.2822 2.70561,0.3695 0.56275,0.087 1.44195,0.1658 1.9538,0.1746 0.51184,0.01 1.27253,0.086 1.69043,0.1714 0.41789,0.086 1.05288,0.197 1.41107,0.2477 0.3582,0.051 1.06645,0.2425 1.57389,0.4261 0.74227,0.2685 1.20908,0.3553 2.38797,0.4439 1.00646,0.076 1.83926,0.2124 2.65934,0.4364 0.65669,0.1795 1.48705,0.3774 1.84525,0.44 0.35819,0.062 0.94433,0.2067 1.30253,0.3205 0.35819,0.1138 0.9599,0.2608 1.33712,0.3267 0.37722,0.066 1.30756,0.3112 2.06743,0.5453 0.75987,0.234 2.23408,0.5713 3.27601,0.7494 1.20898,0.2067 2.20862,0.4457 2.76278,0.6605 1.17084,0.4538 3.10229,1.0785 3.34226,1.081 0.10696,10e-4 0.50393,0.1467 0.88216,0.3235 0.37822,0.1768 1.16991,0.4529 1.75931,0.6136 0.5894,0.1606 1.14875,0.3578 1.243,0.4383 0.0942,0.08 0.22471,0.1462 0.28991,0.1462 0.36482,0 2.07705,0.8705 3.37041,1.7136 4.0869,2.664 7.90019,4.6412 18.25706,9.4661 1.76113,0.8205 3.88588,1.8176 4.72167,2.2159 l 1.51962,0.7241 -0.0345,1.6595 c -0.0219,1.0531 0.0225,2.0529 0.12144,2.7362 0.18794,1.2977 0.13924,1.8762 -0.17951,2.1327 -0.26821,0.2158 -0.46943,0.219 -1.58986,0.025 z"
       id="path3387"
       inkscape:connector-curvature="0" />
    <path
       style="fill:#000000;fill-opacity:0.99608154"
       d="m 198.87336,1043.0534 c -0.0895,-0.027 -0.38262,-0.3616 -0.65127,-0.7442 -0.85546,-1.2185 -1.68414,-1.3731 -3.38245,-0.631 -0.45742,0.1998 -0.88758,0.3634 -0.95592,0.3634 -0.23113,0 0.18407,-0.4523 0.68483,-0.7459 0.26754,-0.1569 0.69177,-0.4734 0.94271,-0.7033 0.42368,-0.3881 0.44701,-0.4383 0.32665,-0.7025 -0.0713,-0.1565 -0.17733,-1.1406 -0.23563,-2.1871 -0.0583,-1.0464 -0.13155,-2.1986 -0.16278,-2.5605 -0.0773,-0.8955 5.7e-4,-0.9485 1.10503,-0.7517 0.47491,0.085 1.01001,0.1594 1.18911,0.1662 0.1791,0.01 0.2678,0.036 0.19712,0.065 -0.097,0.04 -0.0916,0.1569 0.0221,0.4793 0.13589,0.3851 0.13011,0.472 -0.059,0.8888 -0.16313,0.3594 -0.21077,0.7149 -0.21463,1.6016 -0.004,0.9569 -0.048,1.2442 -0.27324,1.791 -0.31426,0.7629 -0.3286,0.9067 -0.0992,0.9947 0.13197,0.051 1.34116,1.7819 1.82604,2.6144 0.0802,0.1377 0.0329,0.149 -0.25942,0.062 z"
       id="path3389"
       inkscape:connector-curvature="0" />
    <path
       style="fill:#000000;fill-opacity:0.99608154"
       d="m 395.0219,1025.3976 c -3.9e-4,-0.2264 -0.25923,-0.445 -0.62018,-0.5238 -0.74023,-0.1616 -1.28361,-0.1776 -5.36636,-0.1582 -6.7345,0.032 -12.98133,0.02 -13.59324,-0.026 -0.51736,-0.039 -1.74688,-0.2648 -1.69965,-0.312 0.0281,-0.028 1.21618,-0.1934 1.68854,-0.2349 0.6269,-0.055 1.66716,-0.1098 3.30035,-0.1735 2.14233,-0.084 3.53718,-0.124 7.98224,-0.232 1.26642,-0.031 3.03652,-0.075 3.93356,-0.099 2.84353,-0.075 2.92316,-0.072 3.50108,0.1258 0.12095,0.042 0.23928,0.063 0.26295,0.049 0.13126,-0.081 0.21283,-0.5238 0.24771,-1.3444 0.0125,-0.2937 0.03,-0.6204 0.0389,-0.7259 0.009,-0.1055 0.0276,-3.9264 0.0416,-8.4907 0.0191,-6.238 0.0145,-8.2989 -0.0186,-8.2989 -0.0243,0 -0.0441,-0.05 -0.0441,-0.1107 0,-0.1056 0.01,-0.1119 0.2143,-0.1375 0.11786,-0.015 0.22039,-0.021 0.22784,-0.013 0.007,0.01 -0.002,0.2958 -0.0221,0.6407 -0.0196,0.3448 -0.0245,0.6449 -0.011,0.6668 0.0325,0.053 0.0279,16.0778 -0.005,16.7545 -0.0226,0.4688 -0.10673,1.0061 -0.21718,1.3875 -0.0332,0.1148 -0.0189,0.1945 0.0981,0.547 0.13372,0.4028 0.18241,0.7962 0.0986,0.7962 -0.0211,0 -0.0384,-0.039 -0.0385,-0.086 z"
       id="path3391"
       inkscape:connector-curvature="0" />
    <path
       style="fill:#000000;fill-opacity:0.99608154"
       d="m 235.33132,1037.2228 0,-0.2374 0.18708,-0.024 c 0.1029,-0.013 0.23457,-0.032 0.29262,-0.04 0.058,-0.01 0.15734,-0.022 0.22066,-0.028 0.0633,-0.01 0.32236,-0.041 0.57564,-0.077 0.25329,-0.036 0.5555,-0.074 0.67159,-0.085 0.33355,-0.032 0.69545,-0.072 1.30478,-0.1445 0.32627,-0.039 0.55988,-0.062 0.85387,-0.087 0.21475,-0.018 0.36899,-0.039 0.70996,-0.096 0.058,-0.01 0.16166,-0.027 0.23026,-0.038 0.16937,-0.027 0.51583,-0.09 0.8059,-0.1451 0.47826,-0.091 0.64744,-0.1219 0.90184,-0.162 0.14247,-0.022 0.33243,-0.053 0.42214,-0.069 0.24268,-0.041 0.9807,-0.1347 1.276,-0.1614 0.42676,-0.039 0.86486,-0.087 1.55424,-0.1721 0.0844,-0.01 0.21395,-0.024 0.28782,-0.03 0.0739,-0.01 0.19908,-0.019 0.27823,-0.029 0.0792,-0.01 0.25616,-0.032 0.39335,-0.048 0.1372,-0.016 0.2624,-0.034 0.27823,-0.038 0.0412,-0.012 0.57103,-0.1023 0.78671,-0.1342 0.10026,-0.015 0.24045,-0.04 0.31154,-0.055 0.24018,-0.053 0.70201,-0.1108 1.2427,-0.1559 0.33151,-0.028 0.47384,-0.047 1.06493,-0.143 0.12665,-0.021 0.32092,-0.046 0.43174,-0.057 0.35082,-0.034 0.84925,-0.1 1.51585,-0.2001 0.10026,-0.015 0.24705,-0.033 0.3262,-0.04 0.0792,-0.01 0.22162,-0.024 0.3166,-0.039 0.29152,-0.044 0.46716,-0.066 0.78672,-0.098 0.16885,-0.017 0.46243,-0.056 0.65239,-0.088 0.71871,-0.1196 1.42954,-0.1974 2.16825,-0.2371 0.24731,-0.013 0.59535,-0.049 0.94981,-0.096 0.63123,-0.085 1.15806,-0.1407 1.89003,-0.2011 0.12664,-0.011 0.26479,-0.024 0.30701,-0.029 0.0422,-0.01 0.24944,-0.019 0.46051,-0.029 0.59866,-0.03 0.99988,-0.055 1.20885,-0.075 0.10554,-0.011 0.33867,-0.033 0.51808,-0.05 0.17941,-0.017 0.45594,-0.047 0.61452,-0.068 0.15858,-0.02 0.35286,-0.037 0.43173,-0.037 0.0789,-2e-4 0.19954,-0.01 0.26813,-0.02 0.0686,-0.011 0.21107,-0.027 0.31661,-0.037 0.10553,-0.01 0.26959,-0.031 0.36457,-0.048 0.20818,-0.037 0.40019,-0.064 1.15128,-0.1634 0.0844,-0.011 0.27439,-0.033 0.42214,-0.05 0.51544,-0.056 0.5963,-0.066 0.8155,-0.095 0.23033,-0.03 0.65371,-0.075 0.99778,-0.1059 0.82073,-0.073 1.1405,-0.1092 1.36235,-0.1535 0.10026,-0.02 0.24273,-0.045 0.3166,-0.056 0.0739,-0.011 0.19044,-0.028 0.25904,-0.039 0.0686,-0.011 0.23697,-0.028 0.37417,-0.039 0.13719,-0.011 0.30989,-0.028 0.38376,-0.038 0.0739,-0.01 0.27247,-0.028 0.44133,-0.039 0.66951,-0.045 1.44147,-0.1091 1.74132,-0.1449 l 0.11033,-0.013 0,0.2329 c 0,0.2309 -3.8e-4,0.2329 -0.0446,0.2329 -0.11391,0 -0.78305,0.042 -1.05873,0.067 -0.16885,0.015 -0.43221,0.033 -0.58523,0.04 -0.15303,0.01 -0.41207,0.029 -0.57565,0.05 -0.16358,0.02 -0.39671,0.05 -0.51808,0.065 -0.24613,0.031 -0.54099,0.083 -0.78671,0.1407 -0.0897,0.021 -0.23217,0.048 -0.3166,0.06 -0.26879,0.039 -0.37846,0.054 -0.60405,0.085 -0.12116,0.017 -0.23342,0.034 -0.24945,0.039 -0.016,0.01 -0.16731,0.018 -0.33616,0.029 -0.48366,0.032 -0.76365,0.054 -1.08413,0.087 -0.36312,0.037 -0.62197,0.059 -1.1225,0.096 -0.40606,0.03 -0.92179,0.075 -1.20885,0.1045 -0.095,0.01 -0.31516,0.028 -0.48929,0.039 -0.17414,0.012 -0.46771,0.039 -0.6524,0.06 -0.42348,0.048 -0.60238,0.067 -0.99778,0.1026 -0.75918,0.069 -0.94487,0.085 -1.18007,0.096 -0.39131,0.019 -1.27484,0.1016 -1.65017,0.1537 -0.11609,0.016 -0.28015,0.038 -0.36457,0.049 -0.27783,0.036 -0.84162,0.1275 -1.06494,0.1728 -0.12799,0.026 -0.3721,0.053 -0.7688,0.085 -0.19454,0.016 -0.44005,0.038 -0.54559,0.048 -0.10553,0.011 -0.33867,0.032 -0.51807,0.048 -0.42506,0.037 -0.87291,0.079 -1.11291,0.1054 -0.10554,0.011 -0.32572,0.033 -0.4893,0.048 -0.45796,0.042 -0.66493,0.065 -0.86346,0.097 -0.10026,0.016 -0.25075,0.038 -0.33442,0.048 -0.13167,0.016 -0.22855,0.032 -0.51945,0.084 -0.0317,0.01 -0.1914,0.028 -0.35498,0.049 -0.16358,0.021 -0.40535,0.056 -0.53727,0.077 -0.13192,0.021 -0.31324,0.046 -0.40295,0.057 -0.24421,0.029 -0.38237,0.051 -0.70996,0.1162 -0.45189,0.09 -0.48696,0.095 -0.7963,0.1246 -0.60386,0.058 -1.09664,0.1185 -1.62139,0.2005 -0.26388,0.041 -0.65405,0.088 -0.89225,0.1073 -0.0844,0.01 -0.23553,0.025 -0.33579,0.04 -0.10026,0.015 -0.27727,0.04 -0.39336,0.055 -0.28465,0.037 -0.60629,0.081 -0.75793,0.1035 -0.90109,0.1336 -0.89938,0.1334 -1.1225,0.1556 -0.30937,0.031 -0.71639,0.084 -1.08892,0.1434 -0.80982,0.1281 -1.18352,0.1813 -1.62619,0.2315 -0.14247,0.016 -0.3238,0.037 -0.40295,0.047 -0.0791,0.01 -0.20867,0.023 -0.28782,0.03 -0.0792,0.01 -0.25185,0.025 -0.38376,0.04 -0.13192,0.015 -0.36074,0.04 -0.50849,0.056 -0.41847,0.044 -0.75335,0.082 -0.92103,0.1051 -0.0844,0.012 -0.2528,0.033 -0.37416,0.049 -0.12137,0.015 -0.36314,0.049 -0.53727,0.076 -0.17413,0.027 -0.40295,0.061 -0.50848,0.077 -0.10554,0.016 -0.24801,0.037 -0.31661,0.048 -0.0686,0.011 -0.21538,0.032 -0.3262,0.048 -0.11081,0.016 -0.26623,0.04 -0.34538,0.055 -0.13212,0.025 -0.75062,0.1328 -0.89704,0.1569 l -0.0624,0.01 0,-0.2373 z"
       id="path3393"
       inkscape:connector-curvature="0" />
    <path
       style="fill:#000000;fill-opacity:0.99608154"
       d="m 199.96972,1042.7166 c -0.32898,-0.2505 -0.53662,-0.5289 -0.70615,-0.9469 -0.22911,-0.5648 -0.23742,-0.6967 -0.18099,-2.8714 0.0325,-1.2537 0.10162,-2.5322 0.15353,-2.8411 0.054,-0.3214 0.0534,-0.7043 -0.001,-0.8955 -0.0914,-0.3186 -0.0812,-0.3338 0.2223,-0.3338 l 0.31806,0 -0.004,0.8412 c -0.002,0.4626 -0.0481,1.9293 -0.10182,3.2591 -0.10595,2.6214 -0.0866,2.7604 0.4775,3.4367 0.3009,0.3607 0.0847,0.3921 2.07437,-0.3019 1.25422,-0.4375 2.76602,-0.7465 6.72602,-1.3747 1.55218,-0.2463 3.3106,-0.542 3.90759,-0.6572 0.94753,-0.1829 5.56004,-0.9085 11.34286,-1.7845 0.98504,-0.1492 3.30517,-0.4692 5.15585,-0.7111 1.85068,-0.2419 4.63484,-0.606 6.18702,-0.8091 1.55218,-0.2031 5.06901,-0.6835 7.81518,-1.0675 6.09928,-0.8528 9.49679,-1.2691 13.89365,-1.7025 1.85068,-0.1824 4.14639,-0.4264 5.10158,-0.5421 3.23607,-0.3923 6.82224,-0.7594 11.65318,-1.1931 2.64819,-0.2377 5.11486,-0.4794 5.48148,-0.5372 0.8893,-0.1401 5.93288,-0.5125 9.56721,-0.7065 1.61188,-0.086 4.61584,-0.3021 6.67546,-0.4802 5.08499,-0.4398 9.38165,-0.7404 13.29666,-0.9304 3.92429,-0.1904 9.60691,-0.5136 11.50568,-0.6544 3.50594,-0.2599 7.98481,-0.4901 15.84745,-0.8144 1.37309,-0.057 2.83843,-0.1298 3.25633,-0.1627 0.41789,-0.033 2.07862,-0.133 3.6905,-0.2225 5.51069,-0.306 6.62178,-0.3715 7.35387,-0.4339 0.5962,-0.051 0.73267,-0.033 0.73267,0.095 0,0.2082 -0.34963,0.264 -2.49652,0.3985 -0.98503,0.062 -2.13289,0.1594 -2.55078,0.2171 -0.8551,0.118 -4.45433,0.2897 -9.06344,0.4323 -1.70143,0.053 -3.6308,0.1483 -4.2875,0.2126 -0.65669,0.064 -2.26857,0.1643 -3.58195,0.2224 -1.31339,0.058 -3.24276,0.1549 -4.2875,0.2151 -3.04777,0.1755 -7.74415,0.4205 -9.38907,0.4898 -0.83579,0.035 -2.0417,0.1116 -2.6798,0.1699 -0.63811,0.058 -2.77986,0.1774 -4.75947,0.2646 -3.8831,0.1711 -7.09651,0.4025 -9.16799,0.6603 -1.42161,0.1769 -3.01497,0.2998 -6.18701,0.4772 -4.34329,0.2428 -5.92436,0.3555 -9.11771,0.6495 -0.6567,0.06 -1.87782,0.1589 -2.71361,0.2186 -2.56869,0.1837 -4.46126,0.3482 -6.83828,0.5943 -1.62072,0.1678 -2.30072,0.2018 -2.35312,0.1176 -0.0764,-0.1228 -2.00492,0.01 -3.8339,0.256 -0.47759,0.065 -1.52776,0.1925 -2.3337,0.2826 -0.80594,0.09 -2.05572,0.235 -2.7773,0.3218 -0.72157,0.087 -1.77174,0.1889 -2.3337,0.2268 -1.38904,0.094 -5.95867,0.5558 -7.42585,0.7509 -0.65669,0.087 -2.17088,0.2835 -3.36487,0.4362 -1.19399,0.1526 -2.43953,0.3244 -2.76788,0.3818 -0.32834,0.057 -1.4762,0.2052 -2.55078,0.3287 -1.07459,0.1235 -2.63763,0.3408 -3.47342,0.4831 -0.83579,0.1422 -1.81268,0.2889 -2.17088,0.326 -2.20835,0.2288 -3.48666,0.4211 -3.58196,0.539 -0.12313,0.1522 -0.16149,0.1586 -3.63623,0.6044 -1.40293,0.18 -3.21019,0.4215 -4.01613,0.5368 -0.80594,0.1152 -2.00264,0.2845 -2.65933,0.3762 -0.6567,0.092 -1.95109,0.2888 -2.87642,0.438 -0.92534,0.1493 -2.41511,0.3741 -3.3106,0.4996 -0.89549,0.1255 -2.11661,0.3274 -2.71361,0.4486 -1.11713,0.227 -1.35981,0.2674 -3.85331,0.6422 -0.80594,0.1211 -1.9538,0.3102 -2.55079,0.4202 -0.59699,0.11 -1.59831,0.2564 -2.22516,0.3254 -2.26854,0.2496 -4.17956,0.6874 -6.16644,1.4125 l -0.87954,0.321 -0.46601,-0.3549 z"
       id="path3395"
       inkscape:connector-curvature="0" />
    <path
       style="fill:#000000;fill-opacity:0.99608154"
       d="m 169.82102,1037.4977 c -0.0844,-0.014 -0.28734,-0.038 -0.45091,-0.054 -0.16358,-0.016 -0.43557,-0.052 -0.60443,-0.079 -0.55746,-0.09 -0.76593,-0.1208 -0.90184,-0.1339 -0.0739,-0.01 -0.20771,-0.026 -0.29741,-0.041 -0.19088,-0.033 -0.56343,-0.082 -1.1417,-0.1511 -0.42582,-0.051 -0.65154,-0.082 -0.7963,-0.1115 -0.3727,-0.075 -1.34161,-0.2053 -1.94759,-0.2617 -0.47022,-0.044 -0.83715,-0.078 -1.05534,-0.097 -0.65925,-0.059 -0.63972,-0.056 -1.19926,-0.1638 -0.33607,-0.065 -0.45734,-0.089 -0.74901,-0.1491 -0.21997,-0.045 -0.46207,-0.081 -0.87238,-0.1282 -0.0844,-0.01 -0.23122,-0.026 -0.3262,-0.037 -0.095,-0.011 -0.27199,-0.033 -0.39336,-0.049 -0.12136,-0.016 -0.28542,-0.038 -0.36457,-0.048 -0.0791,-0.01 -0.29502,-0.04 -0.4797,-0.066 -0.34844,-0.049 -0.80339,-0.103 -1.39114,-0.1649 -0.37183,-0.039 -0.50077,-0.055 -0.69077,-0.086 -0.17998,-0.029 -0.41012,-0.064 -0.70036,-0.1066 -0.0686,-0.01 -0.24561,-0.031 -0.39336,-0.046 -0.14775,-0.015 -0.33339,-0.037 -0.41254,-0.048 -0.0792,-0.011 -0.20867,-0.029 -0.28782,-0.039 -1.1891,-0.1593 -1.49655,-0.2016 -1.76531,-0.2425 -0.32864,-0.05 -0.58359,-0.087 -0.91143,-0.1314 -0.10553,-0.014 -0.29981,-0.044 -0.43173,-0.066 -0.38041,-0.063 -0.78611,-0.1169 -1.16088,-0.1554 -0.4561,-0.047 -0.77032,-0.086 -2.4081,-0.2971 -3.21566,-0.4155 -5.88828,-0.7463 -8.98003,-1.1118 -1.95857,-0.2314 -5.06674,-0.5864 -5.13541,-0.5864 -0.0202,0 -0.0262,-0.04 -0.0262,-0.1747 0,-0.1716 7.9e-4,-0.1746 0.0432,-0.1643 0.0238,0.01 0.12089,0.024 0.21587,0.041 0.18475,0.032 0.2321,0.043 0.44133,0.1029 0.24718,0.07 0.35711,0.087 0.9594,0.1482 0.1583,0.016 0.30122,0.033 0.3176,0.038 0.0164,0.01 0.18044,0.018 0.36458,0.029 0.87693,0.052 1.35642,0.088 1.7643,0.1335 0.10026,0.011 0.29454,0.029 0.43173,0.039 0.1372,0.01 0.29694,0.027 0.35498,0.037 0.058,0.01 0.23123,0.028 0.38486,0.039 0.37473,0.027 1.01789,0.1108 1.53395,0.1992 0.0897,0.015 0.21922,0.034 0.28782,0.04 0.0686,0.01 0.22834,0.033 0.35498,0.058 0.30639,0.061 0.66847,0.1193 0.89225,0.1434 0.10025,0.011 0.3118,0.041 0.4701,0.066 0.15831,0.026 0.38281,0.052 0.49889,0.057 0.11609,0.01 0.34059,0.019 0.49889,0.029 0.15831,0.01 0.43618,0.027 0.6175,0.038 0.18132,0.011 0.46195,0.037 0.62361,0.057 0.5249,0.066 1.26964,0.1302 1.8098,0.1557 0.17941,0.01 0.46867,0.029 0.6428,0.046 0.38256,0.037 0.63225,0.059 0.98818,0.087 0.59269,0.046 0.75834,0.061 0.98819,0.088 0.13192,0.015 0.39528,0.046 0.58524,0.068 0.69162,0.08 1.17894,0.1526 1.34316,0.1994 0.12328,0.035 0.37821,0.1185 0.44133,0.1443 0.0571,0.023 0.2776,0.055 0.53726,0.077 0.32822,0.028 0.74659,0.073 0.89225,0.096 0.0686,0.011 0.21539,0.029 0.3262,0.039 0.11081,0.01 0.23169,0.028 0.26863,0.038 0.0369,0.011 0.21395,0.028 0.39336,0.038 0.71276,0.041 1.58481,0.1053 1.78449,0.1321 0.49581,0.067 0.5926,0.081 0.60561,0.089 0.008,0 0.27657,0.039 0.59674,0.076 0.97001,0.1117 1.00252,0.1172 1.6407,0.2798 0.3043,0.077 0.55126,0.1162 1.03294,0.1617 0.1583,0.015 0.37849,0.036 0.4893,0.047 0.11081,0.011 0.30077,0.029 0.42213,0.041 0.19387,0.018 0.47037,0.052 0.93063,0.1141 0.0739,0.01 0.21202,0.032 0.30701,0.048 0.095,0.017 0.26335,0.042 0.37416,0.057 0.11081,0.015 0.29214,0.04 0.40295,0.055 0.11081,0.016 0.31804,0.039 0.46052,0.05 0.14247,0.012 0.36265,0.035 0.48929,0.051 0.12664,0.016 0.32092,0.036 0.43173,0.044 0.11082,0.01 0.30509,0.037 0.43174,0.065 0.54201,0.1203 0.67425,0.1507 0.71955,0.1656 0.0264,0.01 0.0998,0.03 0.1631,0.048 0.0633,0.018 0.13671,0.04 0.1631,0.049 0.11058,0.039 0.55509,0.098 0.93597,0.1243 0.41696,0.028 0.89048,0.071 1.16512,0.105 0.0844,0.01 0.28302,0.027 0.44133,0.038 0.1583,0.01 0.38712,0.028 0.50848,0.039 0.12137,0.011 0.30701,0.029 0.41254,0.038 0.10554,0.01 0.25665,0.023 0.3358,0.029 0.25426,0.02 0.67649,0.068 0.84199,0.097 0.0885,0.015 0.16832,0.027 0.17749,0.027 0.009,0 0.0167,0.1296 0.0167,0.2879 l 0,0.2878 -0.0624,0 c -0.0343,-10e-4 -0.13144,-0.014 -0.21587,-0.028 z"
       id="path3397"
       inkscape:connector-curvature="0" />
    <path
       style="fill:#000000;fill-opacity:0.99608154"
       d="m 162.52103,1018.5614 c -0.14247,-0.061 -0.29789,-0.1285 -0.34538,-0.1506 -0.29813,-0.139 -0.5079,-0.2065 -0.85387,-0.2748 -0.33935,-0.067 -1.73105,-0.5142 -2.62966,-0.845 -1.30219,-0.4793 -1.75194,-0.5927 -3.76957,-0.95 -0.71993,-0.1274 -2.08469,-0.4483 -2.78227,-0.6542 -1.0073,-0.2971 -1.72015,-0.484 -2.17785,-0.5709 -0.36031,-0.068 -0.9163,-0.2047 -1.25682,-0.3081 -0.41324,-0.1255 -0.82836,-0.2287 -1.27788,-0.3176 -0.42835,-0.085 -1.09392,-0.2425 -1.8897,-0.4481 -0.99196,-0.2563 -1.57577,-0.3501 -2.8191,-0.4529 -1.07582,-0.089 -1.48502,-0.1682 -2.26419,-0.4377 -0.68323,-0.2364 -1.10261,-0.345 -1.71968,-0.4453 -0.44802,-0.073 -0.75079,-0.1267 -1.18078,-0.2101 -0.4833,-0.094 -1.12698,-0.1612 -1.74306,-0.1827 -0.73727,-0.026 -1.32726,-0.084 -2.34094,-0.2301 -2.02058,-0.2917 -3.93662,-0.5215 -5.83318,-0.6995 -0.11081,-0.01 -0.43461,-0.041 -0.71955,-0.067 -0.70979,-0.066 -0.68118,-0.061 -0.68118,-0.115 0,-0.041 0.007,-0.044 0.0815,-0.037 0.0448,0 0.33196,0.02 0.63801,0.037 0.75267,0.04 2.34658,0.1332 3.27156,0.1917 13.36411,0.8451 20.74693,1.9367 26.34619,3.8955 1.76652,0.618 3.46289,1.3403 5.52042,2.3507 l 0.69556,0.3416 0,0.3468 c 0,0.1908 -0.002,0.3464 -0.005,0.3457 -0.003,-6e-4 -0.12137,-0.051 -0.26384,-0.1115 z"
       id="path3399"
       inkscape:connector-curvature="0" />
    <path
       style="fill:#000000;fill-opacity:0.99608154"
       d="m 192.84911,1041.599 c -0.006,-0.01 -0.0518,-0.017 -0.10188,-0.025 -0.0501,-0.01 -0.11553,-0.019 -0.14538,-0.024 -0.0299,-0.01 -0.0909,-0.016 -0.13568,-0.024 -0.76867,-0.1316 -1.23681,-0.2157 -1.54676,-0.2778 -0.0448,-0.01 -0.10583,-0.02 -0.13568,-0.024 -0.0299,0 -0.0604,-0.011 -0.0678,-0.014 -0.007,0 -0.0258,-0.01 -0.0407,-0.011 -0.0149,0 -0.0577,-0.013 -0.095,-0.023 -0.0373,-0.01 -0.10502,-0.022 -0.15047,-0.026 -0.0455,-0.01 -0.096,-0.016 -0.1124,-0.027 -0.0294,-0.018 -0.0681,-0.024 -0.36126,-0.058 -0.0821,-0.01 -0.22251,-0.031 -0.31206,-0.046 -0.17189,-0.031 -0.2754,-0.044 -0.47488,-0.061 -0.0672,-0.01 -0.14043,-0.017 -0.16282,-0.024 -0.0224,-0.01 -0.059,-0.014 -0.0814,-0.014 -0.24631,0 -1.64441,-0.188 -1.88595,-0.2562 -0.0597,-0.017 -0.12686,-0.034 -0.14925,-0.038 -0.0224,0 -0.1799,-0.044 -0.35003,-0.088 -0.17013,-0.044 -0.38383,-0.089 -0.47488,-0.099 -0.0911,-0.01 -0.17205,-0.022 -0.17999,-0.027 -0.0169,-0.01 -1.0819,-0.2006 -1.57302,-0.2812 -0.70292,-0.1153 -0.88367,-0.1446 -0.94379,-0.1528 -0.0776,-0.011 -0.31995,-0.067 -0.42292,-0.098 -0.0427,-0.013 -0.0868,-0.018 -0.0979,-0.011 -0.0111,0.01 -0.0616,4e-4 -0.11222,-0.014 -0.11569,-0.034 -0.22609,-0.054 -0.35755,-0.067 -0.0565,0 -0.16638,-0.023 -0.24423,-0.039 -0.16015,-0.033 -0.3143,-0.056 -0.4536,-0.069 -0.23924,-0.022 -0.58726,-0.049 -0.62413,-0.048 -0.13417,0 -1.34033,-0.1938 -2.02163,-0.3286 -0.0149,0 -0.0398,-0.013 -0.0553,-0.023 -0.0155,-0.01 -0.11321,-0.026 -0.21709,-0.036 -0.10388,-0.01 -0.49416,-0.071 -0.86728,-0.1366 -0.37312,-0.065 -2.16206,-0.3656 -3.97543,-0.6676 -1.81336,-0.3021 -3.30212,-0.5529 -3.30833,-0.5573 -0.0393,-0.028 0.0363,-0.035 0.12327,-0.011 0.0582,0.016 0.11376,0.018 0.12694,0 0.0277,-0.028 0.12743,-0.01 0.12743,0.027 0,0.013 0.0326,0.011 0.0725,0 0.0399,-0.015 0.0918,-0.019 0.11533,-0.01 0.0235,0.01 0.10997,0.022 0.19205,0.026 0.0821,0 0.2042,0.016 0.27136,0.025 0.19841,0.029 0.33363,0.043 0.42529,0.044 0.0516,6e-4 0.0925,0.018 0.10208,0.043 0.0122,0.032 0.0247,0.034 0.0531,0.011 0.0266,-0.022 0.0582,-0.023 0.11181,0 0.0411,0.016 0.0958,0.022 0.12159,0.014 0.0643,-0.02 0.13991,0.012 0.11646,0.05 -0.0105,0.017 0.0149,0.01 0.0566,-0.019 0.0775,-0.051 0.17116,-0.043 0.13754,0.012 -0.0218,0.035 0.0895,0.01 0.14382,-0.036 0.0233,-0.019 0.0383,-0.015 0.0489,0.013 0.009,0.023 0.0476,0.039 0.0926,0.037 0.0426,0 0.0717,-0.012 0.0649,-0.023 -0.007,-0.011 -2.9e-4,-0.02 0.0146,-0.02 0.0149,0 0.035,0.013 0.0446,0.028 0.01,0.015 0.0408,0.021 0.0694,0.012 0.0311,-0.01 0.052,0 0.052,0.015 0,0.017 0.0183,0.025 0.0407,0.016 0.0519,-0.02 0.12653,0.01 0.10683,0.04 -0.008,0.013 0.018,0.012 0.0582,0 0.0402,-0.015 0.0796,-0.021 0.0875,-0.013 0.008,0.01 0.005,0.014 -0.007,0.014 -0.0118,0 -0.006,0.019 0.0129,0.041 0.0308,0.037 0.0391,0.037 0.0803,-2e-4 0.0415,-0.038 0.0506,-0.036 0.0936,0.011 0.0274,0.03 0.0657,0.046 0.0903,0.036 0.028,-0.011 0.0359,-0.01 0.0232,0.015 -0.0127,0.02 -0.005,0.026 0.0227,0.015 0.0232,-0.01 0.0421,0 0.0421,0.015 0,0.017 0.0112,0.025 0.0248,0.016 0.0136,-0.01 0.0304,0 0.0373,0.019 0.01,0.027 0.0196,0.027 0.0486,-10e-5 0.0294,-0.028 0.0477,-0.02 0.0974,0.041 0.0484,0.059 0.0614,0.065 0.0622,0.027 0.001,-0.061 0.0252,-0.059 0.10952,0.01 0.0827,0.065 0.102,0.067 0.11334,0.012 0.007,-0.036 0.0186,-0.033 0.0698,0.015 0.048,0.045 0.0722,0.051 0.11355,0.029 0.0622,-0.033 0.0915,-0.036 0.0736,-0.01 -0.007,0.011 0.0166,0.035 0.0527,0.052 0.0529,0.025 0.0655,0.024 0.0655,-0.01 0,-0.053 0.0338,-0.048 0.10188,0.016 0.0514,0.048 0.0623,0.049 0.0986,0.013 0.0363,-0.036 0.0468,-0.034 0.095,0.017 0.0501,0.054 0.0576,0.055 0.0984,0.014 0.0545,-0.054 0.0535,-0.054 0.14094,0 0.0523,0.034 0.0746,0.038 0.0827,0.014 0.008,-0.024 0.0254,-0.025 0.0631,-0.01 0.0348,0.019 0.0521,0.019 0.0521,5e-4 0,-0.018 0.0232,-0.019 0.0678,0 0.0373,0.014 0.0678,0.02 0.0678,0.012 0,-0.01 0.0244,-8e-4 0.0543,0.015 0.0426,0.023 0.0543,0.021 0.0543,-0.01 0,-0.032 0.0169,-0.034 0.094,-0.01 0.0517,0.016 0.0876,0.039 0.0798,0.052 -0.0226,0.037 0.009,0.026 0.052,-0.017 0.0306,-0.031 0.0604,-0.034 0.13082,-0.014 0.0597,0.017 0.0942,0.017 0.10014,-8e-4 0.006,-0.017 0.0261,-0.018 0.0575,-10e-4 0.0267,0.014 0.0562,0.018 0.0657,0.01 0.009,-0.01 0.0171,0 0.0171,0.014 0,0.022 0.02,0.023 0.0678,0.01 0.0478,-0.018 0.0678,-0.017 0.0678,0 0,0.017 0.008,0.023 0.0171,0.014 0.009,-0.01 0.04,0 0.0678,0.01 0.0348,0.019 0.0507,0.018 0.0507,0 0,-0.021 0.0157,-0.021 0.0543,0 0.0299,0.016 0.0543,0.022 0.0543,0.014 0,-0.01 0.0234,0 0.0521,0.012 0.0373,0.02 0.0551,0.019 0.0627,0 0.007,-0.02 0.0247,-0.023 0.0492,-0.01 0.0497,0.031 0.13328,0.037 0.14929,0.011 0.007,-0.011 0.0419,-0.01 0.0779,0.011 0.036,0.017 0.0598,0.04 0.0528,0.051 -0.007,0.011 0.006,0.013 0.0294,0 0.0232,-0.01 0.0425,-0.03 0.043,-0.047 4.8e-4,-0.017 0.0186,-0.01 0.0403,0.021 0.0336,0.044 0.0496,0.047 0.10896,0.02 0.0833,-0.038 0.10232,-0.04 0.0825,-0.01 -0.008,0.013 0.003,0.039 0.0252,0.057 0.0322,0.027 0.0432,0.025 0.056,-0.01 0.014,-0.037 0.025,-0.036 0.0958,0 0.0641,0.036 0.0843,0.038 0.10217,0.01 0.018,-0.029 0.0281,-0.028 0.0535,0 0.0172,0.021 0.0675,0.035 0.11173,0.033 0.0497,0 0.0864,0.011 0.096,0.036 0.0129,0.034 0.022,0.032 0.0546,-0.011 0.0215,-0.028 0.0395,-0.037 0.04,-0.019 0.001,0.054 0.10652,0.098 0.14872,0.063 0.0278,-0.023 0.0402,-0.013 0.0555,0.046 0.0169,0.065 0.0236,0.069 0.0485,0.031 0.0265,-0.041 0.0365,-0.04 0.12095,0.01 0.0506,0.028 0.104,0.044 0.11861,0.035 0.0377,-0.023 0.10884,0.042 0.086,0.08 -0.0105,0.017 0.0141,0.01 0.0546,-0.017 0.0405,-0.026 0.075,-0.039 0.0767,-0.027 0.002,0.012 0.006,0.033 0.009,0.048 0.003,0.015 0.009,0.039 0.0113,0.054 0.003,0.015 0.0214,0.01 0.0414,-0.021 0.0382,-0.05 0.12401,-0.039 0.12556,0.017 4.7e-4,0.017 0.0191,0.01 0.0414,-0.023 0.0349,-0.046 0.0483,-0.049 0.0962,-0.019 0.0416,0.026 0.0651,0.027 0.0926,0 0.0265,-0.022 0.0521,-0.022 0.0912,-10e-4 0.0299,0.016 0.0607,0.019 0.0684,0.01 0.0234,-0.038 0.56087,-0.018 0.58533,0.021 0.015,0.024 0.0267,0.026 0.0398,0 0.027,-0.044 0.12302,-0.037 0.14104,0.01 0.0111,0.029 0.0287,0.033 0.0627,0.015 0.0536,-0.029 0.16443,-0.027 0.16443,0 0,0.011 0.0458,0.013 0.10176,0.01 0.0762,-0.011 0.0915,-0.01 0.0611,0.014 -0.0302,0.021 -0.0145,0.024 0.0611,0.012 0.0624,-0.01 0.10176,-0.01 0.10176,0.012 0,0.016 0.0421,0.024 0.095,0.019 0.0522,0 0.095,0 0.095,0.018 0,0.015 0.012,0.019 0.0266,0.01 0.0146,-0.01 0.0527,0 0.0847,0.015 0.0404,0.022 0.0525,0.022 0.0397,0 -0.0102,-0.016 -0.007,-0.03 0.007,-0.03 0.0142,0 0.0339,0.021 0.0438,0.047 0.0146,0.038 0.0222,0.04 0.0411,0.01 0.0191,-0.031 0.0376,-0.032 0.10545,0 0.0453,0.019 0.0944,0.027 0.10918,0.017 0.0148,-0.01 0.0342,-0.01 0.0432,0.01 0.009,0.014 0.0347,0.019 0.0572,0.011 0.0225,-0.01 0.0648,0.01 0.0941,0.033 0.0305,0.028 0.0533,0.035 0.0533,0.017 0,-0.048 0.0665,-0.037 0.14354,0.023 0.0598,0.047 0.0707,0.049 0.0783,0.012 0.007,-0.036 0.0184,-0.034 0.0702,0.015 0.0338,0.032 0.0722,0.051 0.0854,0.043 0.0132,-0.01 0.0573,0 0.098,0.024 0.0407,0.021 0.0928,0.031 0.11582,0.022 0.0297,-0.011 0.0353,-0.01 0.0196,0.02 -0.0151,0.024 -0.0118,0.03 0.0103,0.016 0.0179,-0.011 0.0503,0 0.072,0.013 0.0217,0.018 0.0395,0.023 0.0395,0.012 0,-0.012 0.0231,-2e-4 0.0514,0.025 0.0401,0.036 0.0547,0.039 0.0661,0.011 0.0116,-0.028 0.0221,-0.027 0.0503,0.01 0.0196,0.023 0.0662,0.042 0.10347,0.043 0.0373,9e-4 0.11974,0.01 0.18317,0.018 0.0705,0.01 0.11532,0.01 0.11532,-0.011 0,-0.016 0.025,-0.019 0.0611,-0.01 0.0336,0.011 0.0878,0.023 0.12056,0.026 0.0327,0 0.0724,0.015 0.0882,0.024 0.0158,0.01 0.0287,0 0.0287,-0.013 0,-0.021 0.0289,-0.024 0.0882,-0.011 0.13286,0.03 0.19347,0.031 0.22778,0.01 0.0186,-0.014 0.0483,-0.01 0.074,0.02 0.0328,0.033 0.0555,0.036 0.0962,0.014 0.0308,-0.017 0.0596,-0.018 0.0684,0 0.008,0.014 0.0579,0.026 0.11019,0.028 0.17477,0.01 0.18986,0.01 0.22395,0.036 0.0222,0.017 0.0339,0.017 0.0339,0 0,-0.015 0.0304,-0.021 0.0675,-0.014 0.0371,0.01 0.0608,0.024 0.0527,0.037 -0.0236,0.038 0.008,0.028 0.053,-0.017 0.037,-0.037 0.0444,-0.036 0.0707,0.014 0.0272,0.051 0.0341,0.052 0.093,0.013 0.0572,-0.037 0.0652,-0.037 0.0796,0 0.0184,0.048 0.0991,0.057 0.0991,0.011 0,-0.022 0.0109,-0.021 0.0384,10e-4 0.0211,0.018 0.10356,0.036 0.18317,0.041 0.0796,0 0.16626,0.018 0.19257,0.029 0.0271,0.011 0.0653,0.01 0.0882,-0.014 0.0391,-0.033 0.0433,-0.03 0.0505,0.027 0.004,0.034 0.0175,0.036 0.0784,0.012 0.0263,-0.01 0.0635,0 0.0827,0.011 0.0192,0.016 0.0709,0.025 0.11498,0.02 0.0441,-0.01 0.0884,0 0.0984,0.02 0.0126,0.02 0.0307,0.018 0.0579,0 0.0315,-0.026 0.0427,-0.025 0.0548,0.01 0.01,0.025 0.0435,0.037 0.0914,0.031 0.0419,-0.01 0.0844,0 0.0944,0.02 0.0124,0.02 0.032,0.017 0.061,-0.01 0.031,-0.026 0.0428,-0.027 0.0428,0 0,0.018 0.0122,0.024 0.0271,0.015 0.0149,-0.01 0.0271,0 0.0271,0.013 0,0.021 0.0155,0.021 0.0516,0 0.0392,-0.021 0.0553,-0.018 0.0672,0.013 0.011,0.029 0.0364,0.036 0.0844,0.024 0.0573,-0.014 0.0658,-0.01 0.0508,0.03 -0.0155,0.04 -0.0101,0.043 0.0386,0.017 0.0754,-0.04 0.0873,-0.038 0.0873,0.015 0,0.04 0.005,0.04 0.0543,0 0.0308,-0.028 0.0543,-0.036 0.0543,-0.018 0,0.017 0.0153,0.028 0.0339,0.024 0.0187,0 0.0303,0.01 0.0258,0.031 -0.006,0.029 0.008,0.027 0.0634,-0.01 0.0393,-0.026 0.0793,-0.039 0.0887,-0.03 0.009,0.01 0.003,0.026 -0.0133,0.036 -0.0168,0.01 0.0432,0.021 0.13325,0.023 0.0901,0 0.17132,0.014 0.18055,0.027 0.009,0.013 0.0534,0.024 0.0982,0.025 0.0448,10e-4 0.16078,0.017 0.25779,0.035 0.097,0.018 0.21835,0.039 0.26965,0.046 0.0513,0.01 0.10876,0.026 0.12771,0.042 0.0189,0.016 0.0477,0.02 0.064,0.01 0.0162,-0.01 0.058,4e-4 0.0927,0.023 0.0348,0.023 0.0875,0.035 0.11718,0.027 0.0358,-0.01 0.0603,0 0.0727,0.035 0.0159,0.041 0.0226,0.043 0.0433,0.01 0.0213,-0.034 0.0349,-0.034 0.10271,0.01 0.0593,0.035 0.0858,0.039 0.10969,0.015 0.0239,-0.024 0.0315,-0.023 0.0315,0 0,0.021 0.0194,0.028 0.0514,0.018 0.0286,-0.01 0.0686,8e-4 0.0901,0.022 0.0266,0.027 0.0528,0.031 0.0839,0.013 0.0285,-0.016 0.0641,-0.015 0.0963,0 0.0281,0.015 0.0585,0.02 0.0675,0.011 0.009,-0.01 0.0351,-10e-4 0.0578,0.018 0.0283,0.024 0.0414,0.025 0.0414,0 0,-0.017 0.0131,-0.031 0.0291,-0.031 0.0439,0 0.10671,0.072 0.085,0.097 -0.0105,0.012 0.0145,0 0.0556,-0.024 0.0434,-0.027 0.0746,-0.034 0.0746,-0.017 0,0.018 0.0229,0.022 0.0577,0.011 0.0412,-0.013 0.0519,-0.01 0.0374,0.014 -0.0156,0.025 -0.007,0.026 0.0373,0 0.0367,-0.02 0.0575,-0.021 0.0575,0 0,0.018 0.0237,0.017 0.067,0 0.0503,-0.023 0.0766,-0.023 0.10551,10e-4 0.0295,0.024 0.0548,0.024 0.10854,0 0.0544,-0.025 0.0791,-0.024 0.1104,0 0.0222,0.018 0.0523,0.026 0.0669,0.017 0.0339,-0.021 0.3115,0.02 0.84416,0.1245 0.23133,0.045 0.43552,0.085 0.45374,0.088 0.0182,0 0.0408,0.013 0.0501,0.023 0.009,0.01 0.0329,0.011 0.0523,0 0.0194,-0.01 0.0435,-3e-4 0.0535,0.016 0.01,0.016 0.0309,0.022 0.0465,0.012 0.0156,-0.01 0.0389,-6e-4 0.052,0.02 0.0185,0.029 0.0238,0.03 0.0241,0 3.3e-4,-0.028 0.0129,-0.027 0.0578,0 0.0316,0.022 0.0742,0.034 0.0947,0.026 0.0206,-0.01 0.0448,0 0.054,0.029 0.009,0.024 0.0273,0.037 0.0404,0.029 0.0131,-0.01 0.0465,0 0.0744,0.013 0.0351,0.019 0.0603,0.018 0.082,0 0.0297,-0.03 0.0449,-2e-4 0.0348,0.067 -0.002,0.011 0.0262,0.01 0.0619,-0.01 0.0545,-0.021 0.0675,-0.015 0.0816,0.035 0.0157,0.056 0.0185,0.056 0.0459,0.01 0.0282,-0.048 0.031,-0.048 0.0849,0 0.0419,0.037 0.0588,0.041 0.068,0.014 0.01,-0.028 0.0205,-0.028 0.0526,0 0.0222,0.018 0.0607,0.036 0.0856,0.04 0.0249,0 0.0941,0.014 0.15377,0.024 0.0597,0.01 0.15129,0.022 0.20352,0.028 0.0522,0 0.095,0.012 0.095,0.015 0,0 0.0305,0.01 0.0678,0.01 0.0373,0 0.0818,0.013 0.0989,0.024 0.0173,0.011 0.0386,-3e-4 0.0481,-0.025 0.009,-0.024 0.0245,-0.037 0.0336,-0.028 0.009,0.01 0.0471,-0.01 0.0844,-0.037 0.0373,-0.029 0.0883,-0.053 0.11328,-0.053 0.0547,0 0.4368,-0.1375 0.61568,-0.2216 0.0815,-0.038 0.25069,-0.1806 0.46271,-0.3891 l 0.33422,-0.3287 -3.5e-4,-0.4054 c -3.1e-4,-0.3743 -0.0327,-0.8505 -0.11165,-1.6401 -0.0172,-0.1717 -0.0336,-0.6601 -0.0366,-1.0855 -0.006,-0.7886 -0.0391,-1.5257 -0.0984,-2.1576 l -0.0331,-0.3531 0.10161,-0.305 c 0.0559,-0.1677 0.10965,-0.3049 0.11947,-0.3049 0.0249,0 0.69488,0.1431 0.70499,0.1506 0.005,0 -0.0351,0.053 -0.0881,0.1109 -0.053,0.058 -0.0964,0.1123 -0.0964,0.1214 -8e-5,0.01 -0.037,0.063 -0.082,0.1197 -0.045,0.057 -0.0761,0.1224 -0.069,0.1462 0.007,0.024 0.0328,0.263 0.0573,0.5316 0.0244,0.2687 0.0698,0.6045 0.10074,0.7462 0.0496,0.227 0.0572,0.3665 0.0641,1.1669 0.007,0.7764 0.018,0.9942 0.078,1.4925 0.0386,0.3209 0.0815,0.7421 0.0952,0.9362 0.0137,0.194 0.0329,0.4331 0.0426,0.5313 l 0.0176,0.1786 -0.20553,0.1987 c -0.11304,0.1093 -0.23348,0.2191 -0.26763,0.244 -0.0341,0.025 -0.16789,0.1481 -0.29719,0.2739 -0.30875,0.3005 -0.5883,0.4505 -1.02673,0.5512 -0.17164,0.039 -0.3567,0.084 -0.41125,0.099 -0.0937,0.026 -0.33571,0.03 -0.35909,0.01 z"
       id="path3401"
       inkscape:connector-curvature="0" />
    <path
       style="fill:#000000;fill-opacity:0.99608154"
       d="m 199.60909,1043.2352 c -0.10237,-0.016 -0.21249,-0.1394 -0.44071,-0.4939 -0.16733,-0.2598 -0.38409,-0.6312 -0.4817,-0.8252 -0.0976,-0.1941 -0.23222,-0.4261 -0.29914,-0.5156 -0.0669,-0.09 -0.22632,-0.3899 -0.35421,-0.6674 l -0.23252,-0.5045 0.12707,-0.6623 c 0.10241,-0.5337 0.13124,-0.8942 0.14854,-1.8563 l 0.0214,-1.194 0.18592,-0.4885 0.18592,-0.4884 -0.13545,-0.3987 c -0.0745,-0.2192 -0.13545,-0.4235 -0.13545,-0.454 0,-0.074 0.61159,0 0.66152,0.083 0.0206,0.033 0.074,0.2221 0.11865,0.42 0.0753,0.3333 0.0735,0.3951 -0.0238,0.8406 -0.0871,0.3987 -0.10507,0.6965 -0.10507,1.7436 0,0.8521 -0.0277,1.4614 -0.0853,1.8739 -0.0992,0.7114 -0.0436,1.3238 0.16649,1.8347 0.0675,0.1642 0.14132,0.3596 0.164,0.4342 0.065,0.214 0.37518,0.6714 0.64898,0.9572 0.22904,0.239 0.24253,0.2676 0.15631,0.3306 -0.0519,0.038 -0.10802,0.065 -0.1247,0.061 -0.0167,0 -0.0918,-0.018 -0.16681,-0.029 z"
       id="path3403"
       inkscape:connector-curvature="0" />
    <path
       style="fill:#ad94a7;fill-opacity:0.99607843"
       d="m 192.83541,1040.544 c -0.0895,-0.015 -0.52915,-0.085 -0.97689,-0.1558 -0.44775,-0.071 -1.01477,-0.1941 -1.26005,-0.2746 -0.24529,-0.08 -1.29545,-0.2741 -2.3337,-0.4302 -1.03826,-0.1561 -2.74252,-0.4252 -3.78726,-0.598 -1.04473,-0.1729 -2.63169,-0.4161 -3.52657,-0.5406 -0.89488,-0.1244 -1.8962,-0.2955 -2.22516,-0.3801 -0.32895,-0.085 -1.33077,-0.2334 -2.22626,-0.3306 -3.13326,-0.3403 -5.09294,-0.6175 -6.45838,-0.9138 -0.26865,-0.058 -1.38765,-0.184 -2.48667,-0.2794 -1.09901,-0.095 -2.27129,-0.2427 -2.60506,-0.3275 -0.51608,-0.1311 -3.14703,-0.4931 -5.49133,-0.7556 -0.35819,-0.04 -0.94433,-0.1379 -1.30253,-0.2173 -0.61478,-0.1363 -2.20792,-0.3259 -5.0473,-0.6006 -0.68654,-0.066 -1.51691,-0.1865 -1.84525,-0.2669 -0.76103,-0.1861 -2.03538,-0.3388 -4.55886,-0.5459 -4.06405,-0.3336 -4.53052,-0.3806 -5.83537,-0.5869 -0.73195,-0.1157 -2.24614,-0.2888 -3.36487,-0.3847 -1.11875,-0.096 -2.47368,-0.2434 -3.01098,-0.328 -1.42531,-0.2245 -1.7311,-0.2524 -5.4272,-0.4946 -3.49323,-0.229 -4.76006,-0.3478 -5.59003,-0.5242 -0.51051,-0.1085 -2.22063,-0.2506 -5.42721,-0.451 -1.04474,-0.065 -3.5114,-0.2602 -5.48148,-0.4333 -12.02076,-1.056 -26.9688,-2.0677 -40.75833,-2.7587 -7.71196,-0.3864 -10.64234,-0.5149 -21.16612,-0.9277 -3.02589,-0.1187 -7.66081,-0.3642 -10.31169,-0.5462 -0.86564,-0.059 -2.55079,-0.156 -3.74478,-0.2146 -1.19398,-0.059 -2.65933,-0.1791 -3.25632,-0.268 -2.34352,-0.3488 -12.18358,-0.6583 -20.4063,-0.6417 -3.4049098,0.01 -4.0542498,0.047 -5.2915298,0.3255 -0.45391,0.1023 -0.3892,-0.2369 0.0744,-0.3899 0.2051,-0.068 0.39181,-0.1798 0.41493,-0.2491 0.0231,-0.069 0.45366,-0.2199 0.95677,-0.3344 0.82935,-0.1889 1.4467398,-0.211 6.6133098,-0.2363 3.13421,-0.015 6.5854,0.023 7.66931,0.084 1.78592,0.1017 2.05059,0.093 2.82215,-0.09 l 0.85141,-0.2019 -0.43418,-0.08 c -0.2388,-0.044 -3.24276,-0.1051 -6.67547,-0.1357 -3.43271,-0.031 -7.01947,-0.085 -7.97058,-0.1199 -1.60955,-0.06 -1.76292,-0.084 -2.2148998,-0.349 -0.47424,-0.278 -0.49672,-0.2806 -0.96001,-0.114 -0.4596,0.1652 -0.47847,0.1633 -0.60472,-0.061 -0.19463,-0.3462 -0.31877,-7.4535 -0.1927,-11.032 0.02,-0.5671 0.001,-1.141 -0.0419,-1.2754 -0.0777,-0.2425 -0.0704,-0.2442 1.04166,-0.2448 0.61595,-4e-4 3.1469598,-0.072 5.6244798,-0.1602 5.28403,-0.1872 13.72988,-0.4425 19.70077,-0.5955 13.33552,-0.3416 16.91614,-0.3813 34.51704,-0.3823 21.619183,0 22.649473,0.02 46.67399,0.9779 3.78464,0.1508 10.6156,0.4936 10.68444,0.5362 0.0419,0.026 0.82994,0.1247 1.75123,0.2196 0.92129,0.095 3.00868,0.3418 4.63865,0.5486 1.62996,0.2068 3.193,0.3758 3.47341,0.3756 0.77949,-6e-4 3.1018,0.4239 4.25417,0.7776 0.6258,0.1921 1.60658,0.3801 2.49652,0.4787 0.80619,0.089 2.10077,0.3098 2.87686,0.4902 2.30824,0.5366 5.34909,1.2919 6.56131,1.6297 0.62376,0.1739 1.91815,0.4674 2.87642,0.6522 1.49573,0.2885 4.79709,1.2493 6.89817,2.0077 0.26865,0.097 0.65941,0.2182 0.86835,0.2694 2.59257,0.6352 3.63471,1.0967 6.16832,2.7314 3.49308,2.2539 8.09069,4.6992 14.18372,7.5438 1.55218,0.7247 4.33634,2.0334 6.18701,2.9083 1.85068,0.8748 3.53661,1.6679 3.74651,1.7624 l 0.38164,0.1718 -0.0362,1.4726 c -0.0199,0.81 0.0282,2.0344 0.10682,2.721 0.19192,1.6757 0.13293,2.1604 -0.29122,2.3927 -0.17909,0.098 -0.3989,0.1659 -0.48845,0.1508 z M 67.1699,1027.0697 c -0.13351,-0.026 -0.37773,-0.026 -0.54272,-10e-4 -0.165,0.025 -0.0558,0.046 0.24273,0.047 0.29849,7e-4 0.43349,-0.02 0.29999,-0.045 l 0,0 z m 6.29407,-0.026 c -0.79102,-0.033 -2.08541,-0.033 -2.87643,0 -1.02092,0.043 -0.60364,0.061 1.43822,0.061 2.04185,0 2.45913,-0.017 1.43821,-0.061 z m -16.27511,-0.8698 c 0.0484,-0.046 -0.85526,-0.1188 -2.00806,-0.1625 -1.1528,-0.044 -2.60887,-0.1171 -3.23572,-0.1631 -0.62684,-0.046 -1.97007,-0.038 -2.98496,0.018 -1.01489,0.056 -2.65119,0.1381 -3.63623,0.1832 l -1.79098,0.082 1.46535,0.034 c 0.80594,0.019 2.68647,0.064 4.17895,0.1004 3.22351,0.079 7.88757,0.025 8.01165,-0.092 z"
       id="path3405"
       inkscape:connector-curvature="0" />
  </g>
</svg>
