<?xml version="1.0" encoding="UTF-8" standalone="no"?>
<!-- Created with Inkscape (http://www.inkscape.org/) -->

<svg
   xmlns:dc="http://purl.org/dc/elements/1.1/"
   xmlns:cc="http://creativecommons.org/ns#"
   xmlns:rdf="http://www.w3.org/1999/02/22-rdf-syntax-ns#"
   xmlns:svg="http://www.w3.org/2000/svg"
   xmlns="http://www.w3.org/2000/svg"
   xmlns:sodipodi="http://sodipodi.sourceforge.net/DTD/sodipodi-0.dtd"
   xmlns:inkscape="http://www.inkscape.org/namespaces/inkscape"
   width="80mm"
   height="20mm"
   viewBox="0 0 283.46445 70.866105"
   id="svg3568"
   version="1.1"
   inkscape:version="0.91 r13725"
   sodipodi:docname="rightshoe.svg">
  <defs
     id="defs3570" />
  <sodipodi:namedview
     id="base"
     pagecolor="#ffffff"
     bordercolor="#666666"
     borderopacity="1.0"
     inkscape:pageopacity="0.0"
     inkscape:pageshadow="2"
     inkscape:zoom="2.8"
     inkscape:cx="214.51212"
     inkscape:cy="97.432947"
     inkscape:document-units="px"
     inkscape:current-layer="layer1"
     showgrid="false"
     inkscape:window-width="1366"
     inkscape:window-height="744"
     inkscape:window-x="0"
     inkscape:window-y="24"
     inkscape:window-maximized="1" />
  <metadata
     id="metadata3573">
    <rdf:RDF>
      <cc:Work
         rdf:about="">
        <dc:format>image/svg+xml</dc:format>
        <dc:type
           rdf:resource="http://purl.org/dc/dcmitype/StillImage" />
        <dc:title></dc:title>
      </cc:Work>
    </rdf:RDF>
  </metadata>
  <g
     inkscape:label="Capa 1"
     inkscape:groupmode="layer"
     id="layer1"
     transform="translate(0,-981.49566)">
    <path
       style="fill:none;fill-rule:evenodd;stroke:#000000;stroke-width:1px;stroke-linecap:butt;stroke-linejoin:miter;stroke-opacity:1"
       d="m 29.493851,998.3929 83.506519,3.0701 85.9626,6.7542 38.68316,6.7542 0,9.2103 31.92897,11.6663 -166.39903,0 -89.37884,3.1594 c -0.20024,-1.228 -0.90543,-2.5453 0.96017,-3.7734 9.915821,-4.7208 19.412171,-7.9734 28.858881,-11.0523 z"
       id="path3548"
       inkscape:connector-curvature="0"
       sodipodi:nodetypes="ccccccccccc" />
    <path
       style="fill:#784421"
       d="m 18.74448,1037.3391 c -1.51969,-0.4299 -2.85189,-0.8038 -2.96044,-0.831 -0.38833,-0.097 1.65509,-1.8915 2.15415,-1.8915 0.28021,0 3.682431,-1.2434 7.560501,-2.7631 3.87806,-1.5197 7.53686,-2.763 8.13065,-2.763 0.59379,0 1.07962,-0.2764 1.07962,-0.6141 0,-0.3377 0.20724,-0.5813 0.46052,-0.5413 0.25328,0.04 0.73682,0.01 1.07453,-0.071 0.33771,-0.079 0.89033,-0.1945 1.22804,-0.2567 3.74068,-0.6897 5.6781,-1.2503 6.44719,-1.8658 2.09108,-1.6734 17.80266,-5.0688 32.83797,-7.0967 5.396754,-0.7279 9.973384,-1.423 10.170304,-1.5447 0.8641,-0.534 19.713535,-2.1922 32.139065,-2.8272 25.1935,-1.2875 59.73507,0.2943 82.04141,3.757 2.19511,0.3408 6.85054,1.0316 10.34538,1.5353 3.49484,0.5036 7.36315,1.1786 8.59626,1.5 3.42571,0.8927 7.51877,1.7821 10.07073,2.1881 1.26642,0.2015 2.30257,0.6105 2.30257,0.909 0,0.2984 21.53623,7.6885 16.55869,6.8092 -4.18184,-0.7387 6.42613,2.9585 7.52696,3.1047 13.94801,1.8524 -11.95095,-1.2039 -13.21208,-0.7978 -1.26113,0.4062 -1.3167,0.9933 -2.37921,1.0255 l -32.35561,0.9834 -22.60791,-0.796 c -38.27322,-1.3475 -84.71686,-0.7157 -126.684059,1.7234 -9.28703,0.5398 -20.61568,1.0742 -25.17476,1.1877 -4.55909,0.1134 -9.25633,0.3214 -10.43832,0.4621 -1.18198,0.1408 -3.39245,-0.096 -4.912151,-0.5257 z"
       id="path3550"
       inkscape:connector-curvature="0"
       sodipodi:nodetypes="ccsssscccssssssssssssscsssscc" />
    <path
       style="fill:#784421"
       d="m 43.138931,1021.9653 c -0.24625,-0.2463 -0.44772,-0.963 -0.44772,-1.5927 0,-0.6297 -0.38346,-1.2921 -0.85213,-1.472 -0.46867,-0.1798 -1.01265,-1.1296 -1.20885,-2.1106 -0.1962,-0.981 -0.91797,-2.3449 -1.60395,-3.0308 -0.68597,-0.686 -1.03999,-1.2515 -0.78671,-1.2567 0.25328,-0.01 0.16461,-0.2124 -0.19706,-0.4605 -0.74818,-0.5132 -7.13501,-12.51176 -6.82504,-12.82173 0.35777,-0.35777 15.7719,0.57324 15.77087,0.95253 -5.5e-4,0.2012 3.86777,0.2821 8.59626,0.1799 7.44218,-0.1609 8.59725,-0.058 8.59725,0.7675 0,1.0692 0.95372,1.28 1.53505,0.3394 0.51234,-0.829 8.66702,-0.7837 10.23759,0.057 0.90659,0.4852 1.43931,0.4852 1.9245,0 0.91104,-0.911 3.309814,-0.8493 3.751224,0.097 0.25047,0.5367 0.45751,0.5619 0.68848,0.084 0.21958,-0.4546 1.19732,-0.5289 2.91659,-0.2216 1.42246,0.2542 6.39103,0.4636 11.04127,0.4653 5.905735,0 8.736825,0.237 9.389795,0.779 0.70808,0.5876 1.10724,0.6034 1.64563,0.065 1.06105,-1.0611 6.90858,-0.9042 7.83341,0.2102 0.822,0.9904 5.83077,1.3044 6.3894,0.4005 0.17693,-0.2863 2.88724,-0.1573 6.02292,0.2867 3.13568,0.4439 10.12216,0.9628 15.52553,1.153 5.40336,0.1902 10.79137,0.5968 11.97336,0.9036 1.18198,0.3068 3.11614,0.5518 4.29813,0.5445 2.76118,-0.017 6.41371,0.4209 7.12277,0.8545 0.30385,0.1858 3.17739,0.504 6.38564,0.7072 3.20824,0.2031 6.38579,0.4754 7.06121,0.605 0.67542,0.1296 3.57666,0.448 6.44719,0.7074 8.33619,0.7536 8.52862,0.7782 16.5785,2.1237 4.22138,0.7056 9.41316,1.4481 11.53729,1.6501 2.94367,0.2798 4.01243,0.6481 4.49446,1.5488 0.44076,0.8236 0.8538,0.9979 1.36304,0.5753 0.95459,-0.7923 7.09406,-0.4972 8.81456,0.4235 0.73742,0.3947 1.91154,0.7176 2.60916,0.7176 1.04157,0 1.2684,0.3864 1.2684,2.1607 0,2.4462 0.73421,2.4236 -7.67523,0.2372 -2.70168,-0.7024 -6.43184,-1.5384 -8.28925,-1.8578 -7.9746,-1.3712 -15.56547,-2.4549 -23.02569,-3.2872 -4.39024,-0.4899 -9.31965,-1.1783 -10.95426,-1.5298 -1.63461,-0.3516 -3.20044,-0.4981 -3.47962,-0.3255 -0.27918,0.1725 -2.39562,0.014 -4.70322,-0.3519 -2.30758,-0.3661 -15.52425,-0.7679 -29.37037,-0.8928 -32.67205,-0.2949 -45.1472,0.632 -75.217269,5.5891 -3.20825,0.5289 -7.74615,1.3746 -10.08424,1.8794 -2.33808,0.5047 -5.65378,1.0633 -7.36822,1.2412 -1.71444,0.178 -3.98784,0.7119 -5.05201,1.1866 -1.06417,0.4746 -2.35361,0.8629 -2.86542,0.8629 -0.51182,0 -1.02843,0.2936 -1.14804,0.6524 -0.1196,0.3589 -0.41894,0.451 -0.66518,0.2047 z m 0.78031,-3.5839 c 0,-0.149 -0.27631,-0.4416 -0.61402,-0.6503 -0.33771,-0.2087 -0.61401,-0.087 -0.61401,0.2708 0,0.3576 0.2763,0.6502 0.61401,0.6502 0.33771,0 0.61402,-0.1218 0.61402,-0.2707 z m 28.74198,-14.3122 c -0.24925,-1.2943 -1.33898,-1.2127 -1.61668,0.1211 -0.11583,0.5562 0.22264,0.9534 0.81255,0.9534 0.63241,0 0.93357,-0.4024 0.80413,-1.0745 z"
       id="path3552"
       inkscape:connector-curvature="0" />
    <path
       style="fill:#000000;fill-opacity:1"
       d="m 216.13079,53.64625 c 0.6875,-0.02962 6.66058,-0.21778 13.27349,-0.418143 l 12.02348,-0.364294 0.97696,-0.551364 c 0.96807,-0.546342 0.99357,-0.550263 2.79795,-0.430331 1.00154,0.06657 4.7715,0.39805 8.3777,0.736625 3.60619,0.338573 6.69325,0.615589 6.86012,0.615589 0.77322,0 -0.057,-0.187992 -2.26086,-0.511923 -1.83984,-0.270428 -3.06764,-0.585116 -5.21789,-1.337355 -1.54655,-0.541043 -3.23405,-1.188882 -3.75,-1.439647 l -0.93809,-0.455932 0.75893,0.102411 c 0.43154,0.05823 0.75893,0.02932 0.75893,-0.06701 0,-0.34808 -2.21618,-1.241388 -12.94643,-5.218514 -2.16071,-0.800861 -4.20982,-1.647602 -4.55357,-1.881647 -0.45023,-0.306539 -1.42398,-0.581502 -3.48214,-0.983266 -1.57143,-0.306751 -4.34375,-0.907147 -6.16072,-1.334213 -4.75125,-1.116755 -6.06044,-1.347804 -16.07653,-2.837235 -17.30234,-2.572924 -27.01014,-3.548569 -43.65561,-4.387439 -11.34739,-0.571867 -30.20359,-0.745784 -39.57515,-0.365015 -13.01271,0.52871 -32.199996,2.117564 -36.616685,3.032141 -0.91592,0.189662 -4.276916,0.714481 -7.46888,1.166264 -12.998802,1.839818 -21.174631,3.322063 -28.571429,5.179885 -3.792739,0.952605 -5.345498,1.474021 -6.821693,2.290723 -1.560311,0.863239 -6.081136,2.000821 -8.941655,2.250003 -0.07609,0.0066 -0.213875,0.2107 -0.306184,0.453493 -0.104093,0.273784 -0.356741,0.480948 -0.665223,0.545463 -1.241779,0.259702 -4.902276,1.485971 -8.086674,2.709043 -4.832331,1.856014 -7.350456,2.75271 -7.546611,2.687326 -0.09172,-0.03057 0.383473,-0.28571 1.055992,-0.566967 7.888185,-3.29895 11.922592,-4.823586 19.691605,-7.44162 2.890006,-0.973888 5.282679,-1.798827 5.317052,-1.8332 0.03437,-0.03437 -0.203816,-0.535893 -0.529309,-1.114491 l -0.591805,-1.051995 0.584376,-0.506147 c 0.38147,-0.330402 0.972899,-0.588393 1.703325,-0.743015 0.61542,-0.130278 1.51424,-0.407716 1.997375,-0.61653 1.346154,-0.581815 3.321111,-1.037743 6.264429,-1.446175 1.473214,-0.204431 4.285714,-0.689452 6.25,-1.077824 14.695998,-2.905646 32.71318,-5.520389 44.732144,-6.491752 9.55711,-0.772398 16.57255,-0.988655 32.14286,-0.990831 18.59751,-0.0026 34.34551,0.398496 38.82073,0.988746 1.07807,0.142191 2.77033,0.258528 3.76058,0.258528 1.16412,0 2.90371,0.185331 4.92207,0.524383 1.71689,0.288411 5.85376,0.852778 9.19304,1.254149 7.76033,0.932766 12.70031,1.613439 18.83929,2.595839 5.97273,0.955794 7.97486,1.37194 14.24998,2.961877 5.2622,1.333291 5.98711,1.43601 6.27945,0.889777 0.38178,-0.713381 0.10787,-3.295589 -0.38259,-3.606556 -0.12988,-0.08234 -0.4772,-0.151755 -0.77184,-0.15425 -0.29464,-0.0025 -1.33646,-0.28428 -2.31516,-0.626191 -0.9787,-0.34191 -2.45325,-0.711321 -3.27679,-0.820913 -2.08309,-0.277207 -5.13398,-0.144057 -5.88771,0.256958 -0.58377,0.310579 -0.58888,0.309722 -0.98214,-0.164784 -1.10207,-1.329692 -1.88866,-1.645662 -4.85963,-1.952069 -2.09039,-0.21559 -7.57382,-1.010899 -12.94643,-1.877728 -6.14737,-0.991833 -8.20718,-1.255085 -13.92857,-1.780131 -2.20982,-0.202793 -5.30357,-0.523756 -6.875,-0.713251 -1.57143,-0.189495 -4.625,-0.473392 -6.78571,-0.630881 -4.33714,-0.316124 -7.02032,-0.649239 -8.42072,-1.045424 -0.9872,-0.279288 -4.71655,-0.646519 -6.56562,-0.646519 -0.62018,0 -1.84125,-0.130586 -2.71349,-0.29019 -0.87224,-0.159605 -2.46982,-0.391245 -3.55017,-0.514755 -5.04519,-0.576785 0.95323,-0.138971 34.28571,2.502458 12.98829,1.029255 10.60932,0.701441 31.05282,4.279003 10.40049,1.820059 18.93707,3.309198 18.9702,3.309198 0.0331,0 0.0817,2.068774 0.10789,4.597275 l 0.0477,4.597275 14.01786,5.129559 c 7.70982,2.821259 14.21875,5.205963 14.46429,5.299343 0.28517,0.108457 -8.80911,0.162241 -25.17858,0.148904 -14.09375,-0.01148 -25.0625,-0.04511 -24.375,-0.07472 z"
       id="path3553"
       inkscape:connector-curvature="0"
       transform="translate(0,981.49566)" />
    <path
       style="fill:#000000;fill-opacity:1"
       d="m 14.150441,56.345293 c -0.221207,-1.179136 0.227343,-1.793863 1.85149,-2.537423 0.530829,-0.243021 1.008983,-0.441857 1.062563,-0.441857 0.05358,0 -0.23738,0.309085 -0.646579,0.686855 -0.409199,0.377771 -0.743998,0.761868 -0.743998,0.85355 0,0.238483 4.029649,1.306264 5.419411,1.436042 0.643478,0.06009 3.444047,0.01694 6.223488,-0.09589 2.779441,-0.11283 7.303529,-0.286235 10.053529,-0.385346 5.754059,-0.207376 8.644709,-0.347814 22.053572,-1.071443 22.830005,-1.232055 36.525257,-1.742367 57.841733,-2.155298 11.85785,-0.229703 52.56819,-0.113057 60.7297,0.174007 2.70089,0.095 9.16964,0.319572 14.375,0.499053 l 9.46428,0.32633 -51.33928,0.09608 -51.33929,0.09608 -12.5,0.483949 c -11.571515,0.448002 -33.478216,1.236834 -57.946429,2.086576 -5.549107,0.192712 -11.068557,0.401044 -12.265443,0.46296 l -2.176158,0.112576 -0.117589,-0.626802 z"
       id="path3555"
       inkscape:connector-curvature="0"
       transform="translate(0,981.49566)" />
    <path
       style="fill:#000000;fill-opacity:1"
       d="m 150.29627,23.701853 c -1.50106,-0.121291 -4.18572,-0.268358 -6.81853,-0.37352 -1.28479,-0.05132 -2.62008,-0.10835 -2.96732,-0.126738 -5.73708,-0.303803 -9.53477,-0.612685 -13.19512,-1.073216 -2.50945,-0.315729 -3.15807,-0.370257 -4.46146,-0.375062 -1.118,-0.0041 -1.18602,0.0026 -1.32582,0.130324 -0.41558,0.379776 -0.97811,0.496154 -2.38864,0.494171 -1.17721,-0.0017 -2.12419,-0.11842 -2.90051,-0.357639 -0.53957,-0.166268 -0.79146,-0.297851 -1.17175,-0.612102 -0.5417,-0.447637 -1.55324,-0.702783 -3.26176,-0.822736 -1.98411,-0.139301 -3.84972,0.138547 -4.48303,0.667665 -0.59422,0.496451 -0.84663,0.506322 -1.50057,0.05869 -1.00715,-0.689408 -2.44355,-0.814458 -10.578803,-0.92097 -5.910564,-0.07738 -8.168396,-0.17807 -10.006824,-0.446244 -2.098278,-0.306079 -2.596162,-0.239809 -3.062024,0.407563 -0.15643,0.217378 -0.280193,0.180435 -0.458961,-0.137001 -0.339073,-0.602085 -0.884005,-0.84813 -1.877017,-0.8475 -0.75533,4.8e-4 -1.315163,0.154471 -1.777728,0.488996 -0.614586,0.444463 -0.672673,0.471434 -1.015889,0.471678 -0.250331,1.77e-4 -0.466491,-0.06052 -0.883883,-0.248195 -0.918567,-0.413023 -1.976712,-0.5808 -4.451736,-0.705857 -2.233,-0.112829 -4.905543,0.05774 -5.664816,0.361539 -0.13956,0.05584 -0.34196,0.212908 -0.449778,0.349039 -0.329765,0.416363 -0.749155,0.547125 -1.058916,0.330161 -0.174479,-0.12221 -0.323051,-0.450028 -0.323051,-0.712798 0,-0.848294 -0.96215,-0.992898 -6.108267,-0.918027 l -2.983106,0.0434 0,-0.228099 c 0,-0.143649 0.03002,-0.2281 0.08109,-0.2281 0.06758,0 9.227482,0.336188 32.654166,1.198475 1.875095,0.06902 6.534424,0.240084 10.354063,0.380145 3.81964,0.140062 8.77728,0.324304 11.01698,0.409428 l 4.07217,0.154771 19.66641,1.545404 c 10.81653,0.849973 19.76585,1.558312 19.88738,1.574089 0.12153,0.01578 -0.21939,0.01409 -0.75761,-0.0038 -0.96912,-0.03213 -1.18148,0.0056 -0.59017,0.104807 0.30201,0.05068 0.30272,0.05134 0.0535,0.0501 -0.13889,-6.92e-4 -0.70711,-0.03799 -1.26269,-0.08288 z"
       id="path3557"
       inkscape:connector-curvature="0"
       transform="translate(0,981.49566)" />
    <path
       style="fill:#000000;fill-opacity:1"
       d="m 48.024821,18.772672 c -0.441964,-0.03386 -1.044643,-0.125366 -1.339286,-0.203351 -0.603524,-0.159738 -2.560608,-0.354089 -5.982142,-0.594064 -3.328349,-0.23344 -1.90761,-0.209746 6.741071,0.112422 l 7.633929,0.284367 0.02825,0.245536 0.02825,0.245536 -3.153252,-0.01444 c -1.734288,-0.0079 -3.514859,-0.04215 -3.956823,-0.076 z"
       id="path3559"
       inkscape:connector-curvature="0"
       transform="translate(0,981.49566)" />
    <path
       style="fill:#000000;fill-opacity:1"
       d="m 71.340434,23.410209 c -0.551707,-0.433973 -0.06359,-1.755233 0.618554,-1.674319 0.349986,0.04151 0.596565,0.421831 0.643948,0.993206 0.03652,0.440414 0.01939,0.496622 -0.205281,0.673345 -0.310112,0.243934 -0.752849,0.247187 -1.057221,0.0078 z"
       id="path3561"
       inkscape:connector-curvature="0"
       transform="translate(0,981.49566)" />
    <path
       style="fill:#000000;fill-opacity:1"
       d="m 36.811747,29.17117 c -3.517386,-6.423149 -6.386056,-11.687644 -6.374822,-11.698879 0.01123,-0.01123 2.0973,0.0556 4.635702,0.148525 2.620711,0.09594 4.470577,0.179944 4.280454,0.19439 -0.184152,0.01399 -0.286272,0.02906 -0.226934,0.03348 0.05934,0.0044 0.09813,0.0178 0.08621,0.02972 -0.01192,0.01192 -0.763596,-0.01756 -1.670387,-0.06552 -3.247814,-0.171765 -5.903691,-0.230779 -6.224605,-0.13831 -0.09489,0.02734 -0.109691,0.05509 -0.09881,0.185282 0.05156,0.617131 3.208045,6.783952 5.402526,10.554909 0.688946,1.183872 1.255758,2.019817 1.52275,2.245781 0.12491,0.105715 0.227109,0.21168 0.227109,0.235479 0,0.0238 -0.05022,0.06237 -0.111607,0.0857 -0.06412,0.02438 -0.111607,0.07795 -0.111607,0.125903 0,0.13768 0.318834,0.582979 0.756907,1.057133 0.907375,0.98211 1.353484,1.845392 1.80914,3.500927 0.230403,0.83712 0.679299,1.533825 1.138046,1.76629 0.480268,0.24337 0.745962,0.71907 0.810731,1.451533 0.08881,1.004419 0.297961,1.577378 0.626159,1.715375 l 0.127925,0.05379 -0.104818,0.09847 -0.104819,0.09847 -6.395248,-11.678453 z"
       id="path3563"
       inkscape:connector-curvature="0"
       transform="translate(0,981.49566)" />
    <path
       style="fill:#000000;fill-opacity:1"
       d="m 43.076973,37.081606 c -0.45137,-0.205104 -0.501959,-0.921304 -0.06508,-0.921304 0.281601,0 0.942459,0.582671 0.871269,0.768189 -0.06269,0.163361 -0.571133,0.259927 -0.806193,0.153115 z"
       id="path3565"
       inkscape:connector-curvature="0"
       transform="translate(0,981.49566)" />
  </g>
</svg>
