<?xml version="1.0" encoding="UTF-8" standalone="no"?>
<!-- Created with Inkscape (http://www.inkscape.org/) -->

<svg
   xmlns:dc="http://purl.org/dc/elements/1.1/"
   xmlns:cc="http://creativecommons.org/ns#"
   xmlns:rdf="http://www.w3.org/1999/02/22-rdf-syntax-ns#"
   xmlns:svg="http://www.w3.org/2000/svg"
   xmlns="http://www.w3.org/2000/svg"
   xmlns:sodipodi="http://sodipodi.sourceforge.net/DTD/sodipodi-0.dtd"
   xmlns:inkscape="http://www.inkscape.org/namespaces/inkscape"
   width="35mm"
   height="30mm"
   viewBox="0 0 124.01577 106.29921"
   id="svg3549"
   version="1.1"
   inkscape:version="0.91 r13725"
   sodipodi:docname="rightglove.svg">
  <defs
     id="defs3551" />
  <sodipodi:namedview
     id="base"
     pagecolor="#ffffff"
     bordercolor="#666666"
     borderopacity="1.0"
     inkscape:pageopacity="0.0"
     inkscape:pageshadow="2"
     inkscape:zoom="1.979899"
     inkscape:cx="123.15884"
     inkscape:cy="123.1341"
     inkscape:document-units="px"
     inkscape:current-layer="layer1"
     showgrid="false"
     inkscape:window-width="1366"
     inkscape:window-height="744"
     inkscape:window-x="0"
     inkscape:window-y="24"
     inkscape:window-maximized="1" />
  <metadata
     id="metadata3554">
    <rdf:RDF>
      <cc:Work
         rdf:about="">
        <dc:format>image/svg+xml</dc:format>
        <dc:type
           rdf:resource="http://purl.org/dc/dcmitype/StillImage" />
        <dc:title></dc:title>
      </cc:Work>
    </rdf:RDF>
  </metadata>
  <g
     inkscape:label="Capa 1"
     inkscape:groupmode="layer"
     id="layer1"
     transform="translate(0,-946.06296)">
    <path
       style="fill:none;fill-rule:evenodd;stroke:#000000;stroke-width:1px;stroke-linecap:butt;stroke-linejoin:miter;stroke-opacity:1"
       d="m 8.8379211,1019.3525 3.0392399,-54.27208 c 3.91339,-3.07684 7.23804,-3.39049 11.72277,-3.03923 38.91777,3.58321 59.49294,18.7834 81.625219,32.99742 2.47932,4.48972 6.29793,9.93609 4.99303,11.72279 l -31.911989,39.7271 c -12.09702,-39.3787 -37.14693,-43.2296 -69.4682699,-27.136 z"
       id="path3522"
       inkscape:connector-curvature="0"
       sodipodi:nodetypes="ccccccc" />
    <path
       style="fill:#646955;fill-opacity:0.99607843"
       d="m 86.892508,1034.1264 c 0,-0.3637 -0.19324,-1.0871 -0.42941,-1.6076 -0.23617,-0.5204 -0.43155,-1.129 -0.43418,-1.3523 -0.005,-0.4618 -0.817987,-1.8341 -2.012827,-3.3993 -0.44775,-0.5865 -0.81408,-1.1564 -0.81408,-1.2665 0,-0.2724 -2.34397,-2.4226 -4.04312,-3.7089 -2.10533,-1.5938 -5.06836,-2.9728 -7.24548,-3.372 -3.80024,-0.6969 -4.00411,-0.7586 -4.72242,-1.4299 -0.38763,-0.3623 -0.70478,-0.7891 -0.70478,-0.9486 0,-0.4484 -1.46684,-1.8033 -3.18016,-2.9375 -0.85359,-0.5651 -1.97702,-1.364 -2.49651,-1.7755 -1.44244,-1.1424 -2.65263,-1.9112 -3.3514,-2.129 -0.3478,-0.1085 -1.41388,-0.508 -2.36907,-0.8879 -0.95519,-0.3798 -2.71361,-0.9588 -3.90759,-1.2866 -1.19399,-0.3277 -2.65933,-0.7478 -3.25633,-0.9334 -0.59699,-0.1856 -2.4531,-0.6147 -4.12468,-0.9535 -2.69501,-0.5462 -3.41937,-0.6091 -6.3955,-0.5551 -1.94379,0.035 -3.99942,0.1995 -4.88449,0.3903 -0.84052,0.1811 -2.11436,0.427 -2.83075,0.5465 -1.99452,0.3326 -8.158,2.4464 -9.44334,3.2387 -0.1791,0.1103 -0.71639,0.4002 -1.19399,0.6441 -4.09452,2.0907 -5.97442,3.3076 -7.88704,5.1056 l -1.6165199,1.5196 0.13586,-2.388 c 0.0747,-1.3134 0.6734999,-12.108 1.3306099,-23.98821 0.65712,-11.88016 1.28455,-22.42812 1.3943,-23.43991 0.17374,-1.60174 0.27549,-1.90495 0.78688,-2.34483 0.76925,-0.66168 0.87995,-0.50271 0.3308,0.47501 -0.24465,0.43557 -0.44481,0.84441 -0.44481,0.90852 0,0.23145 0.99915,-0.20153 2.06233,-0.8937 0.597,-0.38866 1.30525,-0.77312 1.57389,-0.85435 0.95788,-0.28962 0.51243,-0.64311 -1.03116,-0.81828 -0.41117,-0.0466 -0.22699,-0.16663 0.7598,-0.49495 2.21717,-0.73767 8.63051,-0.55939 15.41328,0.42847 5.27115,0.7677 9.77679,1.66154 14.97909,2.97159 4.21606,1.06169 13.16034,3.87896 13.67746,4.30813 0.14088,0.11692 0.32042,0.1483 0.39899,0.0697 0.0786,-0.0786 0.14284,-0.0126 0.14284,0.14661 0,0.1592 0.0643,0.22517 0.14284,0.14661 0.0786,-0.0786 0.27394,-0.034 0.43418,0.0989 0.16023,0.13299 0.29133,0.17755 0.29133,0.099 0,-0.0785 0.2198,-0.0209 0.48845,0.12808 0.26865,0.14897 0.56172,0.25009 0.65126,0.22473 0.0896,-0.0254 0.16282,0.0573 0.16282,0.18378 0,0.12644 0.0909,0.17369 0.20209,0.105 0.11115,-0.0687 0.26443,-0.024 0.34063,0.0993 0.0762,0.1233 0.22161,0.17284 0.32313,0.11009 0.10152,-0.0627 0.34288,0.0442 0.53635,0.23768 0.42807,0.42807 2.40171,1.20317 2.58836,1.01652 0.0738,-0.0738 0.13412,-0.0144 0.13412,0.13196 0,0.14635 0.0977,0.20571 0.21709,0.13191 0.1194,-0.0738 0.21709,-0.0385 0.21709,0.0785 0,0.11696 0.31749,0.28091 0.70553,0.36433 0.9627,0.20698 8.85189,4.19828 12.97103,6.56232 4.250567,2.43946 9.131387,5.46442 16.715797,10.35985 3.283462,2.11935 6.119452,3.9494 6.302202,4.0668 0.38207,0.24544 3.82022,6.16734 4.67739,8.05634 l 0.57475,1.2666 -0.4632,1.3385 c -0.25476,0.7361 -0.48957,1.4492 -0.52181,1.5846 -0.0322,0.1353 -0.6138,0.9247 -1.29236,1.7541 -1.0955,1.3391 -1.30447,1.4977 -1.86478,1.4154 -0.64749,-0.095 -1.03451,0.2064 -0.78448,0.611 0.0959,0.1551 0.23988,0.1453 0.45224,-0.031 1.33249,-1.1059 -0.57577,1.4475 -8.135652,10.8861 -4.7923,5.9833 -8.71652,10.7974 -8.72049,10.6981 -0.004,-0.099 -0.19883,0.049 -0.43302,0.3304 -0.23418,0.2811 -0.37977,0.5855 -0.32353,0.6765 0.0563,0.091 -0.0908,0.3402 -0.32679,0.5537 -0.41843,0.3787 -0.42906,0.372 -0.42906,-0.2729 z m -6.838277,-11.9972 c -0.0738,-0.1194 -0.2261,-0.2171 -0.33845,-0.2171 -0.11235,0 -0.20427,0.098 -0.20427,0.2171 0,0.1194 0.1523,0.2171 0.33844,0.2171 0.18615,0 0.27807,-0.098 0.20428,-0.2171 z m -0.8934,-0.9639 c -0.16769,-0.437 -0.93226,-0.8952 -1.76594,-1.0582 -0.76878,-0.1503 -1.01967,0.2439 -0.27855,0.4377 0.23485,0.061 0.48565,0.2965 0.55735,0.5224 0.0942,0.2968 0.33507,0.4107 0.86873,0.4107 0.55347,0 0.70833,-0.078 0.61841,-0.3126 z m -3.28142,-1.7836 c -0.14698,-0.06 -0.44005,-0.063 -0.65127,-0.01 -0.21122,0.055 -0.091,0.1037 0.26723,0.1081 0.3582,0 0.53101,-0.041 0.38404,-0.1001 l 0,1e-4 z m -2.88055,-0.8113 c 0,-0.047 -0.76783,-0.3399 -1.70627,-0.6512 -1.7757,-0.589 -2.85259,-0.7207 -2.85259,-0.3489 0,0.1194 0.1431,0.2171 0.318,0.2171 0.17489,0 0.42255,0.1954 0.55035,0.4342 0.20251,0.3784 0.45455,0.4342 1.96144,0.4342 0.95098,0 1.72907,-0.038 1.72907,-0.085 z m 23.134897,-27.94328 c 0.20453,-0.33093 -0.33387,-0.64287 -0.99189,-0.57469 -0.66488,0.0689 -0.64055,0.43951 0.0415,0.63159 0.74146,0.20883 0.78792,0.20605 0.95043,-0.0569 z M 72.288801,977.27784 c -0.0721,-0.0721 -0.25938,-0.0798 -0.41609,-0.0171 -0.17318,0.0693 -0.12174,0.12074 0.13116,0.13115 0.22884,0.009 0.35706,-0.0419 0.28493,-0.11402 z"
       id="path3528"
       inkscape:connector-curvature="0" />
    <path
       style="fill:#646955;fill-opacity:0.99607843"
       d="m 78.289451,1044.5435 c -0.41399,-1.7057 -2.9285,-7.9683 -4.42355,-11.0172 -1.83242,-3.7369 -3.71703,-6.8452 -5.846,-9.6419 -1.43931,-1.8908 -1.43039,-1.9232 0.4201,-1.5273 0.53729,0.115 1.89095,0.3046 3.00812,0.4213 1.29335,0.1352 2.27911,0.3623 2.71361,0.6251 0.37531,0.2271 0.9266,0.4864 1.2251,0.5763 0.88309,0.2661 2.85371,1.592 3.97668,2.6757 1.40079,1.3518 2.73494,3.2545 3.71275,5.2948 0.69216,1.4443 0.83032,1.9932 0.98356,3.9076 0.1755,2.1926 0.16944,2.2391 -0.38984,2.9871 -1.01524,1.3578 -5.04984,6.2955 -5.14404,6.2955 -0.0504,0 -0.1568,-0.2686 -0.23649,-0.597 z m 3.42306,-14.1034 c -0.2818,-0.5036 -0.53839,0.053 -0.35281,0.7648 l 0.15237,0.5847 0.19379,-0.5076 c 0.10942,-0.2866 0.11232,-0.6531 0.007,-0.8419 z m -2.93004,-3.6851 c -0.0607,-0.061 -0.21094,-0.048 -0.33378,0.028 -0.15012,0.093 -0.13706,0.3295 0.0398,0.7221 l 0.26318,0.584 0.0706,-0.6116 c 0.0388,-0.3364 0.0209,-0.6614 -0.0398,-0.7221 z m -0.84091,-0.5436 c -0.11781,-0.3534 -1.21426,-0.6288 -1.38752,-0.3484 -0.17792,0.2879 0.32213,0.6004 0.96749,0.6046 0.29745,0 0.47083,-0.1038 0.42003,-0.2562 z"
       id="path3530"
       inkscape:connector-curvature="0" />
    <path
       style="fill:#646955;fill-opacity:0.99607843"
       d="m 84.104751,1038.208 c 0.12873,-0.4734 6.2e-4,-2.8985 -0.21289,-4.0295 -0.27996,-1.4832 -1.44345,-3.7725 -2.90454,-5.715 -1.46373,-1.946 -3.84952,-3.867 -5.63829,-4.5397 -0.3,-0.1128 -0.75704,-0.3217 -1.01565,-0.4643 -0.64768,-0.357 -1.38168,-0.5235 -3.48254,-0.7898 -0.99202,-0.1257 -2.17435,-0.3013 -2.6274,-0.3902 -1.19618,-0.2346 -1.32553,-0.2007 -1.17755,0.3094 0.0488,0.1681 0.0288,0.1585 -0.16071,-0.077 -0.83625,-1.0382 -2.3561,-2.6405 -3.55607,-3.749 -7.91111,-7.3081 -17.78333,-10.0642 -29.85665,-8.3351 -6.71363,0.9616 -14.2593,3.4106 -22.56518,7.3239 l -1.4199199,0.669 -0.0238,-0.4297 c -0.0447,-0.805 -0.0401,-0.8123 1.2748699,-2.0296 0.665,-0.6155 1.44996,-1.3123 1.74434,-1.5482 1.16196,-0.9313 3.02177,-2.1031 4.98688,-3.1418 0.46436,-0.2455 1.4487,-0.7668 2.18745,-1.1585 1.52226,-0.8072 3.09814,-1.4514 5.60291,-2.2905 2.36958,-0.7938 3.36045,-1.0536 5.86413,-1.5374 2.82733,-0.5464 3.67599,-0.62 7.14539,-0.6201 2.77186,-10e-5 2.86832,0 4.0295,0.2139 2.87446,0.517 7.50014,1.6984 10.63019,2.7151 1.18476,0.3848 4.68121,1.6939 5.14241,1.9254 0.6068,0.3046 1.3584,0.8099 2.76308,1.8579 0.71764,0.5354 1.79212,1.3085 2.38773,1.718 1.24052,0.8529 2.43496,1.826 2.82402,2.3008 0.14696,0.1794 0.33819,0.4917 0.42496,0.6941 0.18458,0.4307 0.911,1.1883 1.35788,1.4163 0.40712,0.2077 1.19594,0.4027 3.02159,0.7469 0.82317,0.1552 1.79025,0.3666 2.14907,0.4697 2.03524,0.5851 4.64047,1.9243 6.37044,3.2747 1.57818,1.2319 3.63234,3.1499 3.80548,3.5533 0.0566,0.1319 0.5044,0.7989 0.99506,1.4821 0.86322,1.202 1.502567,2.2058 1.662787,2.6105 0.0426,0.1078 0.12674,0.4032 0.18688,0.6564 0.0601,0.2533 0.24638,0.8122 0.41388,1.242 0.17146,0.44 0.34099,1.0436 0.38798,1.3815 0.0459,0.3301 0.11198,0.6555 0.14688,0.7231 0.0478,0.093 -0.27691,0.5464 -1.3185,1.8421 -1.644217,2.0453 -1.630677,2.0303 -1.546047,1.719 z"
       id="path3532"
       inkscape:connector-curvature="0" />
    <path
       style="fill:#646955;fill-opacity:0.99607843"
       d="m 13.245461,966.12686 c 0,-0.0456 0.13816,-0.35367 0.30701,-0.68465 0.16886,-0.33099 0.30701,-0.70699 0.30701,-0.83558 0,-0.29183 1.35011,-0.97295 1.76531,-0.89058 0.89259,0.17708 1.45829,0.37261 1.45829,0.50404 0,0.0812 -0.0864,0.14873 -0.19188,0.15013 -0.10554,10e-4 -0.9161,0.41587 -1.80126,0.92103 -1.54469,0.88156 -1.84448,1.01737 -1.84448,0.83561 z"
       id="path3534"
       inkscape:connector-curvature="0" />
  </g>
</svg>
