<?xml version="1.0" encoding="UTF-8" standalone="no"?>
<!-- Created with Inkscape (http://www.inkscape.org/) -->

<svg
   xmlns:dc="http://purl.org/dc/elements/1.1/"
   xmlns:cc="http://creativecommons.org/ns#"
   xmlns:rdf="http://www.w3.org/1999/02/22-rdf-syntax-ns#"
   xmlns:svg="http://www.w3.org/2000/svg"
   xmlns="http://www.w3.org/2000/svg"
   xmlns:sodipodi="http://sodipodi.sourceforge.net/DTD/sodipodi-0.dtd"
   xmlns:inkscape="http://www.inkscape.org/namespaces/inkscape"
   width="210mm"
   height="297mm"
   viewBox="0 0 744.09448819 1052.3622047"
   id="svg3561"
   version="1.1"
   inkscape:version="0.91 r13725"
   sodipodi:docname="righthand.svg">
  <defs
     id="defs3563" />
  <sodipodi:namedview
     id="base"
     pagecolor="#ffffff"
     bordercolor="#666666"
     borderopacity="1.0"
     inkscape:pageopacity="0.0"
     inkscape:pageshadow="2"
     inkscape:zoom="0.7"
     inkscape:cx="527.22443"
     inkscape:cy="480.12157"
     inkscape:document-units="px"
     inkscape:current-layer="layer1"
     showgrid="false"
     inkscape:window-width="1366"
     inkscape:window-height="744"
     inkscape:window-x="0"
     inkscape:window-y="24"
     inkscape:window-maximized="1" />
  <metadata
     id="metadata3566">
    <rdf:RDF>
      <cc:Work
         rdf:about="">
        <dc:format>image/svg+xml</dc:format>
        <dc:type
           rdf:resource="http://purl.org/dc/dcmitype/StillImage" />
        <dc:title />
      </cc:Work>
    </rdf:RDF>
  </metadata>
  <g
     inkscape:label="Capa 1"
     inkscape:groupmode="layer"
     id="layer1">
    <path
       style="fill:none;fill-rule:evenodd;stroke:#000000;stroke-width:1px;stroke-linecap:butt;stroke-linejoin:miter;stroke-opacity:1"
       d="m 586.44704,583.71701 c 1.59591,-54.4176 2.11371,-57.97986 8.03624,-57.55682 l 26.49785,1.73757 c 15.27609,5.87935 30.55217,9.95433 45.82826,19.5476 l 21.28516,15.42088 0.2172,7.38465 -12.59734,17.81003 -11.07697,11.94576 c 0.53855,2.99881 1.65298,5.56572 0,10.20819 -2.74551,4.37206 -5.58646,8.26696 -8.90502,9.7738 0.77388,16.39664 -6.58396,28.84359 -26.06347,35.40287 -7.91774,2.3468 -40.98924,14.34928 -59.51157,-30.62457 -5.52024,-11.95378 7.49855,-34.09539 16.28966,-41.04996 z"
       id="path3541"
       inkscape:connector-curvature="0"
       sodipodi:nodetypes="ccccccccccccc" />
    <path
       style="fill:#916f6f"
       d="m 603.24378,657.07136 c -0.36689,-0.14342 -0.37349,-0.16907 -0.0469,-0.18219 0.20905,-0.008 0.38009,-0.14319 0.38009,-0.29955 0,-0.63296 -0.62554,-1.07082 -1.9658,-1.37602 -2.27115,-0.51717 -7.29036,-2.75087 -9.65416,-4.29639 -0.71675,-0.46863 -1.65051,-1.07937 -2.07504,-1.3572 -0.42452,-0.27783 -0.84408,-0.50515 -0.93235,-0.50515 -0.27275,0 -2.3466,-1.60581 -3.94287,-3.05301 -0.8362,-0.75811 -1.64402,-1.48087 -1.79514,-1.60613 -0.77885,-0.64556 -4.303,-4.69104 -4.9175,-5.64493 -2.53384,-3.93334 -3.59361,-5.92247 -4.49434,-8.43568 -0.46156,-1.28782 -0.93612,-2.5226 -1.05459,-2.74395 -0.11846,-0.22136 -0.3212,-1.12244 -0.45052,-2.00242 -0.12932,-0.87998 -0.33049,-1.89206 -0.44705,-2.24908 -0.43017,-1.3176 -0.66482,-5.97969 -0.40441,-8.03477 0.13651,-1.07728 0.32515,-2.59399 0.41919,-3.37046 0.15582,-1.28655 1.10051,-4.37634 2.45703,-8.03624 0.79294,-2.13934 2.27768,-5.14387 3.38093,-6.84166 2.1792,-3.35356 6.09177,-8.15311 7.96382,-9.7692 0.86866,-0.74989 1.41457,-1.45878 1.87683,-2.43716 0.54873,-1.16138 0.81219,-1.46345 1.66515,-1.90914 0.55731,-0.29121 1.41587,-0.80179 1.90792,-1.13462 0.49204,-0.33283 1.76264,-1.19195 2.82354,-1.90916 2.87641,-1.94453 8.54713,-4.64924 10.64535,-5.07741 0.61303,-0.12509 1.73702,-0.4606 2.49775,-0.74556 0.76074,-0.28497 2.13964,-0.58568 3.06422,-0.66825 0.92459,-0.0826 2.07659,-0.28967 2.56,-0.46023 1.18979,-0.41978 7.05931,-0.40414 8.5586,0.0228 0.5891,0.16776 1.40349,0.30501 1.80975,0.30501 0.40626,0 1.39034,0.2852 2.18684,0.63377 0.79649,0.34858 2.05883,0.7438 2.80519,0.87826 1.8869,0.33995 2.64665,0.63461 6.41675,2.48868 2.06183,1.01397 3.67051,1.96321 4.28058,2.52585 0.53756,0.49577 1.51366,1.15376 2.16911,1.46221 0.65545,0.30844 1.36079,0.76296 1.56741,1.01002 0.35834,0.42848 0.35504,0.46662 -0.0715,0.8261 -0.24598,0.20728 -1.14679,0.58392 -2.0018,0.83697 -3.3512,0.99184 -6.27074,2.83601 -8.84416,5.58654 -2.84954,3.04565 -4.06858,5.35958 -5.11364,9.70647 -0.51026,2.12242 -0.5603,2.668 -0.44823,4.8869 0.18917,3.74556 1.44371,7.54997 3.2878,9.97033 0.60026,0.78784 1.14079,1.4813 1.20117,1.54103 0.0604,0.0597 0.4396,0.49256 0.84271,0.96185 0.4031,0.46929 1.28258,1.30526 1.95439,1.85772 6.07816,4.99835 12.23577,6.02343 20.19649,3.36218 0.87966,-0.29406 1.64803,-0.53466 1.70749,-0.53466 0.0595,0 0.0387,1.29502 -0.0461,2.87784 -0.15023,2.80372 -0.17086,2.89533 -0.8013,3.55719 -0.73441,0.77101 -1.02022,1.79263 -0.81252,2.90437 0.11274,0.60352 0.14791,0.64564 0.17061,0.20441 0.0305,-0.59232 0.56316,-1.4798 0.7663,-1.27666 0.16572,0.16572 -0.81717,3.78266 -1.45347,5.3486 -0.49155,1.20971 -2.53155,4.40533 -3.47175,5.43843 -0.24224,0.26618 -0.5002,0.85156 -0.57322,1.30084 -0.0938,0.57699 -0.25762,0.84091 -0.5579,0.89873 -0.23382,0.045 -1.19257,0.85243 -2.13056,1.79421 -0.938,0.94178 -1.79485,1.71233 -1.90413,1.71233 -0.10928,0 -0.72165,0.46425 -1.36081,1.03168 -0.63917,0.56742 -1.47963,1.20313 -1.86768,1.41269 -0.39048,0.21088 -0.81668,0.67544 -0.95441,1.04031 -0.16176,0.42855 -0.44009,0.69881 -0.79527,0.7722 -0.30052,0.0621 -0.6513,0.18038 -0.7795,0.26286 -0.12819,0.0825 -0.69864,0.46083 -1.26765,0.84079 -1.37891,0.92076 -4.83905,2.41785 -8.12045,3.51345 -2.02356,0.67563 -3.12908,0.91783 -4.56111,0.99927 -3.30429,0.18792 -7.72889,0.59712 -8.48732,0.78493 -0.4094,0.10138 -1.17633,0.0938 -1.73757,-0.0173 -1.95769,-0.38726 -4.72474,-0.65049 -6.835,-0.65021 -1.91825,2.1e-4 -2.14909,0.0427 -2.24599,0.41325 -0.12702,0.48574 -1.49738,0.9042 -2.13927,0.65326 l 0,1e-5 z m 2.72233,-2.15222 c 0,-0.11945 -0.36652,-0.21569 -0.81449,-0.21387 -0.60584,0.002 -0.73102,0.0573 -0.48868,0.21387 0.42806,0.27664 1.30317,0.27664 1.30317,0 z m 23.23992,-1.08597 c 0,-0.11946 -0.18971,-0.2172 -0.42157,-0.2172 -0.23187,0 -0.48198,0.0977 -0.55581,0.2172 -0.0761,0.12318 0.10634,0.21719 0.42157,0.21719 0.3057,0 0.55581,-0.0977 0.55581,-0.21719 z m -28.07252,-0.2346 c -0.20905,-0.12176 -0.38009,-0.36313 -0.38009,-0.53638 0,-0.17325 -0.0933,-0.315 -0.20745,-0.315 -0.11409,0 -0.84492,-0.30451 -1.62406,-0.67668 -1.16312,-0.55559 -1.56324,-0.64837 -2.236,-0.51848 -0.71869,0.13875 -0.76219,0.17995 -0.35394,0.33528 0.25599,0.0974 0.59841,0.36693 0.76092,0.59895 0.17532,0.2503 0.69263,0.48852 1.27211,0.58581 0.53716,0.0902 1.16943,0.29831 1.40506,0.46253 0.23563,0.16421 0.72432,0.2956 1.08598,0.29196 0.55176,-0.006 0.5964,-0.0422 0.27747,-0.22799 z m -11.45707,-5.84688 c 0,-0.11946 -0.24434,-0.21719 -0.54299,-0.21719 -0.29864,0 -0.54298,0.0977 -0.54298,0.21719 0,0.11946 0.24434,0.2172 0.54298,0.2172 0.29865,0 0.54299,-0.0977 0.54299,-0.2172 z m 2.27128,-1.72255 c 0.19271,-0.31182 -0.26535,-0.49495 -0.80715,-0.32269 -0.47175,0.14999 -0.47336,0.15999 -0.0524,0.32455 0.5947,0.23245 0.71486,0.23219 0.85951,-0.002 l 0,10e-5 z m 56.80591,-6.2179 c 0,-0.18624 -0.0993,-0.27722 -0.22074,-0.20219 -0.1214,0.075 -0.16451,0.22741 -0.0958,0.33861 0.18619,0.30126 0.31652,0.24509 0.31652,-0.13642 z m 2.7008,-3.56554 c 0.30643,-0.1165 0.55713,-0.36473 0.55713,-0.55164 0,-0.1869 0.19548,-0.72298 0.43439,-1.1913 0.49609,-0.9724 0.61013,-2.08169 0.15599,-1.51738 -0.14552,0.18083 -0.51875,0.49116 -0.82941,0.68962 -0.61548,0.39321 -1.28134,1.60227 -1.28134,2.32666 0,0.51058 0.15736,0.55044 0.96324,0.24404 z m -74.59252,-2.65516 c 0,-0.50522 -0.0652,-0.62982 -0.23878,-0.45625 -0.13132,0.13132 -0.1736,0.44408 -0.094,0.69502 0.20739,0.65341 0.33274,0.56346 0.33274,-0.23877 z m -1.15933,-1.96562 c -0.0603,-0.14932 -0.10955,-0.0272 -0.10955,0.2715 0,0.29864 0.0493,0.42081 0.10955,0.27149 0.0602,-0.14932 0.0602,-0.39367 0,-0.54299 z m -1.54353,-4.15184 c 0.0709,-0.28261 0.0116,-0.94234 -0.13186,-1.46607 -0.23843,-0.87051 -0.27941,-0.91153 -0.47742,-0.47787 -0.24521,0.53703 -0.0259,2.45776 0.28057,2.45776 0.10986,0 0.25778,-0.23122 0.32871,-0.51382 z m 76.31604,-3.15185 c 0.28979,-0.081 0.56671,-0.26671 0.61539,-0.41274 0.10054,-0.30163 -2.1378,-0.35531 -2.87021,-0.0688 -0.42154,0.16488 -0.42154,0.168 0,0.41252 0.46494,0.26968 1.431,0.29927 2.25482,0.0691 z m -7.42284,-0.39357 c -0.20905,-0.0546 -0.55114,-0.0546 -0.76019,0 -0.20905,0.0546 -0.038,0.0993 0.38009,0.0993 0.41811,0 0.58915,-0.0447 0.3801,-0.0993 z m -4.34844,-1.06748 c -0.0722,-0.0722 -0.2595,-0.0799 -0.41629,-0.0171 -0.17326,0.0693 -0.1218,0.1208 0.13122,0.13122 0.22896,0.009 0.35724,-0.0419 0.28507,-0.11407 l 0,-10e-6 z m 15.09962,-0.0126 c -0.14933,-0.0602 -0.39367,-0.0602 -0.54299,0 -0.14932,0.0602 -0.0272,0.10955 0.27149,0.10955 0.29865,0 0.42082,-0.0493 0.2715,-0.10955 z m -20.03629,-2.8969 c 0,-0.11945 -0.17104,-0.2157 -0.38009,-0.21387 -0.32483,0.003 -0.33273,0.0339 -0.0543,0.21387 0.40989,0.2649 0.43439,0.2649 0.43439,0 z m -4.91624,-5.26016 c -0.18653,-0.30182 -0.50202,0.0423 -0.36534,0.39843 0.10103,0.26328 0.16712,0.27591 0.30197,0.0577 0.095,-0.15363 0.12347,-0.3589 0.0634,-0.45614 z m -54.94437,-3.55402 c 0.18607,-0.48489 0.16422,-2.3752 -0.0297,-2.56912 -0.19693,-0.19692 -0.70716,2.22583 -0.55324,2.62694 0.1486,0.38724 0.42257,0.36007 0.58293,-0.0578 z m 51.8707,-1.8284 c -0.0526,-0.35837 -0.13341,-0.65159 -0.17958,-0.65159 -0.0462,0 -0.0839,0.29322 -0.0839,0.65159 0,0.35837 0.0808,0.65159 0.17958,0.65159 0.0988,0 0.13654,-0.29322 0.0839,-0.65159 z m -0.97674,-4.50681 c -0.0498,-0.3285 -0.0905,-0.0597 -0.0905,0.59729 0,0.65702 0.0407,0.9258 0.0905,0.59729 0.0498,-0.32851 0.0498,-0.86607 0,-1.19458 z m 0.59784,-4.90037 c 0.39528,-0.60327 0.71621,-3.62455 0.38501,-3.62455 -0.12493,0 -0.33566,0.26878 -0.4683,0.59729 -0.13265,0.3285 -0.42735,0.8905 -0.6549,1.24887 -0.50566,0.79637 -0.57671,1.38434 -0.35436,2.93214 0.24081,1.67621 0.41091,1.81191 0.60467,0.48239 0.0919,-0.63061 0.31145,-1.36688 0.48788,-1.63614 z m -47.11212,-0.46822 c 0.64063,-0.69124 0.83106,-1.31223 0.55031,-1.79448 -0.12311,-0.21146 -0.22681,-0.26625 -0.23045,-0.12177 -0.004,0.14449 -0.23914,0.48657 -0.52335,0.76019 -0.5355,0.51552 -0.88992,1.69205 -0.50972,1.69205 0.11906,0 0.44001,-0.24119 0.71321,-0.53599 z m 61.8882,-16.62245 c 0.0738,-0.11946 -0.0181,-0.2172 -0.20438,-0.2172 -0.18624,0 -0.33861,0.0977 -0.33861,0.2172 0,0.11945 0.092,0.21719 0.20437,0.21719 0.11241,0 0.26479,-0.0977 0.33862,-0.21719 z"
       id="path3543"
       inkscape:connector-curvature="0" />
    <path
       style="fill:#916f6f"
       d="m 642.08229,619.42566 c -2.25475,-0.64858 -4.17119,-1.41099 -4.73143,-1.88229 -0.23891,-0.20099 -0.7276,-0.51544 -1.08597,-0.69879 -1.08862,-0.55692 -3.63564,-3.27304 -4.63159,-4.93906 -0.65402,-1.09405 -1.0294,-2.04231 -1.23607,-3.12248 -0.16324,-0.8532 -0.4139,-1.84157 -0.55701,-2.19638 -0.36265,-0.89911 -0.386,-5.71582 -0.0307,-6.34084 0.151,-0.26566 0.36788,-1.21911 0.48194,-2.11878 0.16932,-1.33544 0.39554,-1.9645 1.23222,-3.42648 1.14205,-1.99558 2.24853,-3.16001 5.17563,-5.44669 1.4777,-1.1544 4.92601,-2.42681 7.16983,-2.64562 1.50404,-0.14668 5.66893,0.28909 7.59946,0.79511 1.99867,0.52389 4.86263,2.15901 6.26446,3.57656 1.03923,1.05088 3.18355,3.87868 3.18355,4.19826 0,0.13056 0.24107,0.69984 0.53571,1.26506 0.29464,0.56523 0.64328,1.76072 0.77476,2.65665 0.13148,0.89593 0.34641,2.29134 0.47762,3.10091 0.18328,1.13086 0.1745,1.73481 -0.0379,2.60635 -0.15207,0.62392 -0.40115,1.93522 -0.55353,2.91401 -0.17985,1.1553 -0.43834,1.98467 -0.73684,2.36414 -0.25288,0.3215 -0.45979,0.70176 -0.45979,0.84503 0,0.34766 -1.53833,2.53329 -2.8597,4.063 -2.56316,2.96729 -6.41009,4.48593 -12.23539,4.83013 -1.6382,0.0968 -2.24374,0.0324 -3.7392,-0.3978 z m 17.74499,-8.32572 c -0.002,-0.60584 -0.0573,-0.73102 -0.21387,-0.48869 -0.27664,0.42807 -0.27664,1.30318 0,1.30318 0.11945,0 0.2157,-0.36652 0.21387,-0.81449 z"
       id="path3545"
       inkscape:connector-curvature="0" />
    <path
       style="fill:#916f6f"
       d="m 665.26049,597.99244 c 0,-0.13127 -0.14087,-0.54666 -0.31306,-0.92308 -0.17218,-0.37643 -0.41722,-1.08841 -0.54454,-1.58219 -0.12732,-0.49378 -0.3774,-1.01887 -0.55573,-1.16688 -0.17833,-0.14799 -0.32423,-0.39104 -0.32423,-0.5401 0,-0.29963 -1.73207,-2.78386 -2.86137,-4.10391 -2.44688,-2.86022 -7.55697,-5.75533 -10.82195,-6.13115 -2.83622,-0.32646 -4.80901,-1.19063 -5.18585,-2.27163 -0.28677,-0.82263 -1.01228,-1.52253 -2.96081,-2.85633 -0.95667,-0.65485 -2.47161,-1.74073 -3.36653,-2.41308 -0.89493,-0.67234 -1.96923,-1.33172 -2.38733,-1.46528 -0.4181,-0.13355 -1.73756,-0.61418 -2.93214,-1.06805 -1.19457,-0.45388 -2.75838,-0.96989 -3.47513,-1.1467 -0.71674,-0.17681 -2.27983,-0.58039 -3.47353,-0.89684 -1.1937,-0.31645 -3.29507,-0.79243 -4.66971,-1.05774 -5.83594,-1.12637 -13.31609,-0.16938 -20.20077,2.58442 -0.77648,0.31058 -1.80273,0.72023 -2.28056,0.91033 -0.47783,0.19011 -1.25973,0.60581 -1.73756,0.92378 -0.47783,0.31797 -1.3086,0.79582 -1.84616,1.0619 -2.00997,0.99489 -4.24609,2.55751 -5.9022,4.12452 -1.48037,1.40072 -1.74937,1.57482 -2.01344,1.30317 -0.26158,-0.26908 -0.26168,-1.65318 -6.8e-4,-9.76154 0.52804,-16.40448 0.91775,-23.4625 1.62499,-29.43 0.24067,-2.03078 0.49393,-4.18101 0.5628,-4.7783 0.0689,-0.59729 0.2531,-1.67241 0.4094,-2.38915 0.1563,-0.71675 0.35224,-1.98649 0.43541,-2.82166 0.18895,-1.89735 0.88347,-3.31314 2.00735,-4.09199 1.10638,-0.76672 2.01068,-1.01286 3.74372,-1.01898 2.49828,-0.009 20.29379,1.12293 20.7436,1.31925 0.23892,0.10427 0.97195,0.28431 1.62897,0.40008 0.65702,0.11577 3.10047,0.7585 5.42989,1.4283 2.32942,0.6698 4.43079,1.2557 4.6697,1.30201 0.23892,0.0463 0.43439,0.0987 0.43439,0.11646 0,0.0178 0.23668,0.0758 0.52595,0.12906 0.28926,0.0532 0.64034,0.19172 0.78016,0.30777 0.13983,0.11604 0.31854,0.14667 0.39714,0.0681 0.0786,-0.0786 0.14292,-0.0231 0.14292,0.1233 0,0.14642 0.0977,0.20581 0.21719,0.13198 0.11946,-0.0738 0.2172,-0.0203 0.2172,0.11902 0,0.13929 0.13705,0.20066 0.30455,0.13638 0.16751,-0.0643 0.37113,-0.0503 0.4525,0.0311 0.0814,0.0814 0.23752,0.16015 0.34702,0.17508 0.10951,0.0149 0.24797,0.0516 0.3077,0.0815 0.0597,0.0299 0.1819,0.0705 0.27149,0.0904 0.61864,0.13696 2.60132,0.87493 2.82354,1.05095 0.14933,0.11828 0.2715,0.15196 0.2715,0.0749 0,-0.0771 0.24434,0.0199 0.54299,0.21558 0.29864,0.19568 0.54299,0.28371 0.54299,0.19561 0,-0.0881 0.13116,-0.0513 0.29147,0.0817 0.16032,0.13304 0.35579,0.17759 0.4344,0.099 0.0786,-0.0786 0.14291,-0.0407 0.14291,0.0841 0,0.12488 0.31765,0.35129 0.70588,0.50315 1.34391,0.52566 3.75036,1.54744 4.61541,1.9597 1.39083,0.66284 4.26867,1.85581 5.21269,2.16085 1.20793,0.39031 7.94849,3.74619 9.14078,4.55086 0.53933,0.36398 1.03422,0.66179 1.09977,0.66179 0.0656,0 0.42717,0.13821 0.8036,0.30713 0.37643,0.16892 1.61292,0.71543 2.74777,1.21445 1.13485,0.49902 2.53082,1.19266 3.10215,1.5414 0.57134,0.34875 1.15395,0.65746 1.29469,0.68602 0.14074,0.0286 0.35745,0.12631 0.48157,0.21722 0.34365,0.2517 12.23276,8.82972 15.37215,11.09103 2.53341,1.82484 2.77807,2.0614 2.90603,2.80981 0.0768,0.44946 0.56777,1.52458 1.09094,2.38915 l 0.95122,1.57194 -0.0297,2.00906 c -0.0163,1.10498 -0.11497,2.00906 -0.21923,2.00906 -0.10426,0 -0.18956,0.0976 -0.18956,0.21691 0,0.11931 -1.4456,2.24511 -3.21244,4.72401 -1.76684,2.4789 -4.13321,5.82655 -5.25861,7.43923 -1.1254,1.61267 -2.50029,3.34407 -3.05531,3.84754 -0.55503,0.50348 -1.58132,1.62747 -2.28065,2.49775 -0.69933,0.87029 -1.71506,2.0775 -2.25717,2.6827 -0.54212,0.6052 -1.42549,1.66855 -1.96305,2.363 -0.53756,0.69445 -1.46607,1.70226 -2.06336,2.23957 -0.59728,0.53732 -1.08747,1.03777 -1.0893,1.11213 -0.0124,0.50258 -0.75686,0.93491 -0.75686,0.43952 z m -8.03623,-12.96682 c 0,-0.36074 -0.54322,-0.69503 -1.12942,-0.69503 -0.73994,0 -0.83634,0.57742 -0.11946,0.7155 0.85521,0.16472 1.24888,0.15827 1.24888,-0.0205 l 0,1e-5 z m -2.17196,-1.12942 c 0,-0.11945 -0.26878,-0.21032 -0.59729,-0.20193 -0.52927,0.0135 -0.54782,0.0365 -0.16289,0.20193 0.59324,0.25493 0.76018,0.25493 0.76018,0 z m -4.23531,-1.30317 c -0.0738,-0.11946 -0.26311,-0.2172 -0.42062,-0.2172 -0.15751,0 -0.39904,-0.13574 -0.53673,-0.30166 -0.4121,-0.49654 -2.06663,-0.8221 -2.77582,-0.54618 l -0.61074,0.23761 0.90505,0.35942 c 0.49778,0.19767 0.97832,0.43272 1.06788,0.52231 0.25224,0.25235 2.52828,0.20022 2.37098,-0.0543 z m -62.78641,-3.15932 c 0.16738,-0.66693 -0.0576,-1.15324 -0.33272,-0.71909 -0.24619,0.38854 -0.246,1.27206 2.8e-4,1.27206 0.1065,0 0.2561,-0.24884 0.33244,-0.55297 z m 0.70373,-10.3611 c -0.0602,-0.14932 -0.10955,-0.0272 -0.10955,0.27149 0,0.29865 0.0493,0.42082 0.10955,0.2715 0.0602,-0.14933 0.0602,-0.39367 0,-0.54299 z m 0.28722,-4.68253 c -0.002,-0.32145 -0.0981,-0.73107 -0.21387,-0.91026 -0.15208,-0.23532 -0.21147,-0.0357 -0.21387,0.71871 -0.002,0.64176 0.0804,0.99273 0.21387,0.91026 0.11946,-0.0738 0.2157,-0.39725 0.21387,-0.71871 z m 0.43983,-9.78593 c -0.10318,-0.19532 -0.24053,-0.52618 -0.30523,-0.73523 -0.25052,-0.80945 -0.56566,-0.33459 -0.56566,0.85234 l 0,1.23244 0.52924,-0.4972 c 0.38031,-0.35729 0.47646,-0.59715 0.34165,-0.85235 z m 2.90716,-24.13805 c 0.15473,0 0.4533,-0.19002 0.66347,-0.42226 0.21018,-0.23224 0.81139,-0.59876 1.33603,-0.81448 0.72758,-0.29918 0.95407,-0.50816 0.95469,-0.88092 6.9e-4,-0.41198 -0.11614,-0.48869 -0.74431,-0.48869 -0.80666,0 -2.27151,0.8045 -2.28642,1.25569 -0.005,0.15308 -0.1558,0.33457 -0.33498,0.40333 -0.20903,0.0802 -0.32343,0.40861 -0.31919,0.91627 0.005,0.64286 0.0481,0.71997 0.22799,0.41115 0.12176,-0.20905 0.34798,-0.38009 0.50272,-0.38009 z"
       id="path3547"
       inkscape:connector-curvature="0" />
    <path
       style="fill:#646a56;fill-opacity:0.99607843"
       d="m 664.65301,594.78585 c 0,-0.64298 -2.2495,-3.69656 -4.99889,-6.78571 -2.74938,-3.08916 -4.99938,-5.11189 -5,-4.49496 -6.1e-4,0.61693 -1.44754,0.31964 -3.2154,-0.66064 -1.76786,-0.98029 -3.71707,-1.63888 -4.33158,-1.46355 -0.61451,0.17533 -2.86451,-1.31564 -5,-3.31329 -5.05941,-4.73281 -17.46997,-8.39733 -27.87618,-8.2311 -6.05074,0.0967 -10.46793,1.22625 -16.41088,4.19671 -4.47244,2.23546 -8.71825,4.3109 -9.43513,4.61209 -0.77164,0.3242 -0.8826,-4.04709 -0.27197,-10.71428 0.56729,-6.19405 1.26139,-16.58656 1.54244,-23.09446 0.44315,-10.26124 0.95118,-12.20838 3.82572,-14.6628 2.86737,-2.44829 4.66433,-2.71591 13.31472,-1.98296 5.5,0.46602 12.57143,1.47019 15.71429,2.23149 21.74017,5.26615 61.66304,27.2692 64.24641,35.40871 1.01462,3.19676 -3.95968,11.39256 -14.16422,23.3374 -5.52918,6.47213 -7.93933,8.1774 -7.93933,5.61735 z"
       id="path3486"
       inkscape:connector-curvature="0" />
    <path
       style="fill:#646a56;fill-opacity:0.99607843"
       d="m 601.70409,653.70148 c -0.92765,-1.11775 -3.16915,-2.03227 -4.98111,-2.03227 -1.81195,0 -4.25875,-0.96429 -5.43732,-2.14286 -1.17857,-1.17857 -2.72618,-2.14286 -3.43912,-2.14286 -2.00781,0 -11.25044,-10.82927 -10.68653,-12.52102 0.27553,-0.82658 -0.17583,-1.92114 -1.00302,-2.43237 -0.82719,-0.51123 -1.50398,-2.46078 -1.50398,-4.33232 0,-1.87155 -0.64286,-3.80012 -1.42858,-4.28572 -1.9007,-1.1747 -1.84413,-12.14285 0.0626,-12.14285 0.82016,0 1.38685,-0.80358 1.25931,-1.78572 -0.49695,-3.82693 0.18776,-6.66276 2.06102,-8.53601 1.07491,-1.07492 2.36432,-3.21012 2.86536,-4.7449 0.50104,-1.53479 3.41144,-5.47774 6.46755,-8.76213 13.0794,-14.05632 31.58473,-17.87898 47.86182,-9.88684 l 8.43483,4.14154 -5.20462,2.67013 c -2.86254,1.46857 -6.32845,4.4263 -7.70202,6.57274 -1.37357,2.14644 -3.30931,4.7521 -4.30164,5.79037 -2.21745,2.32009 -2.2964,4.06802 -0.24114,5.33824 0.85971,0.53133 1.2945,2.37116 0.96621,4.08852 -0.3283,1.71736 0.26814,3.93054 1.32542,4.91819 1.05728,0.98764 1.6353,2.26014 1.28448,2.82776 -0.35081,0.56763 1.5639,2.54071 4.25492,4.38463 6.00924,4.11759 17.3531,6.51881 20.08504,4.2515 1.54519,-1.28239 1.84353,-0.46945 1.57123,4.28139 -0.18486,3.22539 -1.05932,5.86768 -1.94325,5.87176 -0.88393,0.004 -1.97681,1.8557 -2.42862,4.11475 -0.79328,3.96642 -13.47067,15.74552 -17.22228,16.00195 -0.87951,0.0601 -2.88482,0.48746 -4.45625,0.94966 -1.57142,0.4622 -7.80186,1.00611 -13.84542,1.20869 -8.11333,0.27196 -11.42957,-0.16339 -12.67492,-1.66395 z"
       id="path3488"
       inkscape:connector-curvature="0" />
    <path
       style="fill:#646a56;fill-opacity:0.99607843"
       d="m 638.11043,617.17699 c -4.28126,-2.07741 -7.74314,-8.69417 -7.74314,-14.79963 0,-7.83994 7.49766,-14.99387 15.71429,-14.99387 8.07732,0 15.71428,7.16414 15.71428,14.74137 0,6.13993 -3.8209,13.15967 -8.26511,15.18458 -4.07029,1.85455 -11.45613,1.79111 -15.42032,-0.13244 z"
       id="path3490"
       inkscape:connector-curvature="0" />
  </g>
</svg>
