<?xml version="1.0" encoding="UTF-8" standalone="no"?>
<!-- Created with Inkscape (http://www.inkscape.org/) -->

<svg
   xmlns:dc="http://purl.org/dc/elements/1.1/"
   xmlns:cc="http://creativecommons.org/ns#"
   xmlns:rdf="http://www.w3.org/1999/02/22-rdf-syntax-ns#"
   xmlns:svg="http://www.w3.org/2000/svg"
   xmlns="http://www.w3.org/2000/svg"
   xmlns:sodipodi="http://sodipodi.sourceforge.net/DTD/sodipodi-0.dtd"
   xmlns:inkscape="http://www.inkscape.org/namespaces/inkscape"
   width="75mm"
   height="75mm"
   viewBox="0 0 265.74794 265.74787"
   id="svg3452"
   version="1.1"
   inkscape:version="0.91 r13725"
   sodipodi:docname="symbolsvg.svg">
  <defs
     id="defs3454" />
  <sodipodi:namedview
     id="base"
     pagecolor="#ffffff"
     bordercolor="#666666"
     borderopacity="1.0"
     inkscape:pageopacity="0.0"
     inkscape:pageshadow="2"
     inkscape:zoom="3.959798"
     inkscape:cx="175.40805"
     inkscape:cy="141.25684"
     inkscape:document-units="px"
     inkscape:current-layer="layer1"
     showgrid="false"
     inkscape:window-width="1366"
     inkscape:window-height="744"
     inkscape:window-x="0"
     inkscape:window-y="24"
     inkscape:window-maximized="1" />
  <metadata
     id="metadata3457">
    <rdf:RDF>
      <cc:Work
         rdf:about="">
        <dc:format>image/svg+xml</dc:format>
        <dc:type
           rdf:resource="http://purl.org/dc/dcmitype/StillImage" />
        <dc:title />
      </cc:Work>
    </rdf:RDF>
  </metadata>
  <g
     inkscape:label="Capa 1"
     inkscape:groupmode="layer"
     id="layer1"
     transform="translate(0,-786.61403)">
    <path
       style="fill:none;fill-rule:evenodd;stroke:#000000;stroke-width:1px;stroke-linecap:butt;stroke-linejoin:miter;stroke-opacity:1"
       d="m 161.79856,825.33079 c 50.81781,14.08364 52.15951,35.95288 33.75043,59.84367 l -35.159,20.30988 c -12.79175,4.97939 -11.12701,11.76585 -5.5289,19.04397 l 13.08069,30.24443 -17.99526,6.00056 c -3.65571,4.55058 -0.5645,6.20962 -0.61432,9.21482 24.30826,6.14322 21.88924,12.72083 21.1414,18.64686 -3.40235,13.41742 -10.79489,12.47012 -16.84115,16.36952 -12.19549,0.8909 -20.1405,-3.1586 -24.90187,-7.98622 -5.33963,-21.23226 6.32758,-17.80461 11.38679,-23.95855 l 0.61432,-9.21482 -18.36151,3.4006 c -1.66523,-14.44384 -0.33676,-28.88768 -5.59704,-43.33152 -4.09884,-23.00988 7.34988,-22.25742 11.16959,-25.87604 l 20.45255,-9.58108 c 5.61608,-10.67753 13.38553,-21.92388 -10.7352,-24.74641 l -14.1294,3.68593 c -24.872794,9.19034 -13.50673,15.00963 -15.97236,22.11559 l -0.90605,12.90075 c -3.23144,4.93323 -5.90737,10.66887 -14.166674,8.33965 -11.11925,-4.84444 -20.72849,-10.4439 -26.08684,-18.1688 -10.09354,-16.36145 0.51358,-24.5905 5.5289,-35.01634 29.154744,-20.41536 59.117754,-23.00993 89.870904,-32.23645 z"
       id="path3432"
       inkscape:connector-curvature="0"
       sodipodi:nodetypes="cccccccccccccccccccccccc" />
    <path
       style="fill:#808000"
       d="m 127.09555,963.0701 c -0.29865,-0.11456 -0.54299,-0.68885 -0.54299,-1.2762 0,-0.58735 -0.38059,-3.35659 -0.84576,-6.15387 -0.46517,-2.79729 -1.36306,-8.70228 -1.99532,-13.12221 -0.98542,-6.88872 -1.8854,-11.3187 -4.19185,-20.63357 -0.23663,-0.95566 -0.52922,-3.32237 -0.6502,-5.25934 -0.19977,-3.19824 -0.10907,-3.75695 0.98713,-6.08148 2.22713,-4.72269 6.59582,-8.21132 17.33858,-13.84576 6.8989,-3.61839 11.25945,-6.89959 13.81422,-10.39487 3.71117,-5.07738 5.91364,-10.81553 5.33507,-13.89959 -1.03735,-5.52952 -10.017,-10.2491 -19.49646,-10.24706 -5.20879,10e-4 -13.67345,1.84543 -21.58958,4.70401 -2.65069,0.95719 -7.89628,4.51777 -9.2187,6.25744 -2.52077,3.31612 -2.71025,4.04395 -2.68741,10.32304 0.0117,3.22535 0.0712,8.04459 0.13219,10.70942 0.12464,5.44708 -0.12937,6.2524 -3.09595,9.81556 -1.600074,1.92184 -1.856634,2.06313 -3.740804,2.06003 -2.03168,-0.003 -5.73726,-0.98916 -8.97316,-2.38723 -6.11776,-2.64316 -15.8185,-12.06324 -19.45754,-18.89461 -3.28014,-6.15763 -3.5218,-8.74166 -1.33237,-14.2472 3.1935,-8.03038 10.92669,-15.32405 21.78041,-20.54248 4.29987,-2.06736 14.106824,-6.02929 17.036734,-6.8827 1.07511,-0.31316 3.71404,-1.13117 5.86428,-1.81782 7.40794,-2.3656 32.28557,-8.72108 38.00922,-9.7102 10.71193,-1.85116 24.128,-1.75903 29.09369,0.19981 4.11557,1.62349 11.67548,5.66888 14.34767,7.6776 3.58711,2.69648 6.95708,7.83387 8.71847,13.29097 2.51543,7.79327 1.65538,16.33327 -2.2197,22.04103 -5.09666,7.50707 -13.1433,13.12619 -33.123,23.13043 -12.60119,6.30968 -13.25045,6.696 -16.27415,9.68337 -3.65675,3.61282 -3.73453,3.95906 -2.25982,10.05944 1.41163,5.83948 1.51949,6.07948 11.33138,25.21355 2.35729,4.59691 4.28597,8.53977 4.28597,8.7619 0,0.22214 -0.6353,0.53796 -1.41177,0.70182 -1.36307,0.28766 -3.02129,0.90816 -11.40277,4.26688 -5.29186,2.12062 -8.18429,3.04094 -15.03258,4.78313 -7.30697,1.85888 -7.86828,1.97181 -8.53313,1.71676 z m 1.81803,-1.48458 c -0.30319,-0.49058 -1.49224,-0.512 -1.49224,-0.0269 0,0.6113 0.48901,0.89296 1.12595,0.64854 0.33364,-0.12803 0.49847,-0.40778 0.36629,-0.62165 z m 23.1304,-30.8777 c -0.13867,-0.34653 -0.2416,-0.2436 -0.26244,0.26244 -0.0189,0.45792 0.0838,0.71448 0.22815,0.57014 0.14434,-0.14435 0.15977,-0.51901 0.0343,-0.83258 l 2e-5,0 z m -5.51608,-13.92767 c -0.003,-0.29864 -0.19614,-0.8362 -0.42774,-1.19457 -0.32813,-0.50775 -0.42256,-0.38789 -0.42774,0.54299 -0.003,0.65701 0.18882,1.19457 0.42774,1.19457 0.23891,0 0.4314,-0.24434 0.42774,-0.54299 z m -44.43889,-18.21727 c -0.13867,-0.34653 -0.24161,-0.2436 -0.26245,0.26244 -0.0189,0.45792 0.0838,0.71448 0.22815,0.57014 0.14435,-0.14435 0.15978,-0.51901 0.0343,-0.83258 z M 71.536636,887.11905 c -0.13458,-0.35072 -0.38939,-0.63767 -0.56623,-0.63767 -0.17685,0 -0.53366,-0.43982 -0.79291,-0.97738 -0.25926,-0.53756 -0.4846,-0.71433 -0.50077,-0.39282 -0.0418,0.83034 1.36651,3.10172 1.76889,2.85303 0.18465,-0.11411 0.2256,-0.49444 0.091,-0.84516 z m 30.552374,-8.10377 c -0.13867,-0.34653 -0.24161,-0.2436 -0.26245,0.26245 -0.0189,0.45791 0.0838,0.71448 0.22815,0.57013 0.14435,-0.14434 0.15978,-0.51901 0.0343,-0.83258 z M 202.12996,860.9609 c -0.004,-2.4386 -0.16068,-3.99241 -0.36972,-3.66273 -0.19969,0.31491 -0.30941,2.17194 -0.24383,4.12671 0.134,3.99406 0.1102,3.77133 0.403,3.77133 0.11946,0 0.2142,-1.90589 0.21055,-4.23531 z m -130.013944,2.4163 c -0.13867,-0.34653 -0.2416,-0.24359 -0.26244,0.26245 -0.0189,0.45792 0.0838,0.71448 0.22815,0.57013 0.14434,-0.14434 0.15977,-0.519 0.0343,-0.83258 z m 52.581334,-0.61539 c -0.14435,-0.14434 -0.51901,-0.15977 -0.83259,-0.0343 -0.34652,0.13867 -0.24359,0.2416 0.26245,0.26245 0.45792,0.0189 0.71448,-0.0838 0.57014,-0.22815 z m -43.873504,-6.95025 c -0.14435,-0.14435 -0.51901,-0.15978 -0.83259,-0.0343 -0.34652,0.13867 -0.24359,0.2416 0.26245,0.26244 0.45792,0.0189 0.71448,-0.0838 0.57014,-0.22815 z m 5.00454,-3.06599 c -0.29864,-0.1205 -0.78733,-0.1205 -1.08597,0 -0.29865,0.12051 -0.0543,0.21911 0.54299,0.21911 0.59728,0 0.84163,-0.0986 0.54298,-0.21911 z m 113.393344,-3.62183 c -0.12495,-0.47783 -0.30213,-0.86878 -0.39372,-0.86878 -0.0916,0 -0.16653,0.39095 -0.16653,0.86878 0,0.47783 0.17717,0.86879 0.39372,0.86879 0.21655,0 0.29149,-0.39096 0.16653,-0.86879 z"
       id="path3434"
       inkscape:connector-curvature="0" />
    <path
       style="fill:#808000"
       d="m 142.24698,1001.3781 c -3.63185,-0.8119 -5.98632,-2.06911 -7.98895,-4.26575 -2.31645,-2.54085 -3.50104,-5.90706 -3.24468,-9.22029 0.36791,-4.75489 1.91149,-6.33068 4.66142,-4.75867 0.59729,0.34144 1.612,0.62773 2.25492,0.63619 0.64291,0.008 1.28975,0.21087 1.43741,0.44979 0.33013,0.53417 3.55141,0.57943 3.87586,0.0545 0.12915,-0.20896 1.26467,-0.49562 2.52338,-0.63701 3.11595,-0.35002 7.5769,-1.30004 7.97321,-1.698 0.17844,-0.17918 1.25771,-0.32579 2.39836,-0.32579 1.14066,0 2.19474,-0.19547 2.34239,-0.43439 0.14766,-0.23891 1.03433,-0.43439 1.97039,-0.43439 2.10068,0 2.74645,0.86452 3.47989,4.65867 1.38683,7.17416 -3.23864,13.36784 -11.55781,15.47634 -4.05053,1.0266 -7.09429,1.1766 -10.12579,0.4988 z"
       id="path3436"
       inkscape:connector-curvature="0" />
    <path
       style="fill:#808000"
       d="m 138.71551,981.7321 c 0,-0.21264 -0.83077,-0.57076 -1.84616,-0.79583 -2.38851,-0.52944 -2.35215,-1.27802 0.14571,-2.99938 3.29938,-2.27371 6.41401,-3.05693 12.15655,-3.05693 4.7392,0 5.17308,0.0751 7.59825,1.31539 1.41462,0.72346 2.63685,1.65197 2.71608,2.06336 0.12038,0.62508 -0.20376,0.74796 -1.97289,0.74796 -1.16431,0 -2.30263,0.17653 -2.5296,0.39228 -0.22696,0.21575 -1.29231,0.4935 -2.36743,0.61722 -1.07511,0.12372 -3.32309,0.55798 -4.99549,0.96501 -3.53447,0.86023 -8.90502,1.3131 -8.90502,0.75092 z"
       id="path3438"
       inkscape:connector-curvature="0" />
    <path
       style="fill:#1a1a1a;fill-opacity:1"
       d="m 146.16413,217.69648 c -0.20834,-0.0408 -1.23112,-0.21129 -2.27284,-0.37882 -5.00982,-0.80567 -9.96904,-3.13869 -13.80971,-6.49665 -1.17891,-1.03074 -1.94298,-4.72342 -1.94639,-9.4067 -0.002,-2.99211 0.0705,-3.59445 0.59427,-4.92264 0.90235,-2.28835 2.71659,-3.92872 6.56575,-5.9365 1.92838,-1.00588 3.59956,-2.08155 4.31585,-2.77792 l 1.16891,-1.13642 0.3042,-5.0185 c 0.1673,-2.76017 0.27073,-5.04255 0.22983,-5.07195 -0.0409,-0.0294 -4.16548,0.70841 -9.16573,1.63959 -5.00026,0.93118 -9.12749,1.66221 -9.17163,1.62452 -0.15849,-0.13533 -0.54018,-5.17098 -0.92778,-12.24029 -0.80839,-14.74376 -1.71637,-21.24974 -3.93009,-28.16054 -1.01255,-3.16096 -1.49919,-6.65212 -1.49572,-10.73034 0.007,-7.80707 1.89603,-11.25193 7.94907,-14.49324 1.52786,-0.81814 2.95064,-1.63599 3.16174,-1.81744 0.46248,-0.39753 19.75033,-9.47502 19.87264,-9.35271 0.13552,0.13551 -1.89589,1.73127 -4.00369,3.14506 -1.06149,0.71199 -3.61844,2.22111 -5.68211,3.3536 -9.12666,5.00849 -11.60999,6.64947 -14.63702,9.67212 -1.86242,1.85972 -2.4997,2.70345 -3.35832,4.44626 -0.68461,1.3896 -1.11035,2.64156 -1.20275,3.5369 -0.23128,2.24084 0.36203,6.56997 1.67782,12.24232 1.97186,8.50066 2.7988,13.29262 5.66752,32.84187 0.30669,2.08999 0.64211,3.93668 0.74536,4.10375 0.28411,0.4597 1.15056,0.37487 4.60646,-0.45103 9.12302,-2.18026 13.03258,-3.40736 21.64094,-6.79248 3.49892,-1.3759 7.15717,-2.74395 8.12944,-3.04012 0.97228,-0.29616 1.93823,-0.64734 2.14658,-0.78039 0.31492,-0.20111 -0.75802,-2.51055 -6.36167,-13.6931 -3.70726,-7.39815 -7.03341,-14.21454 -7.39145,-15.14753 -1.02603,-2.67367 -2.17563,-7.45845 -2.32282,-9.66787 -0.12974,-1.94743 -0.10606,-2.0628 0.65649,-3.19817 1.06967,-1.59263 3.99166,-4.30995 6.10396,-5.67638 0.95244,-0.61613 6.36434,-3.48761 12.02645,-6.38108 10.6719,-5.45358 12.85836,-6.62663 17.11308,-9.18132 11.38177,-6.833992 17.36893,-13.264393 19.3359,-20.76738 0.73841,-2.816651 0.91888,-7.812319 0.39693,-10.987612 -0.87797,-5.341112 -3.22035,-10.562123 -6.65539,-14.834412 -1.34138,-1.66832 -0.62271,-1.269078 1.59107,0.883883 4.43147,4.309746 6.87921,8.681297 7.67106,13.700194 1.12041,7.10142 -1.81957,15.754764 -8.58785,25.276929 l -1.7217,2.422229 -17.00032,9.821679 c -9.35017,5.40192 -18.44212,10.53322 -20.20432,11.40288 -6.14798,3.03408 -8.60441,6.45933 -7.79164,10.86469 0.32736,1.77433 1.67335,4.66985 3.12984,6.73298 0.9497,1.34525 4.6454,9.6259 12.93643,28.98555 l 0.8315,1.94157 -8.79737,2.93242 -8.79737,2.93242 -0.66641,1.007 c -0.36651,0.55385 -0.78366,1.31525 -0.92698,1.69201 -0.41097,1.08029 -0.29757,3.07784 0.26693,4.70202 0.28514,0.82039 0.51844,1.79668 0.51844,2.16952 0,0.62002 0.12397,0.70505 1.45209,0.99602 2.41125,0.52826 9.46293,2.92879 11.74524,3.99832 4.01115,1.87969 6.76772,4.18723 7.80602,6.53447 0.61194,1.38341 0.65864,4.48297 0.10737,7.12689 -0.85194,4.08591 -3.18905,8.323 -5.67818,10.29433 -1.41931,1.12405 -2.36196,1.62678 -7.95647,4.24328 l -3.00425,1.40506 -3.3092,-0.0293 c -1.82006,-0.0161 -3.47966,-0.0627 -3.68801,-0.10351 z m 2.85582,-2.66232 c 4.90867,-0.72906 8.48576,-2.27685 11.18658,-4.84037 3.75131,-3.56061 4.8167,-7.56934 3.45975,-13.01792 -0.24663,-0.9903 -0.65827,-1.86842 -1.09504,-2.33598 -0.59998,-0.64229 -0.88474,-0.74919 -1.99559,-0.74919 -0.71267,0 -1.70373,0.17046 -2.20237,0.37881 -0.49864,0.20834 -1.44092,0.3788 -2.09396,0.3788 -0.65304,0 -2.10877,0.2758 -3.23495,0.61288 -1.12619,0.33708 -3.22018,0.79929 -4.65333,1.02713 -4.02547,0.63996 -5.23607,0.89915 -5.39413,1.1549 -0.22383,0.36217 -2.96932,0.27979 -3.53198,-0.10597 -0.27397,-0.18783 -1.00469,-0.42023 -1.62383,-0.51644 -0.61913,-0.0962 -1.62794,-0.39709 -2.24181,-0.66863 -2.0303,-0.8981 -3.09324,-0.57621 -3.866,1.17074 -0.64988,1.46917 -0.9604,4.38702 -0.68362,6.42394 0.59929,4.4105 4.08933,8.58956 8.46049,10.13079 3.24644,1.14467 6.22552,1.44431 9.50979,0.95651 z m -0.70924,-20.66465 c 2.22233,-0.44841 4.72246,-0.98725 5.55584,-1.19742 0.83337,-0.21018 2.42436,-0.47818 3.53553,-0.59557 1.11117,-0.11738 2.04872,-0.22246 2.08344,-0.2335 0.0347,-0.011 0.0631,-0.24666 0.0631,-0.52358 0,-0.60201 -1.57174,-1.81818 -3.52581,-2.7282 -1.70447,-0.79377 -4.97724,-1.05574 -9.6138,-0.76956 -4.66136,0.28772 -7.89633,1.43896 -10.4004,3.70124 -1.52687,1.37943 -1.33336,1.74115 1.37627,2.5727 0.51892,0.15925 1.01709,0.40861 1.10703,0.55414 0.30683,0.49646 5.56034,0.079 9.81876,-0.78025 z"
       id="path3337"
       inkscape:connector-curvature="0"
       transform="translate(0,786.614)" />
    <path
       style="fill:#1a1a1a;fill-opacity:1"
       d="m 93.888741,123.80694 c -1.800057,-0.40922 -7.419739,-3.00958 -11.39099,-5.27087 -8.127322,-4.62784 -13.290877,-9.11201 -16.197053,-14.06596 -2.540674,-4.33091 -3.638204,-8.330665 -3.401292,-12.395423 0.241318,-4.140362 1.551986,-7.315643 6.067986,-14.700568 1.314923,-2.150266 2.631597,-4.381637 2.925942,-4.958604 0.402991,-0.789926 1.091638,-1.423191 2.788153,-2.563926 9.291736,-6.247749 20.086228,-11.453895 32.533553,-15.690819 6.93018,-2.358953 14.49276,-4.45432 31.36817,-8.691189 8.54473,-2.145306 17.27189,-4.400777 19.39369,-5.012157 l 3.85781,-1.1116 3.59206,1.089176 c 4.142,1.255927 10.23455,3.341758 10.7894,3.693839 0.26104,0.165641 0.10402,0.193667 -0.50507,0.09015 -3.14868,-0.535137 -6.54604,-0.691228 -12.37437,-0.568536 -9.38947,0.197658 -13.1703,0.781971 -26.50432,4.096149 -17.60759,4.376371 -29.35854,7.779043 -36.65035,10.612675 -13.854825,5.384056 -20.540985,9.244447 -26.523594,15.313938 -5.788141,5.872199 -9.167248,13.592403 -8.062318,18.419879 0.393686,1.72003 2.646691,6.488054 4.060766,8.593778 3.288307,4.89669 9.375588,10.99829 14.25657,14.2901 2.959635,1.99603 6.480487,3.44031 10.280282,4.21707 3.663361,0.74887 4.418402,0.49528 6.637874,-2.22937 1.7984,-2.20775 2.4135,-3.41812 2.56342,-5.04422 0.0656,-0.71148 0.14112,-5.72826 0.16784,-11.1484 l 0.0486,-9.854798 0.84622,-1.718421 c 1.99463,-4.050482 7.11419,-7.675326 13.94826,-9.875905 7.62168,-2.454186 13.0743,-3.50551 18.28801,-3.526127 4.3046,-0.01702 6.70246,0.385666 10.27227,1.72507 2.95989,1.110564 4.834,2.254219 6.65818,4.063091 2.11428,2.096521 2.51876,3.016053 2.49943,5.682108 -0.0186,2.569361 -0.89577,5.187495 -2.92167,8.720703 -1.28354,2.238511 -3.2218,5.028689 -3.382,4.868489 -0.0479,-0.0479 0.79515,-1.849413 1.87348,-4.003329 2.39507,-4.784047 3.16261,-7.363759 3.00434,-10.097667 -0.13789,-2.381985 -0.86623,-3.930324 -2.569,-5.461255 -2.56059,-2.302196 -6.35601,-3.609475 -13.79353,-4.750983 -0.8865,-0.13606 -14.71027,3.500974 -17.37213,4.570607 -7.55546,3.036069 -12.10946,6.09468 -13.70235,9.202927 -0.79,1.541553 -0.92142,4.060414 -0.37128,7.115888 0.23941,1.329629 0.37926,2.967212 0.31078,3.639072 -0.0685,0.67186 -0.35883,4.21926 -0.64521,7.88311 l -0.52071,6.66155 -1.51984,2.3049 c -3.38344,5.13112 -6.457029,6.83362 -10.625969,5.88586 z"
       id="path3339"
       inkscape:connector-curvature="0"
       transform="translate(0,786.614)" />
  </g>
</svg>
